<svg width="25" height="25" viewBox="0 0 25 25" fill="none" xmlns="http://www.w3.org/2000/svg">
<path fill-rule="evenodd" clip-rule="evenodd" d="M7.7982 22.3957H16.4939C19.6879 22.3957 22.1383 21.242 21.4424 16.5987L20.6319 10.3057C20.2028 7.98878 18.725 7.10205 17.4282 7.10205H6.82566C5.50986 7.10205 4.1178 8.05553 3.62199 10.3057L2.81154 16.5987C2.2204 20.7176 4.60407 22.3957 7.7982 22.3957Z" stroke="#1D1E20" stroke-width="1.5" stroke-linecap="round" stroke-linejoin="round"/>
<path d="M7.65515 6.87323C7.65515 4.38774 9.67004 2.37284 12.1555 2.37284C13.3524 2.36777 14.502 2.83968 15.3501 3.68422C16.1982 4.52875 16.675 5.67634 16.675 6.87323" stroke="#1D1E20" stroke-width="1.5" stroke-linecap="round" stroke-linejoin="round"/>
<path d="M9.06628 11.5645H9.11396" stroke="#1D1E20" stroke-width="1.5" stroke-linecap="round" stroke-linejoin="round"/>
<path d="M15.1399 11.5645H15.1876" stroke="#1D1E20" stroke-width="1.5" stroke-linecap="round" stroke-linejoin="round"/>
</svg>
