<svg width="20" height="20" viewBox="0 0 20 20" fill="none" xmlns="http://www.w3.org/2000/svg">
<path d="M7.01033 5.95365L6.10442 5.37387L5.19525 6.79036L9.47108 9.52781L12.3535 5.02797C13.098 3.79268 12.7488 2.26744 11.5859 1.5197C10.3309 0.689568 8.71672 1.24958 8.08093 2.28727L7.84704 2.65293L9.93886 3.99034C10.1991 4.15503 10.2749 4.49767 10.1069 4.7579C9.94217 5.01814 9.59954 5.09391 9.33931 4.92591L7.24748 3.5885L6.70724 4.4383L7.61315 5.01809C7.87338 5.18278 7.94916 5.52541 7.78115 5.78565C7.60984 6.04257 7.26725 6.11503 7.01033 5.95365Z" fill="white"/>
<path d="M17.4001 13.4216C17.4001 12.1106 16.9356 10.9082 16.1681 9.96606L8.47296 17.658C9.42167 18.4288 10.6306 18.89 11.9253 18.89C14.946 18.89 17.4001 16.4358 17.4001 13.4216Z" fill="#FFC10D"/>
<path d="M15.3841 9.17868C14.4518 8.41775 13.1045 7.94997 11.8099 7.93677L8.20939 13.5599C7.84046 14.1529 7.29033 14.6141 6.66443 14.9072C6.86866 15.6451 7.22444 16.3105 7.68891 16.8772L15.3841 9.17868Z" fill="#FFC10D"/>
<path d="M3.76883 13.7279C5.07332 14.4987 6.53593 14.0738 7.2771 12.9604L8.87148 10.4667L4.59565 7.72925L3.00132 10.223C2.24364 11.3957 2.58954 12.9703 3.76883 13.7279Z" fill="#56ACE0"/>
<path d="M10.9863 2.45866C10.6371 2.16876 9.57316 1.98761 9.01315 2.89021L6.73029 6.45779L9.13504 7.99617L11.4179 4.4319C11.8428 3.76641 11.5925 2.95936 10.9863 2.45866Z" fill="#FFC10D"/>
<path d="M12.4984 6.85957L13.289 5.62754C14.4123 3.79926 13.7897 1.5164 12.1822 0.587462C10.4033 -0.568797 8.16659 0.0768756 7.14211 1.69429L2.06249 9.62336C0.975428 11.3166 1.47282 13.5796 3.16932 14.6634C3.9138 15.1675 4.78016 15.3289 5.60041 15.2201C6.39101 18.0202 8.96707 20 11.9285 20C15.5587 20 18.5136 17.0484 18.5136 13.4215C18.5136 9.97914 15.865 7.15272 12.4984 6.85957ZM6.10443 5.37388L7.01033 5.95366C7.27057 6.11835 7.61315 6.04258 7.77789 5.78566C7.94259 5.52873 7.86681 5.18284 7.60989 5.0181L6.70393 4.43831L7.24749 3.59172L9.33931 4.92913C9.59955 5.09382 9.94213 5.01805 10.1069 4.76112C10.2716 4.50089 10.1958 4.1583 9.93887 3.99356L7.84378 2.65284L8.07767 2.28717C8.71672 1.24623 10.3309 0.689477 11.5827 1.51961C12.7455 2.2674 13.098 3.78928 12.3502 5.02788L9.46777 9.52782L5.19194 6.79037L6.10443 5.37388ZM3.76882 13.7279C2.59279 12.9702 2.24364 11.4022 3.00126 10.2196L4.59565 7.72594L8.87148 10.4634L7.27709 12.9571C6.53593 14.0738 5.07006 14.4954 3.76882 13.7279ZM6.6677 14.9006C7.2936 14.6107 7.84042 14.1496 8.21266 13.5533L11.8132 7.93348C13.1078 7.94668 14.4551 8.41441 15.3874 9.1754L7.68892 16.8738C7.22445 16.3039 6.87194 15.6385 6.6677 14.9006ZM11.9285 18.8898C10.6306 18.8898 9.42497 18.4319 8.47626 17.6578L16.1714 9.96263C16.9423 10.9081 17.4035 12.1071 17.4035 13.4182C17.4001 16.4357 14.946 18.8898 11.9285 18.8898Z" fill="#194F82"/>
</svg>
