<svg width="20" height="20" viewBox="0 0 20 20" fill="none" xmlns="http://www.w3.org/2000/svg">
<g clip-path="url(#clip0_1600_164)">
<path d="M19.2279 6.07595C19.8977 4.90134 19.5 3.11618 18.1919 1.8081C16.8924 0.508528 15.122 0.107551 13.9471 0.759192C13.3985 1.06345 11.4445 6.02904 11.4445 6.02904L12.0836 7.91642L14.0012 8.52532C14.0012 8.52532 18.9149 6.62478 19.2279 6.07595Z" fill="#FF738E"/>
<path d="M14.0012 8.52526L11.4747 5.99878L8.39655 9.26944L10.7306 11.6035L14.0012 8.52526Z" fill="#194F82"/>
<path d="M8.39651 9.26953L0.804793 17.3358C0.323816 17.847 0.336355 18.6712 0.832644 19.1675C1.32889 19.6637 2.15315 19.6762 2.66428 19.1953L10.7305 11.6036L8.39651 9.26953Z" fill="#0E4675"/>
<path d="M19.8919 3.88771C19.6879 3.02615 19.1978 2.17393 18.5118 1.48807C17.8208 0.797051 16.9968 0.32123 16.1287 0.111973C15.2532 -0.0991211 14.4004 -0.00978518 13.7276 0.363379C13.5491 0.462402 13.2505 0.627988 12.0752 3.32752C11.6007 4.41736 11.1709 5.49174 11.0544 5.78521L8.38651 8.61982C8.20917 8.45291 7.92999 8.45615 7.75651 8.62951C7.57979 8.80623 7.57979 9.09275 7.75651 9.26951L7.76612 9.27904L0.475297 17.0255C-0.172789 17.7142 -0.155992 18.8186 0.512719 19.4872C0.853969 19.8285 1.30854 19.9999 1.76354 19.9999C2.20014 19.9999 2.63717 19.842 2.9744 19.5246L10.721 12.2338L10.7305 12.2433C10.9072 12.42 11.1937 12.42 11.3705 12.2433C11.5439 12.0699 11.5471 11.7907 11.3802 11.6134L14.2473 8.91494C14.5455 8.7985 15.6025 8.38248 16.6756 7.92217C19.3502 6.77486 19.5197 6.4776 19.621 6.30002C20.0047 5.62701 20.101 4.77029 19.8919 3.88771ZM2.35416 18.8655C2.0237 19.1766 1.4735 19.1682 1.1526 18.8473C0.831743 18.5265 0.823383 17.9762 1.13432 17.6458L8.40631 9.91916L10.0807 11.5935L2.35416 18.8655ZM10.7401 10.973L9.0269 9.25986L11.4846 6.64857L11.9917 7.15572C11.9949 7.15893 11.9981 7.16221 12.0014 7.16533L12.8358 7.99971C12.8383 8.00229 12.8407 8.00479 12.8433 8.00721L13.3514 8.51537L10.7401 10.973ZM18.8465 5.8308C18.5257 6.1533 16.2073 7.1758 14.1123 7.99635L13.847 7.73104L16.5238 5.71291C16.7234 5.56244 16.7632 5.27869 16.6127 5.07912C16.4623 4.87971 16.1786 4.83982 15.979 4.99021L13.2008 7.08478L12.9151 6.79908L15.0096 4.02092C15.1601 3.82135 15.1202 3.5376 14.9207 3.38713C14.7211 3.2367 14.4374 3.27654 14.2869 3.47604L12.2688 6.15283L11.9919 5.87588C12.8309 3.77322 13.865 1.46432 14.189 1.14244C15.2076 0.595996 16.7514 1.00752 17.8719 2.12791C19.003 3.25904 19.4101 4.81158 18.8465 5.8308Z" fill="#FFC10D"/>
</g>
<defs>
<clipPath id="clip0_1600_164">
<rect width="20" height="20" fill="white"/>
</clipPath>
</defs>
</svg>
