<svg width="27" height="30" viewBox="0 0 27 30" fill="none" xmlns="http://www.w3.org/2000/svg">
<path d="M3.09375 4.06237L5.43375 4.51237L6.51712 18.8536C6.60375 20.0249 7.48462 20.9236 8.54212 20.9199H20.8147C21.8239 20.9224 22.68 20.0974 22.8229 18.9874L23.8905 10.7899C24.0097 9.87362 23.4371 9.02362 22.6136 8.89112C22.5416 8.87987 5.8095 8.87362 5.8095 8.87362" stroke="#101623" stroke-width="1.5" stroke-linecap="round" stroke-linejoin="round"/>
<path d="M15.8906 13.4935H19.0103" stroke="#101623" stroke-width="1.5" stroke-linecap="round" stroke-linejoin="round"/>
<path fill-rule="evenodd" clip-rule="evenodd" d="M8.04852 25.2531C8.38715 25.2531 8.66052 25.5581 8.66052 25.9331C8.66052 26.3094 8.38715 26.6144 8.04852 26.6144C7.7099 26.6144 7.43652 26.3094 7.43652 25.9331C7.43652 25.5581 7.7099 25.2531 8.04852 25.2531Z" fill="#101623" stroke="#101623" stroke-width="1.5" stroke-linecap="round" stroke-linejoin="round"/>
<path fill-rule="evenodd" clip-rule="evenodd" d="M20.739 25.2531C21.0776 25.2531 21.3521 25.5581 21.3521 25.9331C21.3521 26.3094 21.0776 26.6144 20.739 26.6144C20.4003 26.6144 20.127 26.3094 20.127 25.9331C20.127 25.5581 20.4003 25.2531 20.739 25.2531Z" fill="#101623" stroke="#101623" stroke-width="1.5" stroke-linecap="round" stroke-linejoin="round"/>
<path fill-rule="evenodd" clip-rule="evenodd" d="M8.04852 25.2531C8.38715 25.2531 8.66052 25.5581 8.66052 25.9331C8.66052 26.3094 8.38715 26.6144 8.04852 26.6144C7.7099 26.6144 7.43652 26.3094 7.43652 25.9331C7.43652 25.5581 7.7099 25.2531 8.04852 25.2531Z" fill="#101623" stroke="#101623" stroke-width="1.5" stroke-linecap="round" stroke-linejoin="round"/>
</svg>
