<svg width="21" height="20" viewBox="0 0 21 20" fill="none" xmlns="http://www.w3.org/2000/svg">
<path d="M1 1L3.13622 1.34859L4.12525 12.4581C4.20433 13.3654 5.00849 14.0616 5.9739 14.0587H17.1778C18.099 14.0607 18.8806 13.4216 19.011 12.5617L19.9857 6.21149C20.0945 5.50171 19.5718 4.84325 18.82 4.74061C18.7543 4.7319 3.47925 4.72705 3.47925 4.72705" stroke="#8F959E" stroke-width="1.5" stroke-linecap="round" stroke-linejoin="round"/>
<path d="M12.6824 8.30594H15.5303" stroke="#8F959E" stroke-width="1.5" stroke-linecap="round" stroke-linejoin="round"/>
<path fill-rule="evenodd" clip-rule="evenodd" d="M5.5233 17.4155C5.83244 17.4155 6.08201 17.6518 6.08201 17.9423C6.08201 18.2338 5.83244 18.47 5.5233 18.47C5.21417 18.47 4.9646 18.2338 4.9646 17.9423C4.9646 17.6518 5.21417 17.4155 5.5233 17.4155Z" fill="#8F959E" stroke="#8F959E" stroke-width="1.5" stroke-linecap="round" stroke-linejoin="round"/>
<path fill-rule="evenodd" clip-rule="evenodd" d="M17.1085 17.4155C17.4176 17.4155 17.6682 17.6518 17.6682 17.9423C17.6682 18.2338 17.4176 18.47 17.1085 18.47C16.7994 18.47 16.5498 18.2338 16.5498 17.9423C16.5498 17.6518 16.7994 17.4155 17.1085 17.4155Z" fill="#8F959E" stroke="#8F959E" stroke-width="1.5" stroke-linecap="round" stroke-linejoin="round"/>
</svg>
