<svg width="24" height="24" viewBox="0 0 24 24" fill="none" xmlns="http://www.w3.org/2000/svg">
<mask id="mask0_1299_536" style="mask-type:luminance" maskUnits="userSpaceOnUse" x="1" y="1" width="22" height="22">
<path fill-rule="evenodd" clip-rule="evenodd" d="M1 1.00049H22.493V22.4943H1V1.00049Z" fill="white"/>
</mask>
<g mask="url(#mask0_1299_536)">
<path fill-rule="evenodd" clip-rule="evenodd" d="M6.1084 19.6755C6.6884 19.6755 7.2354 19.8955 7.8144 20.1285C11.3614 21.7685 15.5564 21.0225 18.2894 18.2905C21.8954 14.6825 21.8954 8.81349 18.2894 5.20749C16.5434 3.46149 14.2214 2.50049 11.7494 2.50049C9.2764 2.50049 6.9534 3.46249 5.2084 5.20849C2.4744 7.94049 1.7304 12.1355 3.3554 15.6485C3.5894 16.2275 3.8154 16.7915 3.8154 17.3775C3.8154 17.9625 3.6144 18.5515 3.4374 19.0715C3.2914 19.4995 3.0704 20.1455 3.2124 20.2875C3.3514 20.4315 4.0014 20.2045 4.4304 20.0575C4.9454 19.8815 5.5294 19.6795 6.1084 19.6755ZM11.7244 22.4945C10.1964 22.4945 8.6584 22.1715 7.2194 21.5055C6.7954 21.3355 6.3984 21.1755 6.1134 21.1755C5.7854 21.1775 5.3444 21.3295 4.9184 21.4765C4.0444 21.7765 2.9564 22.1505 2.1514 21.3485C1.3494 20.5455 1.7194 19.4605 2.0174 18.5875C2.1644 18.1575 2.3154 17.7135 2.3154 17.3775C2.3154 17.1015 2.1824 16.7495 1.9784 16.2425C0.105399 12.1975 0.971399 7.32249 4.1484 4.14749C6.1764 2.11849 8.8754 1.00049 11.7484 1.00049C14.6214 1.00049 17.3214 2.11749 19.3494 4.14649C23.5414 8.33849 23.5414 15.1585 19.3494 19.3505C17.2944 21.4065 14.5274 22.4945 11.7244 22.4945Z" fill="#9775FA"/>
</g>
<path fill-rule="evenodd" clip-rule="evenodd" d="M15.6963 13.1631C15.1443 13.1631 14.6923 12.7161 14.6923 12.1631C14.6923 11.6101 15.1353 11.1631 15.6873 11.1631H15.6963C16.2483 11.1631 16.6963 11.6101 16.6963 12.1631C16.6963 12.7161 16.2483 13.1631 15.6963 13.1631Z" fill="#9775FA"/>
<path fill-rule="evenodd" clip-rule="evenodd" d="M11.6875 13.1631C11.1355 13.1631 10.6835 12.7161 10.6835 12.1631C10.6835 11.6101 11.1255 11.1631 11.6785 11.1631H11.6875C12.2395 11.1631 12.6875 11.6101 12.6875 12.1631C12.6875 12.7161 12.2395 13.1631 11.6875 13.1631Z" fill="#9775FA"/>
<path fill-rule="evenodd" clip-rule="evenodd" d="M7.6783 13.1631C7.1263 13.1631 6.6743 12.7161 6.6743 12.1631C6.6743 11.6101 7.1173 11.1631 7.6693 11.1631H7.6783C8.2303 11.1631 8.6783 11.6101 8.6783 12.1631C8.6783 12.7161 8.2303 13.1631 7.6783 13.1631Z" fill="#9775FA"/>
</svg>
