<svg width="375" height="381" viewBox="0 0 375 381" fill="none" xmlns="http://www.w3.org/2000/svg">
<g clip-path="url(#clip0_1210_812)">
<path d="M0 377.141C0 377.697 0.378833 378.144 0.850576 378.144H374.149C374.621 378.144 375 377.697 375 377.141C375 376.585 374.621 376.138 374.149 376.138H0.850576C0.378827 376.138 0 376.585 0 377.141Z" fill="#3F3C57"/>
<path d="M121.797 40.4907L125.856 62.3296L117.221 92.7272L103.31 60.0674L105.24 41.1201L121.797 40.4907Z" fill="#FDB4B4"/>
<path d="M126.61 61.1985H102.59V95.4135H126.61V61.1985Z" fill="#9775FA"/>
<path d="M116.733 51.4913C125.792 51.4913 133.137 42.8329 133.137 32.1523C133.137 21.4717 125.792 12.8133 116.733 12.8133C107.673 12.8133 100.329 21.4717 100.329 32.1523C100.329 42.8329 107.673 51.4913 116.733 51.4913Z" fill="#FDB4B4"/>
<path d="M102.454 46.5328C102.454 46.5328 90.2266 19.9101 101.251 7.0986C112.276 -5.71293 121.126 2.72906 121.126 2.72906L126.179 2.48828C126.179 2.48828 127.233 7.17704 128.933 4.63882C130.632 2.10059 133.703 11.3445 133.703 11.3445C139.403 23.4469 119.643 26.1581 119.643 26.1581C119.643 26.1581 121.07 31.5167 119.62 32.6389C118.17 33.7611 114.295 37.9826 114.295 37.9826L110.826 41.0709L108.765 37.3685C108.765 37.3685 106.612 35.3649 105.524 36.2065C104.437 37.0482 105.933 48.1223 105.933 48.1223L102.454 46.5328Z" fill="#2E2E41"/>
<path d="M82.7753 242.392L76.5037 352.682L91.9214 353.299L112.304 243.316L82.7753 242.392Z" fill="#2E2E41"/>
<path d="M120.144 241.776L113.872 352.066L129.29 352.682L149.673 242.7L120.144 241.776Z" fill="#2E2E41"/>
<path d="M78.9988 267.59L87.2064 147.468L74.6197 84.9173C73.5346 75.6191 78.504 66.8211 86.1736 64.4221L98.4899 60.5699L103.941 54.1429L116.34 86.4241L124.084 54.1675L130.124 59.3458L148.036 68.6623L148.028 68.8805L145.155 144.441L151.568 266.52L151.284 266.525L78.9988 267.59Z" fill="#E8E9EA"/>
<path d="M128.3 351.429L132.764 367.141C132.764 367.141 150.229 369.94 150.501 376.315C150.773 382.689 126.765 378.999 112.707 379.832C98.6489 380.665 110.351 362.718 110.351 362.718L111.849 352.404L128.3 351.429Z" fill="#2E2E41"/>
<path d="M91.8423 350.298L96.3066 366.01C96.3066 366.01 113.772 368.809 114.044 375.184C114.315 381.558 90.3074 377.868 76.2494 378.701C62.1914 379.534 73.8936 361.586 73.8936 361.586L75.3917 351.273L91.8423 350.298Z" fill="#2E2E41"/>
<path d="M70.0619 203.794C69.8726 200.697 70.3155 197.59 71.3535 194.736L68.0217 162.513L81.0733 161.093L83.0474 193.931C84.359 196.624 85.1047 199.647 85.222 202.749C85.6058 210.508 82.5232 217.028 78.3364 217.316C74.1496 217.605 70.4447 211.55 70.0619 203.794Z" fill="#FDB4B4"/>
<path d="M152.728 208.524C152.567 205.424 153.039 202.324 154.103 199.483L151.069 167.219L164.133 165.966L165.804 198.829C167.09 201.538 167.808 204.571 167.896 207.674C168.209 215.437 165.066 221.918 160.877 222.152C156.687 222.386 153.039 216.285 152.728 208.524Z" fill="#FDB4B4"/>
<path d="M67.968 190.872L67.9238 190.594L61.1218 147.567L69.1591 77.5024C69.8763 71.2471 74.6141 66.7411 79.9568 67.2447C82.7469 67.508 85.2502 69.0681 87.0063 71.6382C88.762 74.2083 89.5217 77.4245 89.1453 80.6945L83.0961 133.242L86.9048 189.447L67.968 190.872Z" fill="#E8E9EA"/>
<path d="M148.697 189.862L135.021 82.2409C134.31 79.0852 134.726 75.7827 136.198 72.9764C137.671 70.1701 139.991 68.2566 142.732 67.5881C147.977 66.3094 153.155 70.0887 154.524 76.1907L167.662 188.511L148.697 189.862Z" fill="#E8E9EA"/>
<path d="M116.742 96.2618C117.669 96.2618 118.421 95.3756 118.421 94.2825C118.421 93.1893 117.669 92.3031 116.742 92.3031C115.814 92.3031 115.063 93.1893 115.063 94.2825C115.063 95.3756 115.814 96.2618 116.742 96.2618Z" fill="#D6D7D8"/>
<path d="M116.742 111.249C117.669 111.249 118.421 110.362 118.421 109.269C118.421 108.176 117.669 107.29 116.742 107.29C115.814 107.29 115.063 108.176 115.063 109.269C115.063 110.362 115.814 111.249 116.742 111.249Z" fill="#D6D7D8"/>
<path d="M116.742 126.235C117.669 126.235 118.421 125.349 118.421 124.256C118.421 123.163 117.669 122.277 116.742 122.277C115.814 122.277 115.063 123.163 115.063 124.256C115.063 125.349 115.814 126.235 116.742 126.235Z" fill="#D6D7D8"/>
<path d="M116.742 141.222C117.669 141.222 118.421 140.336 118.421 139.243C118.421 138.15 117.669 137.263 116.742 137.263C115.814 137.263 115.063 138.15 115.063 139.243C115.063 140.336 115.814 141.222 116.742 141.222Z" fill="#D6D7D8"/>
<path d="M116.742 156.209C117.669 156.209 118.421 155.323 118.421 154.229C118.421 153.136 117.669 152.25 116.742 152.25C115.814 152.25 115.063 153.136 115.063 154.229C115.063 155.323 115.814 156.209 116.742 156.209Z" fill="#D6D7D8"/>
<path d="M116.742 171.196C117.669 171.196 118.421 170.309 118.421 169.216C118.421 168.123 117.669 167.237 116.742 167.237C115.814 167.237 115.063 168.123 115.063 169.216C115.063 170.309 115.814 171.196 116.742 171.196Z" fill="#D6D7D8"/>
<path d="M116.742 186.182C117.669 186.182 118.421 185.296 118.421 184.203C118.421 183.11 117.669 182.224 116.742 182.224C115.814 182.224 115.063 183.11 115.063 184.203C115.063 185.296 115.814 186.182 116.742 186.182Z" fill="#D6D7D8"/>
<path d="M116.742 201.169C117.669 201.169 118.421 200.283 118.421 199.19C118.421 198.096 117.669 197.21 116.742 197.21C115.814 197.21 115.063 198.096 115.063 199.19C115.063 200.283 115.814 201.169 116.742 201.169Z" fill="#D6D7D8"/>
<path d="M116.744 212.762L84.9758 207.771L84.364 207.675L68.1282 163.541L58.4592 137.264H83.644L116.744 212.762Z" fill="#9775FA"/>
<path d="M244.116 45.2922L264.313 32.2478V69.5175H240.955L244.116 45.2922Z" fill="#2E2E41"/>
<path d="M268.644 53.6015L270.508 71.8987L257.074 103.438L248.735 74.0832L252.655 52.9937L268.644 53.6015Z" fill="#FDB4B4"/>
<path d="M271.202 72.9909H248.007V106.032H271.202V72.9909Z" fill="#9775FA"/>
<path d="M290.338 247.967L296.394 354.473L281.505 355.068L261.822 248.859L290.338 247.967Z" fill="#2E2E41"/>
<path d="M254.251 247.372L260.308 353.878L245.419 354.473L225.736 248.264L254.251 247.372Z" fill="#2E2E41"/>
<path d="M306.068 270.556L305.713 270.555L210.865 270.19L210.95 269.794L235.335 155.892L229.227 98.4098C228.069 87.5176 233.015 77.2222 241.534 72.7916L244.609 71.1922L250.452 66.1832L257.926 97.3191L269.895 66.1589L275.167 72.374L287.058 76.0934C294.47 78.4114 299.271 86.9127 298.227 95.8681L298.215 95.9304L280.056 157.016L306.068 270.556Z" fill="#E8E9EA"/>
<path d="M246.375 353.263L262.261 354.204L263.708 364.164C263.708 364.164 275.009 381.496 261.433 380.691C247.857 379.887 224.673 383.45 224.936 377.294C225.198 371.139 242.064 368.435 242.064 368.435L246.375 353.263Z" fill="#2E2E41"/>
<path d="M281.582 352.17L297.468 353.112L298.915 363.071C298.915 363.071 310.215 380.403 296.64 379.599C283.064 378.795 259.88 382.358 260.142 376.202C260.405 370.046 277.271 367.343 277.271 367.343L281.582 352.17Z" fill="#2E2E41"/>
<path d="M296.129 209.602C295.76 217.091 292.182 222.938 288.139 222.66C284.096 222.381 281.119 216.085 281.489 208.592C281.603 205.597 282.323 202.677 283.589 200.077L285.496 168.365L298.1 169.737L294.882 200.854C295.884 203.61 296.312 206.61 296.129 209.602Z" fill="#FDB4B4"/>
<path d="M231.36 206.753C230.855 214.232 227.173 219.988 223.135 219.608C219.098 219.229 216.236 212.859 216.742 205.377C216.909 202.385 217.681 199.484 218.995 196.916L221.473 165.26L234.049 166.947L230.271 197.976C231.223 200.757 231.597 203.767 231.36 206.753Z" fill="#FDB4B4"/>
<path d="M298.159 197.134L279.854 195.757L279.876 195.433L283.533 141.47L277.692 90.7272C277.328 87.5665 278.062 84.4576 279.759 81.9735C281.456 79.4891 283.876 77.9811 286.573 77.7264C291.738 77.2465 296.317 81.5955 297.01 87.6417L304.772 155.304L304.764 155.354L298.159 197.134Z" fill="#E8E9EA"/>
<path d="M234.407 195.067L216.074 193.76L216.114 193.419L228.756 85.3196C230.086 79.3825 235.094 75.7307 240.16 76.966C242.81 77.6121 245.053 79.4617 246.476 82.1745C247.899 84.8873 248.302 88.0792 247.609 91.1626L234.407 195.067Z" fill="#E8E9EA"/>
<path d="M257.537 106.851C258.432 106.851 259.158 105.995 259.158 104.94C259.158 103.884 258.432 103.028 257.537 103.028C256.641 103.028 255.915 103.884 255.915 104.94C255.915 105.995 256.641 106.851 257.537 106.851Z" fill="#D6D7D8"/>
<path d="M257.537 121.324C258.432 121.324 259.158 120.468 259.158 119.412C259.158 118.356 258.432 117.501 257.537 117.501C256.641 117.501 255.915 118.356 255.915 119.412C255.915 120.468 256.641 121.324 257.537 121.324Z" fill="#D6D7D8"/>
<path d="M257.537 135.796C258.432 135.796 259.158 134.94 259.158 133.885C259.158 132.829 258.432 131.973 257.537 131.973C256.641 131.973 255.915 132.829 255.915 133.885C255.915 134.94 256.641 135.796 257.537 135.796Z" fill="#D6D7D8"/>
<path d="M257.537 150.269C258.432 150.269 259.158 149.413 259.158 148.357C259.158 147.301 258.432 146.446 257.537 146.446C256.641 146.446 255.915 147.301 255.915 148.357C255.915 149.413 256.641 150.269 257.537 150.269Z" fill="#D6D7D8"/>
<path d="M257.537 164.741C258.432 164.741 259.158 163.885 259.158 162.83C259.158 161.774 258.432 160.918 257.537 160.918C256.641 160.918 255.915 161.774 255.915 162.83C255.915 163.885 256.641 164.741 257.537 164.741Z" fill="#D6D7D8"/>
<path d="M257.537 179.214C258.432 179.214 259.158 178.358 259.158 177.302C259.158 176.246 258.432 175.391 257.537 175.391C256.641 175.391 255.915 176.246 255.915 177.302C255.915 178.358 256.641 179.214 257.537 179.214Z" fill="#D6D7D8"/>
<path d="M257.537 193.686C258.432 193.686 259.158 192.83 259.158 191.775C259.158 190.719 258.432 189.863 257.537 189.863C256.641 189.863 255.915 190.719 255.915 191.775C255.915 192.83 256.641 193.686 257.537 193.686Z" fill="#D6D7D8"/>
<path d="M257.537 208.159C258.432 208.159 259.158 207.303 259.158 206.247C259.158 205.191 258.432 204.336 257.537 204.336C256.641 204.336 255.915 205.191 255.915 206.247C255.915 207.303 256.641 208.159 257.537 208.159Z" fill="#D6D7D8"/>
<path d="M259.998 62.9396C268.374 62.9396 275.163 54.935 275.163 45.0608C275.163 35.1865 268.374 27.1819 259.998 27.1819C251.622 27.1819 244.833 35.1865 244.833 45.0608C244.833 54.935 251.622 62.9396 259.998 62.9396Z" fill="#FDB4B4"/>
<path d="M267.946 24.1894C268.672 25.9319 267.52 28.1084 265.995 28.8409C264.469 29.5735 262.746 29.2767 261.12 28.9717C259.493 28.6668 257.768 28.3776 256.247 29.1232C254.279 30.0878 253.17 32.5076 252.214 34.7531C250.43 38.945 248.646 43.137 246.862 47.329C245.99 49.3771 245.098 51.5173 245.082 53.8087C245.051 58.0148 247.881 61.3761 249.404 65.18C251.258 69.8114 251.105 75.4872 249.005 79.9706C246.906 84.454 242.913 87.6306 238.601 88.2485C237.466 88.4111 236.266 88.3935 235.245 87.7858C234.225 87.1781 233.447 85.851 233.636 84.5221C234.005 81.9229 237.374 81.3155 237.993 78.783C238.316 77.461 237.744 76.0492 236.973 75.0166C236.201 73.984 235.226 73.1785 234.491 72.1104C232.795 69.6476 232.682 65.8456 234.227 63.2489C235.136 61.7228 236.541 60.5889 237.128 58.8578C237.628 57.3822 237.446 55.7236 237.257 54.1503C237.013 52.1286 236.77 50.1069 236.526 48.0852C236.242 45.7265 235.962 43.2832 236.524 40.9946C237.811 35.7501 242.834 33.287 245.779 29.0744C247.148 27.1169 248.069 24.7626 249.473 22.8403C251.83 19.6143 255.54 17.8347 259.138 18.2047C262.735 18.5746 266.128 21.0846 267.975 24.7428" fill="#2E2E41"/>
<path d="M265.551 24.5201C264.811 24.8325 264.536 25.9702 264.749 26.8631C264.962 27.7561 265.521 28.4655 266.032 29.1708C271.813 37.1473 273.157 49.2126 269.318 58.6782C268.297 61.196 266.937 63.5655 266.386 66.2797C265.985 68.2546 266.007 70.4209 265.078 72.1306C264.132 73.8712 262.257 75.0375 262.071 77.0932C261.952 78.4125 262.634 79.6939 263.549 80.4674C264.463 81.2408 265.58 81.5947 266.678 81.8833C269.533 82.6332 272.452 83.0427 275.377 83.1033C276.33 83.1231 277.314 83.0988 278.189 82.6509C279.063 82.203 279.81 81.2317 279.82 80.1076C279.828 79.2241 279.395 78.409 279.34 77.5279C279.175 74.8876 282.189 73.4829 282.776 70.9275C283.162 69.2475 282.401 67.5187 281.591 66.0636C280.781 64.6085 279.856 63.0806 279.876 61.3402C279.895 59.6741 280.782 58.2067 281.127 56.5908C281.604 54.3555 281.018 52.0175 280.437 49.8168C279.943 47.9458 279.449 46.0748 278.955 44.2039C278.43 42.2149 277.905 40.226 277.38 38.2371C276.464 34.7648 275.501 31.192 273.518 28.407C271.534 25.6221 268.248 23.7968 265.318 24.9338" fill="#2E2E41"/>
<path d="M275.885 93.801L274.846 93.4438C277.012 84.6901 272.342 68.3544 272.295 68.1905L273.32 67.7785C273.518 68.4638 278.146 84.6639 275.885 93.801Z" fill="#3F3C57"/>
<path d="M275.366 103.856C277.864 103.856 279.888 101.468 279.888 98.5236C279.888 95.5789 277.864 93.1917 275.366 93.1917C272.868 93.1917 270.843 95.5789 270.843 98.5236C270.843 101.468 272.868 103.856 275.366 103.856Z" fill="#3F3C57"/>
<path d="M245.649 117.4H242.906C242.607 117.4 242.365 117.115 242.365 116.762C242.365 116.41 242.607 116.124 242.906 116.124H245.649C246.405 116.124 247.115 115.777 247.649 115.146C248.182 114.516 248.476 113.678 248.474 112.787L248.441 92.8695C248.441 88.5426 245.456 85.0236 241.787 85.0236C238.118 85.0236 235.132 88.5426 235.132 92.8682L235.165 111.511C235.169 113.33 236.426 114.821 237.969 114.835L239.852 114.851C240.15 114.854 240.391 115.142 240.389 115.495C240.387 115.845 240.145 116.128 239.848 116.128H239.843L237.961 116.111C235.827 116.092 234.087 114.029 234.083 111.513L234.049 92.8695C234.049 87.8389 237.52 83.7471 241.787 83.7471C246.053 83.7471 249.524 87.8389 249.524 92.8682L249.557 112.784C249.559 114.017 249.153 115.176 248.415 116.048C247.677 116.92 246.694 117.4 245.649 117.4Z" fill="#3F3C57"/>
<path d="M239.848 117.752C240.907 117.752 241.767 116.739 241.767 115.49C241.767 114.24 240.907 113.228 239.848 113.228C238.788 113.228 237.929 114.24 237.929 115.49C237.929 116.739 238.788 117.752 239.848 117.752Z" fill="#3F3C57"/>
<path d="M242.906 119.024C243.966 119.024 244.825 118.012 244.825 116.762C244.825 115.513 243.966 114.5 242.906 114.5C241.846 114.5 240.987 115.513 240.987 116.762C240.987 118.012 241.846 119.024 242.906 119.024Z" fill="#3F3C57"/>
<path d="M132.134 84.234L131.095 83.8768C133.26 75.1231 128.643 58.5344 128.596 58.3705L129.896 59.5251C130.094 60.2104 134.395 75.0969 132.134 84.234Z" fill="#3F3C57"/>
<path d="M95.5968 85.7892L96.6362 85.432C94.4707 76.6783 99.14 60.3426 99.1871 60.1787L98.0752 61.0568C97.8769 61.7421 93.3361 76.6521 95.5968 85.7892Z" fill="#3F3C57"/>
<path d="M131.614 94.2886C134.112 94.2886 136.137 91.9014 136.137 88.9566C136.137 86.0119 134.112 83.6247 131.614 83.6247C129.117 83.6247 127.092 86.0119 127.092 88.9566C127.092 91.9014 129.117 94.2886 131.614 94.2886Z" fill="#3F3C57"/>
<path d="M100.418 118.579H97.6756C97.3764 118.579 97.1342 118.293 97.1342 117.94C97.1342 117.588 97.3764 117.302 97.6756 117.302H100.418C101.174 117.302 101.884 116.955 102.418 116.324C102.952 115.694 103.245 114.856 103.244 113.965L103.21 94.0477C103.21 89.7208 100.225 86.2017 96.5564 86.2017C92.8873 86.2017 89.9018 89.7208 89.9018 94.0464L89.9351 112.689C89.9383 114.508 91.196 115.999 92.7387 116.013L94.6214 116.03C94.9201 116.032 95.1606 116.32 95.1585 116.673C95.1564 117.024 94.9143 117.306 94.6171 117.306H94.6129L92.7303 117.289C90.5965 117.27 88.8566 115.207 88.8523 112.692L88.819 94.0477C88.819 89.0171 92.2899 84.9253 96.5564 84.9253C100.822 84.9253 104.293 89.0171 104.293 94.0464L104.326 113.963C104.329 115.195 103.923 116.354 103.185 117.226C102.446 118.098 101.464 118.579 100.418 118.579Z" fill="#3F3C57"/>
<path d="M94.6173 118.93C95.6771 118.93 96.5362 117.917 96.5362 116.668C96.5362 115.419 95.6771 114.406 94.6173 114.406C93.5576 114.406 92.6985 115.419 92.6985 116.668C92.6985 117.917 93.5576 118.93 94.6173 118.93Z" fill="#3F3C57"/>
<path d="M97.6754 120.203C98.7352 120.203 99.5943 119.19 99.5943 117.94C99.5943 116.691 98.7352 115.678 97.6754 115.678C96.6157 115.678 95.7566 116.691 95.7566 117.94C95.7566 119.19 96.6157 120.203 97.6754 120.203Z" fill="#3F3C57"/>
</g>
<defs>
<clipPath id="clip0_1210_812">
<rect width="375" height="381" fill="white"/>
</clipPath>
</defs>
</svg>
