<svg width="20" height="20" viewBox="0 0 20 20" fill="none" xmlns="http://www.w3.org/2000/svg">
<g clip-path="url(#clip0_1612_173)">
<path d="M16.8108 6.32845C16.8456 6.29653 16.8864 6.27183 16.9308 6.25577C16.9752 6.23972 17.0223 6.23262 17.0695 6.2349C17.1294 6.23318 17.1888 6.24777 17.2411 6.27711C17.2934 6.30645 17.3368 6.34943 17.3666 6.40149C17.4672 6.57743 17.4616 6.9008 17.3929 7.10063C17.3443 7.24214 17.2646 7.4586 17.074 7.61347C17.0321 7.6481 16.9834 7.67366 16.9311 7.68854C16.8787 7.70342 16.8239 7.70729 16.77 7.69992L16.7409 7.6949C16.7119 7.79147 16.6766 7.88605 16.6353 7.97803C16.5608 8.17798 16.1653 8.85644 15.6582 9.16453C15.661 9.13247 15.6639 9.15957 15.6667 9.17671C15.6963 9.35603 15.7292 9.54026 15.8238 9.69489C15.9825 9.95233 16.5183 10.1547 16.9161 10.3192L16.3949 10.5865C16.0591 10.7716 15.7284 10.9303 14.7499 10.9521C13.9228 10.9703 13.4019 10.8563 12.6388 10.4951L12.1489 10.209C12.6292 10.0372 13.111 9.91485 13.342 9.75987C13.3705 9.74653 13.3957 9.72717 13.416 9.70312C13.4257 9.68458 13.4319 9.6644 13.4343 9.64361C13.4592 9.50408 13.4841 9.36467 13.5088 9.2254C13.2525 9.10705 13.0238 8.91387 12.8066 8.65187C12.5713 8.3652 12.3971 8.03341 12.2948 7.67692C12.2374 7.6888 12.1779 7.68745 12.1211 7.67296C12.0642 7.65847 12.0114 7.63122 11.9666 7.59329C11.7772 7.43707 11.6993 7.21999 11.6517 7.07809C11.5845 6.87775 11.5815 6.55432 11.6834 6.37928C11.7137 6.32741 11.7574 6.28472 11.81 6.25578C11.8626 6.22684 11.9221 6.21273 11.9821 6.21495C12.0293 6.21308 12.0764 6.22059 12.1207 6.23703C12.1649 6.25348 12.2055 6.27854 12.24 6.31076C12.24 6.31076 11.6258 4.3479 14.5238 4.3479C17.4218 4.3479 16.8108 6.32845 16.8108 6.32845Z" fill="white"/>
<path d="M8.50767 5.03122C8.54527 4.99866 8.58894 4.97386 8.63618 4.95827C8.68341 4.94268 8.73326 4.9366 8.78286 4.94038C8.84607 4.94036 8.90811 4.9575 8.96236 4.98996C9.01661 5.02243 9.06103 5.069 9.09089 5.12472C9.19154 5.31294 9.17605 5.65333 9.09777 5.86173C9.04232 6.00933 8.95198 6.23492 8.74668 6.3922C8.70148 6.42743 8.64946 6.4529 8.59392 6.46702C8.53838 6.48113 8.48052 6.48358 8.42399 6.4742L8.39344 6.46806C8.36006 6.56892 8.32012 6.66749 8.27385 6.76314C8.21648 6.9047 7.99647 7.27445 7.69103 7.59398C7.19657 7.8987 7.00451 8.5261 7.00349 9.08047C7.00084 9.17509 6.99594 9.2696 6.99019 9.36264C5.96103 9.71976 4.9029 9.52691 4.05757 8.77468C4.28114 8.68942 4.55063 8.58539 4.55964 8.58279C4.72956 8.51945 4.78771 8.37991 4.82198 8.23001C4.84416 8.13628 4.86095 8.04135 4.87225 7.9457C4.61864 7.7952 4.39755 7.59571 4.22185 7.35887C3.98257 7.05006 3.80902 6.69554 3.71189 6.31714C3.65101 6.32799 3.58847 6.32482 3.529 6.30788C3.46953 6.29094 3.41471 6.26066 3.36869 6.21936C3.17392 6.04928 3.09818 5.81834 3.05242 5.66748C2.98761 5.45451 2.99409 5.11378 3.10658 4.93243C3.13996 4.87876 3.18727 4.83514 3.24348 4.80623C3.2997 4.77732 3.3627 4.7642 3.42577 4.76827C3.47551 4.76767 3.52487 4.77692 3.57101 4.7955C3.61715 4.81409 3.65915 4.84162 3.69459 4.87653C3.69459 4.87653 2.84548 2.62231 6.13911 2.62231C9.43275 2.62231 8.50767 5.03122 8.50767 5.03122Z" fill="white"/>
<path d="M8.31414 6.2569C8.28933 6.35677 8.25789 6.45488 8.22003 6.55057C8.20667 6.58523 8.19275 6.6196 8.1772 6.6533C8.17072 6.66728 8.16339 6.68086 8.15702 6.69489C8.11532 6.78664 8.16666 6.67838 8.14575 6.72054C8.09625 6.82112 8.0406 6.91855 7.97911 7.01229C7.80311 7.29259 7.58094 7.54107 7.32201 7.74722C7.17692 7.86413 7.00689 7.94612 6.82507 7.98684C6.79048 7.99641 6.76111 8.01932 6.74342 8.05054C6.72573 8.08176 6.72116 8.11873 6.73073 8.15331C6.74029 8.1879 6.7632 8.21727 6.79442 8.23496C6.82564 8.25265 6.86261 8.25722 6.8972 8.24765C7.2674 8.17439 7.58265 7.91324 7.83135 7.64189C8.04421 7.41667 8.22408 7.16242 8.36559 6.88673C8.37095 6.87579 8.37613 6.86486 8.38109 6.85376C8.3878 6.84058 8.39373 6.82701 8.39884 6.81313C8.3887 6.83313 8.40234 6.80749 8.40448 6.80315C8.41012 6.79188 8.41519 6.7801 8.42037 6.76849C8.43232 6.74161 8.4437 6.71445 8.45492 6.68729C8.50419 6.57115 8.54429 6.45133 8.57484 6.32892C8.61542 6.15986 8.35466 6.0875 8.31403 6.25701L8.31414 6.2569Z" fill="#211715"/>
<path d="M7.41881 7.82442C7.12452 8.15855 7.00437 8.64231 7.00353 9.08047C6.9971 9.30798 6.97783 9.53447 6.96481 9.74293C6.94368 10.0867 7.00138 10.4112 7.22703 10.6488C7.4662 10.9006 7.71535 11.0612 8.05545 10.934C8.26064 10.7994 8.57494 10.7343 8.82933 10.6961C9.19989 10.6424 9.57713 10.7295 9.88667 10.9402C10.2459 10.7213 10.4914 10.433 10.6144 10.1336C10.7577 9.75025 10.8159 9.34036 10.785 8.93231C10.7043 7.77635 9.64434 7.3002 8.58779 7.34602C8.28026 7.35216 7.97887 7.43323 7.70977 7.58221C7.6006 7.64707 7.50239 7.72882 7.41881 7.82442Z" fill="white"/>
<path d="M4.33179 18.6632C2.99966 18.5285 1.97496 18.273 1.54874 18.1377C0.947993 17.9469 0.559141 17.4763 0.330958 17.0136C0.0842345 16.5132 0.120471 15.5308 0.196156 15.0581C0.378917 13.9157 0.495459 13.3194 0.714625 12.1942C0.804287 11.7343 0.972845 10.774 1.38632 10.2192C1.69239 9.80833 2.19029 9.50818 2.74888 9.25718C3.16248 9.0712 3.60943 8.91245 4.03638 8.75562C4.88498 9.52379 5.95246 9.72301 6.99007 9.36284C6.98196 9.49342 6.97221 9.6214 6.9646 9.74319C6.94347 10.087 7.00118 10.4115 7.22682 10.649C7.43753 10.8709 7.65602 11.0219 7.93774 10.9678L8.01163 10.9536C7.63145 11.1621 7.29298 11.4094 7.0462 11.8448C6.94956 11.6384 6.83034 11.4433 6.69071 11.2632C6.75899 11.1324 6.78039 10.9822 6.75135 10.8375C6.72791 10.7228 6.65121 10.6008 6.53433 10.5947C6.44066 10.5899 6.36239 10.6611 6.29611 10.7274C6.11228 10.5115 5.85186 10.3199 5.5706 10.3555C5.26481 10.3939 5.04333 10.7125 5.05365 11.0205C5.06531 11.3709 5.32415 11.6831 5.63157 11.8404C5.56744 12.2671 5.869 13.3944 5.98097 13.7746C6.05198 14.0153 6.155 14.2678 6.37377 14.4076C6.4914 14.4776 6.62349 14.5197 6.75992 14.5307L6.72729 14.6353C6.18707 14.6911 5.79573 15.3317 5.99264 15.8378L6.08225 16.0565C6.0916 16.2709 6.10062 16.4779 6.10062 16.4779C6.12789 17.1053 6.01608 18.2326 5.95973 18.7517C5.38372 18.7479 4.83578 18.7142 4.33179 18.6632Z" fill="white"/>
<path d="M17.0531 18.2513C16.1489 18.2513 14.4431 18.2482 12.813 18.2447C10.7275 18.2402 8.76593 18.2351 8.76593 18.2351C8.93748 16.6031 9.4343 12.4107 9.4343 12.4107L10.8069 11.0844C11.0342 10.827 11.3197 10.6279 11.6088 10.4427C11.779 10.3458 11.9587 10.2667 12.1452 10.2068L12.6386 10.4949C13.4017 10.8559 13.9226 10.9701 14.7496 10.9519C15.7282 10.9302 16.0588 10.7715 16.3946 10.5863L16.9159 10.319C17.3407 10.4743 17.7495 10.6705 18.1365 10.9047C18.488 11.1292 18.7648 11.4531 18.9318 11.8353C19.0612 12.1371 19.1662 12.4488 19.2456 12.7675C19.4338 13.4454 19.6361 14.1217 19.752 14.8169C19.8553 15.4359 19.9667 16.2266 19.69 16.8143C19.5141 17.1881 19.2031 17.4762 18.8898 17.7352C18.8895 17.7352 17.8601 17.9675 17.0531 18.2513Z" fill="white"/>
<path d="M16.8533 14.316C16.884 14.2895 16.9199 14.2698 16.9588 14.2584C16.9977 14.247 17.0386 14.2442 17.0788 14.25C17.1181 14.2556 17.1557 14.2699 17.1888 14.2919C17.2219 14.314 17.2497 14.3431 17.27 14.3772C17.2936 14.4243 17.3071 14.4759 17.3095 14.5285C17.3266 14.7344 17.2869 14.941 17.1946 15.1259C17.151 15.2193 17.0878 15.3022 17.0093 15.369C16.977 15.4003 16.9357 15.4209 16.8912 15.4279C16.8467 15.4349 16.8011 15.4279 16.7607 15.408C16.7443 15.4697 16.7247 15.5305 16.7022 15.5902C16.6381 15.7526 16.2795 16.3285 15.8281 16.5393C15.8307 16.5599 15.8346 16.5831 15.8391 16.6095C15.863 16.7484 15.9018 16.9055 16.0866 17.0076C16.0989 17.0115 16.3402 17.1259 16.3586 17.1342L16.4302 17.1663L16.4139 17.1867C16.2116 17.4399 15.7364 17.6559 15.2539 17.6851C14.9622 17.7039 14.6692 17.684 14.3828 17.6258C14.0973 17.5664 13.8173 17.4427 13.6186 17.2293L13.5728 17.1801L13.6823 17.1342C13.7023 17.1258 13.9421 17.0115 13.9557 17.0076C14.1392 16.9055 14.1785 16.7483 14.2024 16.6095C14.2044 16.6011 14.2057 16.5934 14.207 16.5856C13.9642 16.4776 13.7483 16.3171 13.575 16.1156C13.3907 15.9089 13.2506 15.6665 13.1636 15.4036C13.0352 15.4704 12.9582 15.4416 12.8818 15.3805C12.8033 15.3138 12.7401 15.2308 12.6966 15.1374C12.6042 14.9526 12.5645 14.7459 12.5817 14.54C12.584 14.4874 12.5975 14.4359 12.6211 14.3888C12.6415 14.3547 12.6692 14.3255 12.7023 14.3035C12.7354 14.2815 12.773 14.2672 12.8123 14.2616C12.8524 14.2557 12.8933 14.2586 12.9322 14.27C12.9711 14.2814 13.0071 14.301 13.0377 14.3276C13.0377 14.3276 12.571 12.6292 14.7362 12.6292C16.9014 12.6292 16.8533 14.316 16.8533 14.316Z" fill="white"/>
<path d="M12.1629 18.1462C12.0228 18.3665 11.9353 18.5878 11.8297 18.8936H18.2868C18.121 18.5064 17.8973 18.1467 17.6234 17.8267C17.3905 17.5505 16.9289 17.3052 16.4533 17.1309C16.2805 17.4075 15.7714 17.6538 15.2537 17.6851C14.962 17.7039 14.6691 17.684 14.3827 17.6258C14.0745 17.5617 13.7727 17.4226 13.5727 17.1766C13.1388 17.3472 12.6076 17.5902 12.4035 17.8267C12.3155 17.9271 12.2351 18.0339 12.1629 18.1462Z" fill="#FEBE69"/>
<path d="M16.5026 3.3847C16.3475 3.24237 16.1828 3.11082 16.0097 2.99094C15.887 2.91472 15.7584 2.84828 15.6252 2.79223C15.278 2.64382 14.9019 2.5757 14.5247 2.59296C13.2646 2.5188 12.0584 3.46218 11.8105 4.65607C11.7431 4.9782 11.7691 5.47655 11.8055 5.73809C11.8233 5.88489 11.8612 6.02854 11.9182 6.16499L11.9434 6.21785C11.9554 6.21649 11.9682 6.21559 11.9815 6.21514C12.0706 6.21176 12.1578 6.24151 12.2263 6.29866C12.4503 6.03503 12.7086 5.91894 13.1283 5.74581C13.1708 5.73022 13.2124 5.712 13.2527 5.69126C13.2885 5.69126 13.3138 5.69126 13.3138 5.69126C13.3082 5.71508 13.3102 5.74004 13.3194 5.76269C13.3286 5.78535 13.3446 5.80459 13.3652 5.81778C13.4217 5.83744 13.4815 5.84555 13.5412 5.84162C13.7528 5.85073 13.9627 5.80132 14.148 5.69881H14.4836C14.4692 5.74621 14.4836 5.80206 14.5674 5.81378C14.7963 5.8349 15.0254 5.7764 15.2161 5.64815C15.3603 5.53542 15.4811 5.39568 15.5718 5.23676C15.6686 5.06765 15.7352 4.88297 15.7686 4.69101H15.981C16.0209 5.01353 16.1509 5.31746 16.29 5.61118C16.3736 5.7878 16.4764 5.97704 16.6583 6.04822L16.8105 6.32853C16.8453 6.29661 16.8861 6.27191 16.9305 6.25585C16.9749 6.23979 17.022 6.2327 17.0692 6.23498C17.1171 6.23611 17.1645 6.24578 17.2091 6.26355C17.3919 5.80392 17.2982 5.05479 17.2219 4.67709C17.1831 4.48452 17.1202 4.29759 17.0347 4.1207C16.9076 3.8427 16.7267 3.59257 16.5026 3.3847Z" fill="#FEBE69"/>
<path d="M15.8137 12.004C15.8607 11.6738 16.1299 11.5321 16.4275 11.4898C16.7399 11.4456 16.9596 11.5273 17.2094 11.7504C17.3 11.8323 17.3717 11.933 17.4193 12.0455C17.4843 12.2064 17.5344 12.3728 17.5691 12.5428C17.6194 12.7703 17.671 12.9154 17.8261 13.0748C17.5493 13.1611 17.3085 13.178 17.0822 13.0833" fill="#85807F"/>
<path d="M13.1825 14.393C13.1646 14.4002 13.1574 14.37 13.1622 14.3513C13.2149 14.1356 13.3115 13.9332 13.4461 13.7566C13.5358 13.6365 13.6489 13.5359 13.7787 13.4609C13.9084 13.386 14.0521 13.3382 14.2009 13.3205C14.3158 13.4815 14.4652 13.6148 14.6381 13.7108C14.6731 13.7333 14.7124 13.7482 14.7535 13.7545C14.7535 13.7545 15.4933 13.7545 16.0398 13.7545C16.0948 13.7702 16.1486 13.7899 16.2007 13.8135C16.323 13.8713 16.4298 13.9573 16.5125 14.0644C16.5951 14.1714 16.6513 14.2965 16.6764 14.4294L16.6837 14.4693L16.8533 14.3162C16.8814 14.2916 16.9142 14.273 16.9496 14.2615C16.9851 14.2499 17.0225 14.2456 17.0597 14.2488C17.0945 14.0498 17.1076 13.8476 17.0987 13.6458C17.0868 13.2919 16.9842 12.9469 16.8008 12.6439C16.7228 12.5184 16.6308 12.4021 16.5268 12.2972C16.4851 12.2551 16.4217 12.1935 16.3785 12.1559C16.2655 12.0658 16.1448 11.9858 16.0178 11.9168C15.9169 11.8613 15.8115 11.814 15.7029 11.7756C15.4628 11.6928 15.2103 11.6514 14.9563 11.6531C14.5041 11.6455 14.0611 11.7818 13.6915 12.0424C13.4302 12.2226 13.2148 12.4615 13.0625 12.7399C12.9101 13.0184 12.8251 13.3286 12.8142 13.6458C12.8111 13.8515 12.8288 14.057 12.867 14.2591C12.9298 14.2622 12.9897 14.2863 13.037 14.3277" fill="#85807F"/>
<path d="M3.96179 8.87033C4.6234 9.45468 5.48541 9.76142 6.36855 9.6464C6.61944 9.61391 6.86585 9.55317 7.10309 9.46533C7.13715 9.45497 7.16594 9.43193 7.18352 9.40097C7.20109 9.37 7.20611 9.33347 7.19754 9.29892C7.18775 9.26449 7.16482 9.2353 7.1337 9.21763C7.10258 9.19996 7.06576 9.19523 7.03118 9.20446C6.27906 9.48297 5.45272 9.46837 4.73808 9.08724C4.52783 8.97448 4.3315 8.83749 4.15311 8.67906C4.02305 8.56421 3.83104 8.7548 3.96179 8.87033Z" fill="#211715"/>
<path d="M3.35514 3.11627C3.55277 2.50244 3.94991 1.97228 4.48343 1.61006C4.99209 1.26089 5.60111 1.08789 6.21737 1.11752C6.788 1.12815 7.34218 1.31052 7.80761 1.64083L8.17273 1.94025C8.62499 2.37599 9.02466 3.0456 9.03441 4.01469C9.03564 4.3352 8.98664 4.65392 8.88918 4.95926C8.85459 4.94883 8.8189 4.94246 8.78284 4.94027C8.73324 4.93649 8.68339 4.94257 8.63616 4.95816C8.58892 4.97375 8.54525 4.99855 8.50765 5.03111L8.13571 4.71643C8.02243 4.4023 7.75514 4.0507 7.47291 3.79163C7.34656 3.67087 7.20063 3.57241 7.04134 3.50045L6.56509 3.42634C6.23822 3.5519 5.77425 3.82263 5.51445 3.95608C5.49975 3.96268 5.48352 3.96509 5.46753 3.96303C5.45155 3.96098 5.43645 3.95455 5.4239 3.94444C5.41135 3.93434 5.40183 3.92096 5.39641 3.90579C5.39099 3.89062 5.38987 3.87424 5.39318 3.85847C5.40162 3.80256 5.39971 3.74558 5.38754 3.69036C5.37283 3.61975 5.31991 3.5883 5.27731 3.60893C4.9137 3.78493 4.38864 4.25341 4.08968 4.56579L3.69463 4.87642C3.65919 4.84151 3.61719 4.81398 3.57105 4.79539C3.52491 4.77681 3.47555 4.76756 3.42581 4.76816C3.38602 4.76793 3.34636 4.77292 3.30786 4.78298C3.23061 4.47086 3.20118 4.14882 3.22056 3.82787C3.23762 3.58625 3.28278 3.34744 3.35514 3.11627Z" fill="#194F82"/>
<path d="M3.79005 4.78083C3.71092 4.7064 3.61129 4.6574 3.50403 4.64018C3.39677 4.62295 3.2868 4.63827 3.18834 4.68418C3.12052 4.71957 3.06116 4.76924 3.01436 4.82976C2.96755 4.89028 2.93441 4.96022 2.91722 5.03477C2.81775 5.38056 2.89592 5.78091 3.08223 6.08467C3.21106 6.29476 3.42228 6.48338 3.68523 6.45712C3.7208 6.45615 3.75464 6.44159 3.7798 6.41643C3.80495 6.39127 3.81951 6.35743 3.82048 6.32186C3.82023 6.28607 3.8059 6.25181 3.78059 6.2265C3.75528 6.20119 3.72102 6.18686 3.68523 6.18661C3.47993 6.20713 3.34783 6.02414 3.26679 5.85902C3.19836 5.72291 3.15785 5.57449 3.14766 5.42249C3.14022 5.27597 3.14766 5.09822 3.23963 4.97616C3.22041 5.00168 3.25366 4.96274 3.25806 4.95857C3.27575 4.94167 3.25118 4.96049 3.27496 4.94448C3.30423 4.92469 3.3376 4.9118 3.37257 4.90678C3.41273 4.89921 3.4541 4.90119 3.49335 4.91254C3.5326 4.9239 3.56864 4.94432 3.59855 4.97215C3.72434 5.09247 3.91589 4.90148 3.78982 4.78055L3.79005 4.78083Z" fill="#211715"/>
<path d="M8.60334 5.1268C8.63592 5.10203 8.67388 5.08529 8.71415 5.07796C8.75442 5.07062 8.79585 5.0729 8.83507 5.08459C8.88217 5.09372 8.92422 5.11996 8.95313 5.15825C9.03896 5.28392 9.03631 5.46747 9.01873 5.61281C8.99727 5.76602 8.94554 5.91343 8.86657 6.04646C8.78767 6.18363 8.64154 6.37372 8.45991 6.34374C8.42536 6.33526 8.38887 6.34033 8.35793 6.35789C8.32699 6.37545 8.30394 6.40418 8.29349 6.43819C8.28426 6.47278 8.289 6.50961 8.30668 6.54075C8.32436 6.57188 8.35356 6.59481 8.388 6.60461C8.83191 6.67787 9.10208 6.25182 9.23119 5.88929C9.33872 5.58728 9.35517 5.10651 9.06551 4.89698C8.96731 4.83107 8.85021 4.79915 8.73215 4.80611C8.61409 4.81308 8.50156 4.85853 8.41178 4.93553C8.38669 4.96104 8.37263 4.99539 8.37263 5.03116C8.37263 5.06694 8.38669 5.10129 8.41178 5.1268C8.4375 5.15148 8.47177 5.16526 8.50742 5.16526C8.54307 5.16526 8.57733 5.15148 8.60305 5.1268H8.60334Z" fill="#211715"/>
<path d="M3.53941 6.16678C3.60929 6.53052 3.74536 6.87834 3.94083 7.19295C4.14935 7.52624 4.4274 7.83918 4.76779 8.04161C4.94171 8.14498 5.13269 8.21647 5.33174 8.25272C5.3663 8.26125 5.40281 8.25621 5.43376 8.23863C5.46471 8.22105 5.48774 8.19226 5.4981 8.15821C5.50732 8.12363 5.50258 8.08682 5.48491 8.0557C5.46725 8.02458 5.43806 8.00165 5.40365 7.99185C4.9678 7.91295 4.62933 7.64808 4.3551 7.31057C4.0733 6.95694 3.88277 6.53946 3.80028 6.09487C3.79043 6.06048 3.76748 6.03132 3.73636 6.01366C3.70525 5.996 3.66845 5.99124 3.63387 6.00042C3.59969 6.01058 3.57076 6.03358 3.55316 6.06459C3.53555 6.0956 3.53063 6.13222 3.53941 6.16678Z" fill="#211715"/>
<path d="M7.87586 1.52436C7.45314 1.23485 6.96561 1.05395 6.45636 0.997647C5.94711 0.941346 5.43184 1.01138 4.95609 1.20156C4.56791 1.36361 4.2173 1.60392 3.92611 1.90748C3.63492 2.21104 3.4094 2.57135 3.26363 2.96593C3.05962 3.54751 3.02614 4.1753 3.16715 4.77527C3.20485 4.94513 3.46583 4.87322 3.42801 4.70336C3.23026 3.81295 3.42863 2.85931 4.04601 2.17386C4.50578 1.6673 5.13437 1.34562 5.81417 1.26901C6.49396 1.19239 7.17838 1.3661 7.73937 1.75761C7.77042 1.7754 7.80721 1.78028 7.84183 1.77121C7.87644 1.76213 7.90611 1.73983 7.92444 1.70909C7.94183 1.67796 7.94649 1.64131 7.93744 1.60681C7.9284 1.57232 7.90635 1.54267 7.87592 1.52408L7.87586 1.52436Z" fill="#211715"/>
<path d="M9.03101 4.95528C9.10221 4.71299 9.14721 4.46377 9.16525 4.21189C9.17809 3.96184 9.16363 3.71114 9.12214 3.46423C9.05845 3.05868 8.90734 2.67183 8.6793 2.33047C8.56616 2.16389 8.43622 2.00936 8.29152 1.86931C8.16641 1.74809 7.97492 1.93914 8.10025 2.06058C8.34188 2.29275 8.53614 2.56962 8.67226 2.87582C8.83526 3.26358 8.91256 3.68199 8.89886 4.10239C8.88936 4.36704 8.8461 4.62939 8.77015 4.88309C8.72331 5.05108 8.9843 5.12271 9.03101 4.95505V4.95528Z" fill="#211715"/>
<path d="M5.65659 6.98524C5.80001 7.06455 5.96081 7.10714 6.12468 7.10922C6.2805 7.11424 6.46355 7.09372 6.59373 6.99882C6.62407 6.98015 6.64605 6.9505 6.65509 6.91604C6.66413 6.88158 6.65953 6.84496 6.64225 6.81381C6.62389 6.78312 6.59423 6.76085 6.55965 6.75178C6.52506 6.74271 6.48829 6.74756 6.45723 6.76528C6.44119 6.77688 6.42422 6.78715 6.40651 6.796C6.40144 6.79853 6.39615 6.80056 6.39119 6.80327C6.37738 6.81088 6.42184 6.792 6.39964 6.79972C6.3851 6.80496 6.37067 6.81026 6.35585 6.81459C6.33879 6.81959 6.32155 6.82387 6.30412 6.82744C6.29533 6.82925 6.28659 6.83088 6.27774 6.83235C6.26456 6.83454 6.2552 6.835 6.27391 6.83314C6.22427 6.83828 6.17434 6.84016 6.12446 6.83877C6.10028 6.83798 6.07605 6.83652 6.05198 6.83426C6.05012 6.83426 6.0069 6.82863 6.03587 6.83291C6.02583 6.83145 6.01584 6.82981 6.00588 6.82801C5.96996 6.82168 5.93452 6.81287 5.89982 6.80163C5.885 6.79679 5.87058 6.79098 5.85598 6.78563C5.83992 6.77971 5.88444 6.79927 5.86409 6.78884C5.85806 6.78574 5.8517 6.7832 5.84555 6.78011C5.82763 6.77126 5.81022 6.76156 5.79292 6.75165C5.77758 6.74268 5.76063 6.73682 5.74302 6.73441C5.72542 6.73199 5.70752 6.73307 5.69033 6.73758C5.67315 6.74208 5.65702 6.74993 5.64286 6.76067C5.62871 6.77141 5.61681 6.78483 5.60785 6.80017C5.59888 6.81551 5.59302 6.83246 5.59061 6.85006C5.5882 6.86766 5.58927 6.88557 5.59378 6.90275C5.59828 6.91994 5.60613 6.93607 5.61687 6.95022C5.62761 6.96437 5.64103 6.97627 5.65637 6.98524H5.65659Z" fill="#211715"/>
<path d="M6.0942 5.87976C6.11032 5.95054 6.12531 6.02211 6.13517 6.09391L6.13033 6.05795C6.13275 6.07593 6.13501 6.09385 6.13765 6.11177L6.13281 6.07582C6.13495 6.08945 6.13523 6.1033 6.13365 6.11701L6.1385 6.08106C6.13761 6.08606 6.13623 6.09097 6.13438 6.09571L6.14802 6.06342C6.14645 6.06671 6.14456 6.06984 6.14239 6.07277L6.16352 6.04538C6.16204 6.04731 6.16036 6.04906 6.1585 6.05063L6.18584 6.02944C6.17895 6.03422 6.17149 6.03814 6.16363 6.0411L6.19598 6.02746C6.18687 6.03097 6.17743 6.03355 6.1678 6.03518L6.20376 6.03034C6.19356 6.03163 6.18324 6.03163 6.17304 6.03034L6.209 6.03518C6.1966 6.03332 6.18454 6.02983 6.17214 6.02774C6.13692 6.01925 6.09979 6.02411 6.06794 6.04138C6.0526 6.05035 6.03918 6.06224 6.02843 6.0764C6.01769 6.09055 6.00984 6.10668 6.00534 6.12387C6.00083 6.14105 5.99976 6.15896 6.00217 6.17656C6.00459 6.19416 6.01045 6.21112 6.01942 6.22645C6.0281 6.24164 6.03971 6.25494 6.05359 6.26559C6.06746 6.27623 6.08332 6.284 6.10023 6.28844C6.12717 6.29301 6.15242 6.29938 6.18015 6.30146C6.22361 6.30269 6.26665 6.29265 6.30509 6.27233C6.3282 6.26111 6.34854 6.24493 6.36465 6.22492C6.38077 6.20492 6.39226 6.1816 6.3983 6.15663C6.40656 6.11536 6.4061 6.07282 6.39694 6.03175L6.40179 6.0677C6.39054 5.98024 6.37482 5.89342 6.35468 5.80756C6.34489 5.77314 6.32196 5.74395 6.29084 5.72628C6.25971 5.70861 6.22289 5.70388 6.18832 5.71311C6.15415 5.7233 6.12525 5.7463 6.10765 5.77731C6.09005 5.80831 6.08511 5.84492 6.09387 5.87947L6.0942 5.87976Z" fill="#211715"/>
<path d="M4.86546 5.15627C4.82144 5.28454 4.83784 5.58328 5.08237 5.61653C5.40675 5.62498 5.43555 5.26538 5.33185 5.09242C5.2467 4.95086 4.986 4.88487 4.86546 5.15627Z" fill="#211715"/>
<path d="M7.46228 5.2398C7.49795 5.3706 7.46228 5.66771 7.21629 5.68501C6.89202 5.67261 6.88633 5.31188 7.00095 5.14603C7.09479 5.01038 7.35943 4.96118 7.46228 5.2398Z" fill="#211715"/>
<path d="M6.97307 3.61734C7.20383 3.73263 7.40912 3.89302 7.57681 4.08904C7.75991 4.28137 7.9052 4.50642 8.00511 4.75245C8.01545 4.78652 8.03849 4.81532 8.06946 4.8329C8.10043 4.85048 8.13697 4.85549 8.17152 4.8469C8.20596 4.83712 8.23516 4.8142 8.25283 4.78307C8.2705 4.75195 8.27522 4.71512 8.26598 4.68054C8.15392 4.3971 7.98989 4.13708 7.78233 3.91388C7.59595 3.69391 7.36716 3.51375 7.10962 3.38414C7.07843 3.36699 7.04184 3.36246 7.00741 3.37149C6.97297 3.38052 6.94331 3.40241 6.92455 3.43267C6.90676 3.46372 6.90188 3.50051 6.91096 3.53513C6.92003 3.56974 6.94234 3.59941 6.97307 3.61774V3.61734Z" fill="#211715"/>
<path d="M4.18513 4.66139C4.47812 4.34444 4.80815 4.06386 5.16813 3.8257C5.20662 3.80135 5.24579 3.77797 5.28586 3.75627C5.29618 3.75155 5.30623 3.74624 5.31595 3.74038C5.33466 3.72713 5.32931 3.74314 5.31713 3.73542C5.3115 3.73187 5.22657 3.76686 5.25819 3.72094C5.25351 3.72775 5.26089 3.74348 5.26157 3.75114C5.2658 3.79978 5.25486 3.84779 5.2592 3.89597C5.26195 3.92803 5.27161 3.95911 5.28752 3.98708C5.30342 4.01505 5.3252 4.03924 5.35134 4.058C5.46112 4.13639 5.56549 4.08291 5.66952 4.02745C5.75941 3.97955 5.84873 3.93063 5.9384 3.88228C6.15235 3.76023 6.37365 3.65152 6.60102 3.55677C6.63503 3.54633 6.66376 3.52328 6.68132 3.49233C6.69888 3.46139 6.70395 3.42491 6.69547 3.39035C6.6857 3.35591 6.66276 3.3267 6.63162 3.30902C6.60048 3.29135 6.56364 3.28664 6.52906 3.2959C6.31615 3.38233 6.10853 3.48125 5.90729 3.59216C5.80912 3.6444 5.71157 3.69772 5.61368 3.75052C5.57423 3.77177 5.53478 3.79296 5.49533 3.81375C5.46405 3.83021 5.44653 3.82564 5.48862 3.839C5.53072 3.85236 5.52852 3.87479 5.53219 3.8213C5.54053 3.70087 5.51325 3.55424 5.39829 3.49151C5.28963 3.43223 5.18087 3.50278 5.08737 3.5579C4.89343 3.67736 4.7096 3.81252 4.53774 3.96202C4.34754 4.12164 4.16595 4.29125 3.99374 4.47012C3.87314 4.59574 4.06419 4.78729 4.18535 4.66139H4.18513Z" fill="#211715"/>
<path d="M4.09334 8.90506C4.21428 8.85892 4.33514 8.81264 4.45593 8.7662C4.53192 8.74098 4.60626 8.71105 4.67853 8.67659C4.93286 8.54004 4.97451 8.21448 5.00613 7.95727C5.00613 7.9214 4.99188 7.887 4.96651 7.86164C4.94115 7.83627 4.90675 7.82202 4.87087 7.82202C4.83533 7.82306 4.80153 7.83764 4.77638 7.86278C4.75124 7.88793 4.73666 7.92173 4.73562 7.95727C4.73348 7.97448 4.7331 7.97775 4.73449 7.96708C4.73307 7.97711 4.73156 7.98714 4.72999 7.99717C4.72768 8.01211 4.72514 8.0271 4.72249 8.04226C4.71624 8.07754 4.70919 8.11265 4.70164 8.1477C4.69167 8.19886 4.67831 8.2493 4.66163 8.29868C4.65926 8.30538 4.65672 8.31203 4.65413 8.31862C4.66101 8.30273 4.66134 8.30172 4.65515 8.31558C4.65036 8.32499 4.64596 8.33452 4.64089 8.34376C4.63497 8.35452 4.62815 8.36467 4.62178 8.37515C4.60443 8.40378 4.63215 8.36709 4.61423 8.38541C4.60674 8.39307 4.59986 8.40119 4.59208 8.40857C4.58684 8.41358 4.58143 8.41843 4.57591 8.42305C4.58898 8.41347 4.58921 8.41313 4.57676 8.42215C4.56689 8.42829 4.55743 8.43477 4.54728 8.44046C4.53762 8.44463 4.52821 8.44935 4.5191 8.45461C4.53038 8.45038 4.51386 8.45608 4.51127 8.45703C4.49944 8.4612 4.48771 8.46588 4.47599 8.47039C4.43669 8.48542 4.39743 8.50045 4.35821 8.51547C4.24602 8.55853 4.13377 8.60153 4.02143 8.64447C3.9873 8.65471 3.95843 8.67772 3.94084 8.70871C3.92324 8.7397 3.91828 8.77628 3.92698 8.81083C3.93686 8.8452 3.9598 8.87433 3.9909 8.89198C4.02199 8.90964 4.05877 8.91441 4.09334 8.90528V8.90506Z" fill="#211715"/>
<path d="M3.97259 8.63522C3.41264 8.84063 2.84497 9.03867 2.31574 9.31712C1.84585 9.56435 1.40042 9.88851 1.13515 10.3591C0.879977 10.8118 0.750698 11.3308 0.647399 11.8361C0.537111 12.3755 0.434826 12.9168 0.334345 13.4581C0.22789 14.031 0.113545 14.6077 0.0427059 15.1863C-0.0177634 15.6804 -0.0228353 16.204 0.0827182 16.6923C0.190413 17.1909 0.518119 17.6527 0.920102 17.9599C1.24753 18.2102 1.63897 18.315 2.03194 18.4116C3.10995 18.6721 4.211 18.8259 5.31914 18.8706C5.49099 18.8782 5.66291 18.8831 5.83491 18.8856C6.00904 18.8881 6.0091 18.6176 5.83491 18.6151C4.68514 18.6006 3.53981 18.4694 2.41651 18.2237C2.23944 18.1846 2.06299 18.1423 1.88784 18.0954C1.73802 18.0594 1.59081 18.0134 1.44719 17.9577C0.992181 17.7661 0.618263 17.3506 0.428289 16.9038C0.347643 16.6909 0.300901 16.4666 0.289768 16.2392C0.270909 15.9907 0.269572 15.7413 0.285766 15.4926C0.30357 15.2525 0.334309 15.0134 0.377851 14.7765C0.425377 14.4867 0.474876 14.1971 0.526347 13.9078C0.627787 13.339 0.73999 12.7721 0.849996 12.2049C0.939037 11.7455 1.03259 11.2844 1.20334 10.8471C1.28416 10.6251 1.40024 10.4177 1.54711 10.2328C1.70923 10.0445 1.89879 9.88175 2.10942 9.74998C2.58106 9.44522 3.1108 9.24087 3.63491 9.04644C3.77123 8.99572 3.90789 8.94613 4.04444 8.89609C4.07851 8.88574 4.10731 8.86271 4.12489 8.83174C4.14247 8.80077 4.14748 8.76423 4.13889 8.72967C4.12909 8.69526 4.10616 8.66607 4.07504 8.6484C4.04392 8.63074 4.00716 8.626 3.97259 8.63522Z" fill="#211715"/>
<path d="M2.97626 12.8096C2.89172 13.4847 2.77078 14.1867 2.65712 14.8698C2.62657 15.0535 2.59584 15.2372 2.56492 15.4209C2.55645 15.4555 2.56152 15.492 2.57909 15.5229C2.59666 15.5538 2.62541 15.5769 2.65943 15.5873C2.694 15.5966 2.73082 15.5918 2.76195 15.5742C2.79307 15.5565 2.816 15.5273 2.82579 15.4929C2.94571 14.7781 3.06654 14.0633 3.17254 13.3463C3.19897 13.1676 3.22428 12.9888 3.24676 12.8096C3.24657 12.7738 3.23226 12.7395 3.20693 12.7141C3.18161 12.6888 3.14732 12.6745 3.11151 12.6743C3.07591 12.6752 3.042 12.6897 3.01682 12.7149C2.99164 12.7401 2.97711 12.774 2.97626 12.8096Z" fill="#211715"/>
<path d="M14.0719 16.585C14.0719 16.5875 14.079 16.5451 14.0747 16.5614C14.0734 16.5664 14.0727 16.5717 14.0716 16.5768C14.0705 16.5831 14.0694 16.5895 14.0683 16.5958C14.0655 16.6109 14.0624 16.6259 14.0591 16.6409C14.0526 16.6707 14.0441 16.7001 14.0338 16.7288C14.0319 16.7341 14.0207 16.7617 14.0304 16.7384C14.0396 16.7161 14.0295 16.7395 14.027 16.7446C14.0197 16.7596 14.0116 16.7742 14.0027 16.7883C13.998 16.7956 13.993 16.8025 13.9882 16.8096C13.9752 16.8289 14.0066 16.7882 13.9909 16.806C13.9789 16.8198 13.9662 16.8329 13.9528 16.8454C13.9457 16.852 13.9382 16.858 13.9308 16.8643C13.9199 16.8737 13.9414 16.8561 13.9412 16.8562C13.9374 16.8584 13.9338 16.8609 13.9305 16.8638C13.9219 16.8698 13.9122 16.8747 13.9038 16.8807C13.8855 16.8947 13.9173 16.8773 13.9177 16.8773C13.8954 16.8834 13.8741 16.8926 13.8544 16.9047C13.8109 16.9246 13.7677 16.945 13.7244 16.9654C13.6878 16.9826 13.6515 17.0009 13.6143 17.0168C13.5838 17.0346 13.5616 17.0636 13.5523 17.0976C13.5429 17.1328 13.5478 17.1703 13.5659 17.2019C13.5839 17.2322 13.6128 17.2544 13.6467 17.2639C13.682 17.2713 13.7187 17.2665 13.7509 17.2502C13.8308 17.216 13.9084 17.176 13.9876 17.1398L14.0102 17.1296C14.0345 17.1184 13.9758 17.1453 13.992 17.1373C14.0182 17.1258 14.0435 17.1123 14.0676 17.0969C14.0923 17.08 14.1161 17.0615 14.1386 17.0417C14.2041 16.981 14.2547 16.906 14.2864 16.8225C14.3 16.7888 14.3109 16.754 14.319 16.7186C14.3318 16.6748 14.3398 16.6297 14.343 16.5842C14.343 16.5484 14.3287 16.514 14.3034 16.4886C14.278 16.4632 14.2436 16.449 14.2077 16.449C14.1719 16.449 14.1375 16.4632 14.1121 16.4886C14.0867 16.514 14.0725 16.5484 14.0725 16.5842L14.0719 16.585Z" fill="#211715"/>
<path d="M15.6927 16.5392C15.7153 16.7097 15.7499 16.8768 15.869 17.0084C15.9022 17.0438 15.9395 17.075 15.9803 17.1013C16.0022 17.1167 16.026 17.1292 16.0512 17.1383C16.0604 17.1414 16.0101 17.1202 16.0255 17.1274C16.0288 17.129 16.0322 17.1304 16.0356 17.1319C16.0802 17.1521 16.1244 17.1731 16.1687 17.1939C16.2092 17.213 16.2495 17.2325 16.2902 17.251C16.3214 17.2682 16.358 17.2728 16.3925 17.2638C16.4269 17.2547 16.4566 17.2328 16.4753 17.2025C16.493 17.1714 16.4978 17.1347 16.4887 17.1001C16.4797 17.0655 16.4574 17.0358 16.4268 17.0174C16.3492 16.9823 16.2728 16.9447 16.1957 16.9091C16.1834 16.9034 16.1711 16.8978 16.1586 16.8921C16.1462 16.8865 16.1354 16.8813 16.1234 16.8773C16.1248 16.8778 16.1538 16.8936 16.1418 16.8829C16.1378 16.8801 16.1335 16.8775 16.1292 16.8752C16.121 16.8702 16.1132 16.8647 16.1053 16.8593C16.1023 16.8573 16.0895 16.8474 16.1042 16.8589C16.1189 16.8704 16.1034 16.8579 16.1004 16.8553C16.0863 16.8434 16.073 16.8305 16.0606 16.8167C16.0549 16.8108 16.0505 16.8036 16.0447 16.7981C16.0443 16.7978 16.061 16.8216 16.0538 16.8094C16.0511 16.805 16.0476 16.8008 16.0447 16.7965C16.0355 16.7827 16.0271 16.7683 16.0194 16.7536C16.0159 16.7469 16.0129 16.74 16.0096 16.7333C16 16.7138 16.0203 16.7623 16.0104 16.7348C15.9985 16.702 15.9889 16.6685 15.9814 16.6344C15.978 16.6185 15.9749 16.6025 15.972 16.5865C15.9699 16.5747 15.9679 16.5629 15.966 16.5511C15.9644 16.5416 15.9582 16.4986 15.9635 16.5386C15.9623 16.5029 15.9482 16.4689 15.924 16.4428C15.8985 16.4176 15.8641 16.4034 15.8282 16.4033C15.7629 16.4063 15.6831 16.4634 15.693 16.5386L15.6927 16.5392Z" fill="#211715"/>
<path d="M15.9785 11.9074C16.1206 11.6161 16.5696 11.5453 16.8461 11.6655C17.0183 11.7402 17.1631 11.8665 17.2606 12.0269C17.3614 12.2025 17.4008 12.4173 17.4459 12.6122C17.4873 12.8209 17.5857 13.0141 17.7303 13.1701L17.79 12.9441C17.5646 13.0131 17.3417 13.0427 17.1182 12.9525C17.0836 12.9432 17.0468 12.9479 17.0156 12.9656C16.9845 12.9832 16.9616 13.0125 16.9518 13.0469C16.9432 13.0815 16.9481 13.1181 16.9657 13.149C16.9833 13.18 17.0122 13.2031 17.0463 13.2133C17.3101 13.3198 17.5962 13.2863 17.8619 13.2049C17.8844 13.1983 17.9049 13.1859 17.9212 13.169C17.9376 13.1522 17.9493 13.1314 17.9553 13.1087C17.9613 13.086 17.9614 13.0621 17.9555 13.0393C17.9495 13.0166 17.9379 12.9958 17.9216 12.9788C17.7821 12.8331 17.734 12.6613 17.6908 12.4688C17.6407 12.2453 17.5781 11.9969 17.4413 11.8098C17.3088 11.6304 17.1296 11.4909 16.9233 11.4065C16.7231 11.3336 16.5056 11.323 16.2993 11.376C16.0699 11.427 15.8509 11.5535 15.7449 11.7708C15.7277 11.802 15.7232 11.8386 15.7322 11.873C15.7412 11.9075 15.7632 11.9372 15.7934 11.9559C15.8245 11.9737 15.8613 11.9786 15.8959 11.9695C15.9305 11.9604 15.9602 11.9381 15.9785 11.9074V11.9074Z" fill="#211715"/>
<path d="M16.949 14.4118C16.9643 14.3998 16.982 14.3912 17.0008 14.3864C17.0197 14.3816 17.0393 14.3808 17.0585 14.384C17.0777 14.3871 17.096 14.3943 17.1123 14.4049C17.1286 14.4155 17.1425 14.4293 17.1532 14.4456C17.1728 14.4946 17.1812 14.5474 17.1779 14.6001C17.1798 14.663 17.1753 14.726 17.1646 14.788C17.143 14.9131 17.0978 15.0329 17.0312 15.1409C17.0036 15.1869 16.9685 15.2281 16.9275 15.2627C16.9156 15.2766 16.8998 15.2865 16.8822 15.2913C16.8645 15.296 16.8459 15.2954 16.8286 15.2893C16.6603 15.2442 16.5884 15.5053 16.7567 15.5501C16.9657 15.6059 17.1295 15.472 17.2435 15.3094C17.3522 15.146 17.4196 14.9586 17.4397 14.7633C17.4619 14.5809 17.4607 14.3508 17.3134 14.2182C17.2363 14.1509 17.1374 14.1141 17.0351 14.1145C16.9328 14.1149 16.8342 14.1526 16.7577 14.2205C16.7326 14.246 16.7185 14.2803 16.7185 14.3161C16.7185 14.3519 16.7326 14.3863 16.7577 14.4118C16.7834 14.4364 16.8177 14.4502 16.8533 14.4502C16.889 14.4502 16.9233 14.4364 16.949 14.4118Z" fill="#211715"/>
<path d="M13.1327 14.2319C13.0562 14.1641 12.9576 14.1264 12.8553 14.126C12.753 14.1256 12.6541 14.1624 12.577 14.2296C12.4297 14.3621 12.4285 14.5925 12.4507 14.7747C12.4708 14.97 12.5382 15.1574 12.6469 15.3209C12.7609 15.4836 12.9245 15.6174 13.1337 15.5616C13.3017 15.5165 13.2304 15.2558 13.0618 15.3007C13.0445 15.3069 13.0258 15.3076 13.0082 15.3028C12.9905 15.2981 12.9747 15.288 12.9629 15.2741C12.9219 15.2394 12.8869 15.1983 12.8592 15.1524C12.7926 15.0443 12.7473 14.9245 12.7258 14.7995C12.7156 14.7408 12.7111 14.6813 12.7123 14.6217C12.708 14.5656 12.7166 14.5093 12.7372 14.457C12.7479 14.4407 12.7618 14.4269 12.7781 14.4163C12.7944 14.4057 12.8127 14.3986 12.8319 14.3954C12.8511 14.3922 12.8707 14.393 12.8896 14.3978C12.9084 14.4026 12.9261 14.4112 12.9414 14.4232C12.9673 14.4477 13.0015 14.4613 13.0371 14.4613C13.0727 14.4613 13.1069 14.4477 13.1327 14.4232C13.1578 14.3977 13.1719 14.3633 13.1719 14.3275C13.1719 14.2918 13.1578 14.2574 13.1327 14.2319Z" fill="#211715"/>
<path d="M16.6501 15.2706C16.6415 15.3275 16.6286 15.3837 16.6114 15.4386C16.5954 15.4762 16.5822 15.5148 16.572 15.5544C16.569 15.575 16.5877 15.5243 16.5755 15.5456C16.5704 15.5545 16.5667 15.5644 16.5622 15.5738C16.5524 15.5934 16.542 15.6127 16.5313 15.6319C16.4714 15.7381 16.4034 15.8394 16.3279 15.9351C16.1398 16.1707 15.9017 16.4081 15.6048 16.4731C15.4348 16.5102 15.5068 16.771 15.6768 16.7339C16.0215 16.6585 16.3057 16.3946 16.5192 16.1264C16.7038 15.8942 16.867 15.6417 16.9112 15.3427C16.9196 15.3081 16.9145 15.2717 16.8969 15.2408C16.8794 15.2099 16.8507 15.1868 16.8168 15.1763C16.7822 15.167 16.7453 15.1717 16.7142 15.1894C16.6831 15.2071 16.6601 15.2363 16.6504 15.2708L16.6501 15.2706Z" fill="#211715"/>
<path d="M12.9923 15.3015C13.086 15.6627 13.2703 15.994 13.5276 16.2642C13.7823 16.5312 14.111 16.7482 14.482 16.8009C14.5166 16.8092 14.553 16.8041 14.5839 16.7866C14.6148 16.769 14.6379 16.7404 14.6484 16.7064C14.6577 16.6718 14.653 16.635 14.6353 16.6038C14.6176 16.5727 14.5884 16.5498 14.5539 16.54C13.9018 16.4476 13.4105 15.8384 13.2528 15.2296C13.2092 15.0612 12.9482 15.1326 12.992 15.3015H12.9923Z" fill="#211715"/>
<path d="M17.1926 14.2701C17.2881 13.6846 17.2297 13.0641 16.9045 12.5547C16.5891 12.0692 16.1002 11.7225 15.5376 11.5854C14.9754 11.4476 14.3823 11.5153 13.8656 11.7764C13.4839 11.977 13.1674 12.2825 12.9533 12.6568C12.8127 12.9108 12.724 13.1902 12.6924 13.4788C12.668 13.743 12.6805 14.0093 12.7295 14.2701C12.7392 14.3045 12.7621 14.3337 12.7933 14.3514C12.8244 14.3691 12.8612 14.3738 12.8958 14.3646C12.9299 14.3543 12.9588 14.3313 12.9764 14.3003C12.994 14.2693 12.9989 14.2327 12.9903 14.1982C12.9561 13.9997 12.9433 13.7982 12.9522 13.597C12.9654 13.3703 13.0196 13.1479 13.1121 12.9405C13.2695 12.603 13.5178 12.316 13.829 12.1116C14.2496 11.8454 14.7509 11.7368 15.244 11.8051C15.757 11.8714 16.2255 12.1303 16.5546 12.5294C16.9357 12.9927 17.0261 13.6195 16.9317 14.198C16.9233 14.2326 16.9284 14.269 16.9459 14.3C16.9635 14.3309 16.9922 14.3539 17.0262 14.3644C17.0608 14.3736 17.0976 14.3689 17.1288 14.3512C17.1599 14.3336 17.1828 14.3044 17.1926 14.2699V14.2701Z" fill="#211715"/>
<path d="M18.3895 18.791C18.2192 18.3927 17.9844 18.0253 17.6946 17.7034C17.4063 17.3847 16.9808 17.192 16.5883 17.0381C16.5537 17.0288 16.5169 17.0335 16.4858 17.0512C16.4546 17.0689 16.4317 17.0981 16.422 17.1326C16.4133 17.1671 16.4182 17.2037 16.4358 17.2347C16.4534 17.2657 16.4823 17.2887 16.5164 17.299C16.871 17.438 17.2599 17.6164 17.5158 17.9086C17.7813 18.2126 17.9974 18.5565 18.1559 18.9278C18.1741 18.9586 18.2038 18.981 18.2384 18.9901C18.2731 18.9991 18.3099 18.9942 18.3409 18.9763C18.3712 18.9576 18.3931 18.9279 18.4021 18.8935C18.4112 18.859 18.4066 18.8224 18.3895 18.7912V18.791Z" fill="#211715"/>
<path d="M11.9601 18.9297C12.0934 18.5451 12.2581 18.1308 12.5693 17.8519C12.7263 17.7234 12.9 17.6168 13.0857 17.5351C13.2917 17.4341 13.5038 17.3464 13.718 17.2645C13.7521 17.2541 13.7808 17.2311 13.7984 17.2001C13.8159 17.1692 13.821 17.1327 13.8125 17.0981C13.8027 17.0637 13.7798 17.0345 13.7487 17.0168C13.7175 16.9991 13.6807 16.9944 13.6461 17.0037C13.2889 17.14 12.9252 17.2865 12.602 17.4932C12.3171 17.6867 12.0887 17.9524 11.9401 18.263C11.8461 18.4553 11.7655 18.654 11.6991 18.8575C11.6421 19.0224 11.9033 19.0932 11.96 18.9295L11.9601 18.9297Z" fill="#211715"/>
<path d="M14.6087 15.8166C14.7095 15.9152 14.8653 15.9471 15.0012 15.9469C15.1372 15.9468 15.293 15.9153 15.3938 15.8166C15.4188 15.7912 15.4328 15.7569 15.4327 15.7212C15.4325 15.6855 15.4183 15.6513 15.393 15.6261C15.3678 15.6009 15.3336 15.5866 15.298 15.5865C15.2623 15.5863 15.228 15.6003 15.2025 15.6253C15.1973 15.6304 15.1779 15.6459 15.2003 15.6286C15.2227 15.6113 15.1983 15.6293 15.1917 15.6334C15.1841 15.6381 15.1761 15.6425 15.1681 15.6465C15.1627 15.6492 15.1568 15.6513 15.1515 15.6542C15.1579 15.6507 15.1837 15.6419 15.1624 15.6493C15.1367 15.6584 15.1103 15.6656 15.0835 15.6709C15.0792 15.6717 15.0748 15.6724 15.0704 15.6732C15.0601 15.6748 15.0645 15.6742 15.0835 15.6716C15.0756 15.6737 15.0674 15.6745 15.0592 15.6741C15.04 15.6757 15.0206 15.6764 15.0013 15.6764C14.9835 15.6764 14.9659 15.6758 14.9482 15.6745C14.9385 15.673 14.9288 15.672 14.919 15.6716C14.9319 15.671 14.9438 15.6753 14.9232 15.6716C14.896 15.6668 14.8692 15.6598 14.8432 15.6504C14.8324 15.6465 14.815 15.6352 14.8509 15.6542C14.8464 15.6518 14.8416 15.6499 14.8371 15.6478C14.8281 15.6433 14.8193 15.6386 14.8108 15.6333C14.8043 15.6293 14.7983 15.6244 14.7918 15.6204C14.8312 15.6446 14.811 15.636 14.8001 15.6253C14.7746 15.6002 14.7403 15.5863 14.7046 15.5864C14.669 15.5866 14.6348 15.6008 14.6096 15.626C14.5843 15.6513 14.5701 15.6854 14.5699 15.7211C14.5698 15.7568 14.5838 15.7911 14.6088 15.8165L14.6087 15.8166Z" fill="#211715"/>
<path d="M14.982 15.0799C14.9784 15.082 14.9746 15.0839 14.9708 15.0855L15.0031 15.0719C14.9972 15.0743 14.991 15.076 14.9848 15.077L15.0207 15.0721C15.0146 15.0729 15.0085 15.0729 15.0025 15.0721L15.0384 15.077C15.0349 15.0765 15.0314 15.0758 15.0278 15.075C15.013 15.0721 14.9978 15.0705 14.9827 15.0687C14.9472 15.0696 14.9133 15.0842 14.8881 15.1094C14.863 15.1345 14.8484 15.1684 14.8475 15.2039L14.8523 15.2399C14.8585 15.2625 14.8705 15.283 14.8871 15.2996L14.9145 15.3207C14.9352 15.3328 14.9587 15.3392 14.9827 15.3392H14.9833L14.9474 15.3344C14.9519 15.335 14.9563 15.336 14.9607 15.3368C14.9748 15.3394 14.9892 15.341 15.0034 15.3425C15.0061 15.3428 15.0087 15.343 15.0114 15.3431C15.0142 15.3431 15.0169 15.343 15.0197 15.3427C15.0319 15.3414 15.0453 15.3395 15.0575 15.3376L15.0597 15.3373C15.0612 15.3373 15.0628 15.3367 15.0643 15.3363C15.0679 15.3353 15.0714 15.3341 15.0749 15.3327C15.0897 15.3273 15.1042 15.3209 15.1183 15.3136C15.1415 15.3005 15.1602 15.2805 15.1718 15.2564C15.1833 15.2323 15.1872 15.2052 15.1828 15.1788C15.1821 15.1609 15.1765 15.1435 15.1668 15.1285L15.1456 15.1011C15.1291 15.0846 15.1085 15.0726 15.086 15.0664L15.05 15.0615C15.026 15.0615 15.0025 15.0679 14.9818 15.08L14.982 15.0799Z" fill="#211715"/>
<path d="M14.0032 14.4963C13.9729 14.5946 13.9926 14.8206 14.1788 14.84C14.4249 14.8385 14.4381 14.5652 14.3552 14.4367C14.2873 14.3313 14.0879 14.2876 14.0032 14.4963Z" fill="#211715"/>
<path d="M15.9654 14.4963C15.9957 14.5946 15.976 14.8206 15.7898 14.84C15.5438 14.8385 15.5306 14.5652 15.6135 14.4367C15.6814 14.3313 15.8809 14.2876 15.9654 14.4963Z" fill="#211715"/>
<path d="M13.9383 13.239C13.6713 13.3366 13.4419 13.5159 13.2827 13.7514C13.2025 13.8696 13.1375 13.9974 13.0892 14.1318C13.064 14.1945 13.0443 14.2593 13.0304 14.3254C13.0135 14.4199 13.0709 14.5381 13.1825 14.5283C13.2181 14.5274 13.252 14.5128 13.2772 14.4877C13.3023 14.4625 13.3169 14.4286 13.3178 14.393C13.3175 14.3572 13.3032 14.323 13.2779 14.2977C13.2526 14.2724 13.2183 14.258 13.1825 14.2578L13.1745 14.2584L13.2427 14.2769L13.2365 14.2728L13.285 14.3213C13.2947 14.3382 13.2829 14.4224 13.2994 14.362C13.3032 14.3479 13.3071 14.3339 13.3113 14.32C13.3188 14.2948 13.3268 14.2698 13.3353 14.245C13.3503 14.201 13.3674 14.1577 13.3868 14.1154C13.4299 14.0199 13.4837 13.9295 13.547 13.846C13.6656 13.6893 13.8261 13.5693 14.0099 13.4998C14.0441 13.4895 14.0729 13.4665 14.0905 13.4355C14.1081 13.4046 14.113 13.368 14.1044 13.3334C14.0946 13.299 14.0717 13.2698 14.0405 13.2522C14.0094 13.2345 13.9726 13.2298 13.938 13.239L13.9383 13.239Z" fill="#211715"/>
<path d="M13.9085 12.958C13.9464 13.1697 14.0442 13.3661 14.1903 13.5238C14.263 13.6042 14.3443 13.6764 14.4326 13.7392C14.5254 13.8154 14.6359 13.8672 14.7539 13.8897C14.7897 13.8897 14.8241 13.8755 14.8495 13.8501C14.8749 13.8248 14.8891 13.7904 14.8891 13.7545C14.888 13.719 14.8735 13.6852 14.8483 13.66C14.8232 13.6349 14.7894 13.6203 14.7539 13.6192C14.7783 13.6225 14.7379 13.6115 14.7366 13.611C14.7535 13.6177 14.7306 13.607 14.725 13.604C14.7041 13.5928 14.6837 13.5809 14.6635 13.5686C14.6259 13.5455 14.5895 13.5205 14.554 13.4943C14.5423 13.4857 14.5652 13.5036 14.5463 13.4887C14.5365 13.4807 14.5267 13.4728 14.517 13.4646C14.5009 13.451 14.4851 13.4371 14.4697 13.4228C14.4358 13.3914 14.4036 13.3582 14.3733 13.3233C14.3665 13.3154 14.3598 13.3074 14.3531 13.2994C14.3475 13.2926 14.3355 13.2773 14.3471 13.2924C14.3332 13.2743 14.3199 13.2556 14.3072 13.2366C14.2831 13.2005 14.2612 13.163 14.2418 13.1242C14.2362 13.1129 14.2312 13.1017 14.2259 13.0907C14.2153 13.0682 14.2282 13.0975 14.2227 13.0833C14.2145 13.0622 14.2068 13.041 14.2002 13.0193C14.1867 12.9758 14.1765 12.9314 14.1698 12.8863C14.1602 12.8518 14.1373 12.8225 14.1061 12.8048C14.0749 12.7871 14.038 12.7825 14.0034 12.7919C13.9694 12.8023 13.9407 12.8254 13.9231 12.8563C13.9056 12.8872 13.9005 12.9237 13.909 12.9583L13.9085 12.958Z" fill="#211715"/>
<path d="M14.9194 13.0231C15.0133 13.2161 15.1363 13.3935 15.2842 13.549C15.4307 13.6918 15.6142 13.7906 15.814 13.8343C15.9839 13.8793 16.1582 13.9156 16.296 14.0323C16.4268 14.1435 16.5152 14.2964 16.5462 14.4653C16.556 14.4997 16.5789 14.5289 16.6101 14.5465C16.6412 14.5642 16.678 14.569 16.7126 14.5598C16.7467 14.5496 16.7757 14.5266 16.7933 14.4956C16.8109 14.4646 16.8158 14.4279 16.8071 14.3934C16.7696 14.2068 16.6795 14.0349 16.5474 13.898C16.4079 13.7593 16.2332 13.6613 16.0422 13.6144C15.858 13.563 15.6631 13.5328 15.5174 13.3986C15.366 13.2515 15.2425 13.0779 15.1531 12.8866C15.1442 12.8713 15.1323 12.8578 15.1181 12.8471C15.104 12.8364 15.0878 12.8285 15.0707 12.824C15.0535 12.8195 15.0356 12.8184 15.018 12.8208C15.0004 12.8232 14.9834 12.8291 14.9681 12.8381C14.9527 12.847 14.9393 12.8589 14.9286 12.8731C14.9178 12.8872 14.91 12.9034 14.9055 12.9206C14.901 12.9377 14.8999 12.9556 14.9023 12.9732C14.9047 12.9909 14.9106 13.0078 14.9196 13.0231H14.9194Z" fill="#211715"/>
<path d="M13.5228 17.3251C13.829 17.6469 14.2649 17.7647 14.6934 17.8093C15.1442 17.8562 15.6003 17.8176 16.0177 17.6323C16.2064 17.555 16.3748 17.4353 16.5097 17.2825C16.5341 17.2566 16.5477 17.2224 16.5477 17.1868C16.5477 17.1513 16.5341 17.1171 16.5097 17.0912C16.4842 17.0661 16.4499 17.052 16.4141 17.052C16.3783 17.052 16.3439 17.0661 16.3184 17.0912C16.0367 17.435 15.5255 17.5483 15.1037 17.556C14.6241 17.5647 14.0628 17.5 13.7144 17.1339C13.5942 17.0075 13.4031 17.199 13.5231 17.3251H13.5228Z" fill="#211715"/>
<path d="M16.9061 6.42416C16.9355 6.39979 16.9702 6.38279 17.0075 6.37458C17.0447 6.36636 17.0834 6.36717 17.1203 6.37693C17.1479 6.38333 17.1742 6.39439 17.1981 6.40962C17.1985 6.40962 17.2191 6.42912 17.2257 6.43566C17.2456 6.45555 17.2185 6.42196 17.2338 6.44495C17.3135 6.56437 17.3152 6.72769 17.3036 6.86627C17.2883 7.00981 17.2444 7.14882 17.1743 7.27501C17.1063 7.40164 16.9739 7.5924 16.8055 7.56941C16.771 7.56111 16.7346 7.56626 16.7037 7.58381C16.6728 7.60136 16.6497 7.63 16.6392 7.66392C16.6299 7.6985 16.6346 7.73535 16.6523 7.76648C16.67 7.79762 16.6992 7.82054 16.7336 7.83028C17.161 7.88855 17.4109 7.48268 17.5257 7.12843C17.6199 6.83752 17.6239 6.38454 17.3487 6.18651C17.2528 6.12299 17.1385 6.09309 17.0238 6.10148C16.9091 6.10988 16.8004 6.15609 16.7148 6.23289C16.5841 6.34847 16.776 6.53924 16.906 6.42416H16.9061Z" fill="#211715"/>
<path d="M16.6539 7.49124C16.616 7.65227 16.5635 7.80953 16.4971 7.96107C16.5133 7.92162 16.4915 7.97307 16.4848 7.9866C16.4735 8.01044 16.4614 8.03394 16.449 8.05727C16.4215 8.10923 16.3921 8.16017 16.3613 8.21033C16.1987 8.48579 15.9907 8.73181 15.7462 8.93805C15.6157 9.04908 15.4613 9.12852 15.295 9.17017C15.1254 9.20895 15.1972 9.46982 15.3669 9.43104C15.7196 9.35051 16.0139 9.09426 16.2445 8.82708C16.4399 8.60831 16.6033 8.36297 16.73 8.09835C16.7387 8.07902 16.7469 8.05947 16.7551 8.03991C16.7585 8.0318 16.7716 8.00198 16.7567 8.0358C16.7763 7.99122 16.7954 7.94653 16.8126 7.90105C16.8554 7.79115 16.8895 7.6781 16.9148 7.56292C16.9505 7.39312 16.6898 7.32059 16.6539 7.49101V7.49124Z" fill="#211715"/>
<path d="M12.1194 7.53747C12.222 7.99766 12.4357 8.42573 12.7419 8.78428C13.0378 9.13041 13.4199 9.40576 13.8782 9.47576C13.9128 9.48414 13.9492 9.47903 13.9801 9.46147C14.0111 9.44391 14.0341 9.41522 14.0446 9.38125C14.0539 9.34666 14.0491 9.30983 14.0315 9.2787C14.0138 9.24758 13.9846 9.22465 13.9501 9.21489C13.5321 9.15109 13.2031 8.90871 12.9332 8.59301C12.6597 8.26783 12.4699 7.88072 12.3803 7.46539C12.3425 7.29554 12.0817 7.36745 12.1195 7.5373L12.1194 7.53747Z" fill="#211715"/>
<path d="M14.002 8.25886C14.1432 8.33257 14.3005 8.36966 14.4597 8.36673C14.6261 8.37405 14.7901 8.32566 14.9259 8.22922C14.9513 8.20385 14.9655 8.16945 14.9655 8.13358C14.9655 8.09771 14.9513 8.06331 14.9259 8.03795C14.9 8.01357 14.8658 8 14.8303 8C14.7947 8 14.7605 8.01357 14.7347 8.03795C14.7768 8.00532 14.748 8.02741 14.7372 8.03429C14.7282 8.03992 14.7189 8.04528 14.7094 8.05023C14.6959 8.05722 14.6666 8.06269 14.7038 8.05407C14.6909 8.05705 14.6781 8.06382 14.6655 8.06782C14.6305 8.07865 14.5947 8.08668 14.5584 8.09182C14.5786 8.08884 14.5662 8.09064 14.5532 8.09182C14.5427 8.09284 14.5322 8.09367 14.5216 8.0943C14.4963 8.09583 14.4709 8.09639 14.4456 8.09611C14.423 8.09611 14.4001 8.09504 14.3774 8.0934C14.367 8.09267 14.3566 8.0916 14.3463 8.0907C14.3068 8.08732 14.3729 8.09577 14.3362 8.08957C14.3024 8.08418 14.269 8.07665 14.2362 8.06703C14.2223 8.0628 14.2086 8.05773 14.1948 8.05294C14.162 8.04167 14.2192 8.065 14.1896 8.05085C14.1727 8.04268 14.1558 8.03395 14.1389 8.02527C14.1079 8.00716 14.071 8.0021 14.0363 8.0112C14.0016 8.0203 13.9719 8.04281 13.9538 8.07379C13.9357 8.10477 13.9306 8.14167 13.9397 8.17638C13.9488 8.21108 13.9713 8.24075 14.0023 8.25886H14.002Z" fill="#211715"/>
<path d="M14.3866 7.19253C14.407 7.26719 14.4232 7.34292 14.4353 7.41936L14.4304 7.38341C14.4319 7.39377 14.4321 7.40427 14.4312 7.41468L14.436 7.37873C14.4353 7.38352 14.4341 7.38824 14.4325 7.39282L14.4462 7.36047C14.4448 7.36364 14.4431 7.36668 14.4411 7.36954L14.4623 7.34215C14.4601 7.34484 14.4576 7.34728 14.4548 7.34943L14.4822 7.32824C14.4765 7.33181 14.4705 7.33498 14.4642 7.3377L14.4965 7.32406C14.4868 7.32816 14.4767 7.33107 14.4663 7.33274L14.5022 7.32795C14.4929 7.32904 14.4834 7.32904 14.474 7.32795L14.51 7.3328C14.4993 7.33122 14.4888 7.32857 14.4781 7.32716C14.4607 7.32156 14.442 7.32073 14.4242 7.32474C14.4063 7.32556 14.3889 7.3311 14.3739 7.3408C14.3585 7.34977 14.3451 7.36166 14.3343 7.37582C14.3236 7.38997 14.3158 7.4061 14.3112 7.42329C14.3067 7.44047 14.3057 7.45838 14.3081 7.47598C14.3105 7.49358 14.3164 7.51054 14.3253 7.52587C14.3339 7.54112 14.3455 7.55448 14.3594 7.56513C14.3733 7.57578 14.3892 7.58352 14.4062 7.58786C14.4322 7.59147 14.4575 7.59801 14.484 7.59914C14.5247 7.59935 14.5649 7.58968 14.601 7.57096C14.6242 7.56024 14.6447 7.54451 14.6611 7.52492C14.6774 7.50532 14.6893 7.48234 14.6957 7.45763C14.7042 7.41801 14.7039 7.37702 14.6948 7.33753C14.6828 7.26427 14.6662 7.19202 14.6477 7.12034C14.643 7.10321 14.6349 7.08718 14.624 7.07316C14.6131 7.05914 14.5995 7.04741 14.5841 7.03864C14.5686 7.02987 14.5516 7.02422 14.5339 7.02203C14.5163 7.01984 14.4984 7.02114 14.4813 7.02586C14.4642 7.03058 14.4481 7.03863 14.4341 7.04955C14.4201 7.06047 14.4084 7.07404 14.3996 7.08949C14.3908 7.10494 14.3852 7.12197 14.383 7.1396C14.3808 7.15723 14.3821 7.17512 14.3868 7.19225L14.3866 7.19253Z" fill="#211715"/>
<path d="M13.209 6.54056C13.1707 6.66341 13.1942 6.94632 13.4272 6.97139C13.7351 6.97077 13.7528 6.62875 13.6498 6.46752C13.5655 6.33554 13.3161 6.2798 13.209 6.54056Z" fill="#211715"/>
<path d="M15.6751 6.55022C15.7125 6.67336 15.6867 6.95598 15.4536 6.97931C15.1457 6.97627 15.1306 6.63414 15.2349 6.47375C15.3203 6.34239 15.5701 6.28862 15.6751 6.55022Z" fill="#211715"/>
<path d="M16.1955 2.95101C15.732 2.62782 15.1805 2.4546 14.6154 2.45474C14.3807 2.44928 14.1459 2.46366 13.9135 2.49774C13.6944 2.53888 13.4812 2.60637 13.2783 2.69876C12.4876 3.05256 11.8159 3.80598 11.6697 4.6752C11.6302 4.93958 11.6216 5.20767 11.6441 5.47404C11.6613 5.73181 11.6928 5.99617 11.8015 6.23314C11.8198 6.2639 11.8495 6.28622 11.8841 6.2953C11.9187 6.30438 11.9555 6.29948 11.9866 6.28166C12.0169 6.26299 12.0389 6.23333 12.0479 6.19886C12.057 6.16439 12.0524 6.12776 12.0351 6.09659C11.9486 5.9082 11.9322 5.70898 11.9174 5.51365C11.8985 5.29298 11.8985 5.07109 11.9174 4.85041C11.9549 4.45925 12.1298 4.08324 12.3609 3.76979C12.836 3.12588 13.6289 2.7084 14.4329 2.72446C14.5754 2.72728 14.7177 2.72192 14.86 2.73466C15.0009 2.748 15.1403 2.77426 15.2764 2.81311C15.5559 2.89316 15.8203 3.01867 16.059 3.1846C16.203 3.28322 16.3384 3.0489 16.1955 2.95101Z" fill="#211715"/>
<path d="M17.3293 6.32476C17.4864 5.95078 17.4672 5.50349 17.424 5.10844C17.4056 4.92169 17.3754 4.7363 17.3334 4.5534C17.2716 4.30645 17.1748 4.06962 17.046 3.85008C16.9169 3.62964 16.755 3.43011 16.5659 3.25835C16.438 3.14068 16.2462 3.33161 16.3746 3.44962C16.6962 3.74305 16.93 4.12005 17.0499 4.53858C17.1473 4.89906 17.1909 5.27199 17.1791 5.64523C17.1805 5.85286 17.143 6.05891 17.0685 6.25274C17.0592 6.28732 17.0639 6.32419 17.0815 6.35534C17.0992 6.38648 17.1285 6.40939 17.163 6.4191C17.1975 6.42771 17.2341 6.42271 17.2651 6.40513C17.296 6.38754 17.319 6.35873 17.3294 6.32465L17.3293 6.32476Z" fill="#211715"/>
<path d="M15.8459 4.69099C15.8948 5.00297 15.9909 5.30568 16.1309 5.58873C16.2426 5.83106 16.3637 6.07029 16.6225 6.17866C16.6571 6.18798 16.694 6.18329 16.7251 6.16559C16.7563 6.1479 16.7792 6.11863 16.7889 6.08415C16.7975 6.0496 16.7925 6.01305 16.7749 5.98208C16.7573 5.95111 16.7285 5.92809 16.6944 5.91779C16.5144 5.84239 16.4281 5.59172 16.354 5.42942C16.2387 5.19644 16.1587 4.94765 16.1164 4.69116C16.1153 4.65564 16.1007 4.62187 16.0756 4.59674C16.0504 4.57161 16.0167 4.55701 15.9811 4.55591C15.9453 4.5561 15.911 4.57041 15.8857 4.59574C15.8604 4.62106 15.8461 4.65535 15.8459 4.69116V4.69099Z" fill="#211715"/>
<path d="M10.9025 11.18C11.1379 10.9248 11.4117 10.7079 11.714 10.537C11.9925 10.3754 12.3189 10.2866 12.624 10.1913C12.7897 10.1395 12.7189 9.8783 12.5521 9.93043C12.2253 10.0327 11.8759 10.1303 11.5775 10.3034C11.2549 10.4856 10.9626 10.7168 10.711 10.9888C10.5953 11.1184 10.786 11.31 10.9023 11.18H10.9025Z" fill="#211715"/>
<path d="M12.3352 6.21514C12.2589 6.14638 12.164 6.10159 12.0625 6.08635C11.9609 6.07112 11.8571 6.08612 11.764 6.12948C11.6985 6.16296 11.6411 6.2105 11.5961 6.26869C11.551 6.32689 11.5194 6.39431 11.5034 6.46615C11.4114 6.80113 11.4965 7.19178 11.6864 7.47869C11.8153 7.67345 12.0201 7.84967 12.2696 7.81766C12.3051 7.81656 12.3389 7.80196 12.364 7.77683C12.3892 7.7517 12.4038 7.71793 12.4049 7.68241C12.4047 7.6466 12.3904 7.61231 12.365 7.58699C12.3397 7.56166 12.3054 7.54735 12.2696 7.54716C12.084 7.571 11.9589 7.41985 11.8773 7.27102C11.8027 7.13954 11.7567 6.99387 11.742 6.84345C11.7341 6.76027 11.7371 6.6764 11.7511 6.59402C11.7576 6.55388 11.7687 6.5146 11.784 6.47691C11.7878 6.46824 11.7947 6.45623 11.7997 6.44755C11.8015 6.44445 11.8217 6.41374 11.8117 6.42749C11.8023 6.44017 11.8297 6.40782 11.8331 6.40444C11.8365 6.40106 11.8632 6.38072 11.85 6.38985C11.877 6.37141 11.9078 6.35924 11.9402 6.35423C11.9758 6.34668 12.0127 6.34744 12.048 6.35645C12.0833 6.36546 12.1161 6.38248 12.1438 6.40619C12.2726 6.52267 12.4645 6.33197 12.3351 6.21492L12.3352 6.21514Z" fill="#211715"/>
<path d="M16.8799 10.4495C17.1626 10.5541 17.4384 10.6765 17.7058 10.8158C17.9499 10.9438 18.1917 11.0789 18.3877 11.2753C18.7911 11.6791 18.9553 12.2292 19.1043 12.7648C19.2722 13.3687 19.4512 13.9708 19.5727 14.5862C19.6756 15.1068 19.7662 15.6522 19.7155 16.184C19.692 16.4691 19.5966 16.7437 19.438 16.9819C19.2654 17.237 19.0294 17.4443 18.7937 17.6394C18.7686 17.6649 18.7545 17.6993 18.7545 17.7351C18.7545 17.7709 18.7686 17.8052 18.7937 17.8307C18.8195 17.8554 18.8537 17.8691 18.8894 17.8691C18.925 17.8691 18.9593 17.8554 18.985 17.8307C19.4292 17.4629 19.8312 17.0387 19.9473 16.4542C20.0572 15.9012 19.9744 15.33 19.8822 14.7808C19.7745 14.1392 19.5948 13.5134 19.4194 12.8878C19.2544 12.2984 19.0997 11.6931 18.698 11.214C18.4871 10.9625 18.22 10.7871 17.9343 10.6313C17.6176 10.4605 17.2893 10.3125 16.9517 10.1882C16.9171 10.179 16.8802 10.1837 16.8491 10.2014C16.818 10.2191 16.795 10.2483 16.7852 10.2827C16.7765 10.3173 16.7814 10.3539 16.799 10.3849C16.8167 10.4159 16.8456 10.4389 16.8797 10.4491L16.8799 10.4495Z" fill="#211715"/>
<path d="M17.8109 15.826C17.9475 15.7937 18.0884 15.7836 18.2283 15.7959C18.2934 15.8014 18.358 15.8122 18.4214 15.8282C18.494 15.8462 18.5651 15.8698 18.6341 15.8986C18.6687 15.908 18.7057 15.9034 18.7368 15.8857C18.768 15.868 18.7909 15.8386 18.8005 15.8041C18.8089 15.7695 18.8039 15.7331 18.7863 15.7022C18.7687 15.6712 18.74 15.6482 18.7061 15.6377C18.3992 15.5131 18.0609 15.4877 17.7389 15.5652C17.7218 15.5699 17.7057 15.578 17.6917 15.5889C17.6777 15.5998 17.666 15.6134 17.6572 15.6288C17.6484 15.6443 17.6428 15.6613 17.6406 15.6789C17.6384 15.6966 17.6397 15.7145 17.6445 15.7316C17.6492 15.7487 17.6572 15.7647 17.6682 15.7787C17.6791 15.7928 17.6926 15.8045 17.7081 15.8133C17.7236 15.822 17.7406 15.8277 17.7582 15.8298C17.7758 15.832 17.7937 15.8307 17.8109 15.826Z" fill="#211715"/>
<path d="M15.5336 9.19698C15.5541 9.38406 15.6072 9.56611 15.6905 9.73489C15.7654 9.85699 15.8687 9.95915 15.9917 10.0327C16.2644 10.213 16.5795 10.3257 16.8799 10.4497C16.9145 10.459 16.9513 10.4543 16.9825 10.4366C17.0136 10.419 17.0365 10.3897 17.0463 10.3553C17.0549 10.3207 17.0499 10.2841 17.0323 10.2531C17.0147 10.2222 16.9859 10.1991 16.9518 10.1888C16.6824 10.0776 16.4046 9.97407 16.1572 9.8179C16.1092 9.78894 16.0639 9.75568 16.0219 9.71855C15.9839 9.68835 15.9523 9.65076 15.9292 9.60804C15.8457 9.46287 15.82 9.28833 15.7943 9.12524C15.7845 9.09079 15.7616 9.06155 15.7305 9.04388C15.6993 9.0262 15.6625 9.0215 15.6279 9.03079C15.5938 9.04107 15.565 9.06408 15.5474 9.09506C15.5298 9.12604 15.5248 9.1626 15.5335 9.19715L15.5336 9.19698Z" fill="#211715"/>
<path d="M12.6242 10.1913C12.8577 10.1237 13.0856 10.0384 13.3061 9.93622C13.4067 9.8855 13.5243 9.82549 13.5579 9.71018C13.5725 9.64925 13.5838 9.58758 13.5917 9.52545L13.6284 9.32015C13.6369 9.28559 13.6319 9.24908 13.6143 9.21814C13.5967 9.18719 13.5679 9.16416 13.5339 9.15379C13.4993 9.14455 13.4625 9.14928 13.4314 9.16695C13.4002 9.18462 13.3773 9.21382 13.3675 9.24824C13.3462 9.36794 13.3263 9.48809 13.3034 9.6075C13.303 9.60993 13.2978 9.63844 13.297 9.63827C13.2961 9.6381 13.307 9.61923 13.3082 9.62176C13.3082 9.62176 13.2607 9.65124 13.2554 9.65456C13.2204 9.67631 13.1842 9.69606 13.147 9.71373C13.1019 9.7356 13.0765 9.74625 13.0423 9.75995C12.9928 9.77978 12.9429 9.79827 12.8927 9.8163C12.7799 9.85648 12.6659 9.89345 12.5521 9.93059C12.5179 9.94079 12.4891 9.96379 12.4715 9.99479C12.4539 10.0258 12.4489 10.0624 12.4577 10.097C12.4675 10.1313 12.4904 10.1605 12.5215 10.1782C12.5526 10.1958 12.5894 10.2006 12.624 10.1915L12.6242 10.1913Z" fill="#211715"/>
<path d="M12.5703 10.6119C12.8567 10.7521 13.1549 10.8666 13.4616 10.9542C13.7413 11.0277 14.0283 11.0709 14.3173 11.083C14.6442 11.0984 14.9718 11.0891 15.2973 11.0554C15.5224 11.036 15.7448 10.9934 15.961 10.9282C16.1352 10.8695 16.3033 10.7942 16.4629 10.7032C16.6155 10.6193 16.4792 10.3856 16.3264 10.4697C16.2631 10.5045 16.1995 10.5386 16.1343 10.5699C16.1037 10.5847 16.0727 10.5988 16.0414 10.6121C16.0679 10.6009 16.0144 10.6228 16.0076 10.6253C15.9885 10.6328 15.9692 10.64 15.9498 10.6468C15.7641 10.7107 15.572 10.754 15.3768 10.776C14.8052 10.8452 14.1974 10.8536 13.6346 10.7191C13.3144 10.6377 13.0033 10.5235 12.7065 10.3783C12.6753 10.3611 12.6387 10.3566 12.6043 10.3656C12.5699 10.3747 12.5403 10.3965 12.5215 10.4268C12.5037 10.4578 12.4988 10.4946 12.5079 10.5292C12.517 10.5639 12.5393 10.5935 12.57 10.6119H12.5703Z" fill="#211715"/>
<path d="M11.5776 15.9134C11.6924 16.3598 11.8297 16.8 11.989 17.2325C11.9994 17.2665 12.0224 17.2953 12.0534 17.3129C12.0843 17.3305 12.1208 17.3355 12.1554 17.3269C12.1898 17.3172 12.219 17.2942 12.2367 17.2631C12.2544 17.232 12.2591 17.1952 12.2499 17.1606C12.0906 16.7281 11.9533 16.2879 11.8385 15.8415C11.7952 15.673 11.5341 15.7444 11.5776 15.9134Z" fill="#211715"/>
<path d="M14.3533 5.66252C14.3396 5.70846 14.3412 5.75759 14.3578 5.80255C14.3744 5.84751 14.4051 5.88587 14.4454 5.9119C14.5232 5.94937 14.6101 5.96395 14.696 5.95394C14.901 5.94501 15.1 5.88223 15.273 5.77191C15.5516 5.59157 15.7384 5.26759 15.8422 4.95915C15.9021 4.76078 15.9336 4.55491 15.9357 4.3477C15.9427 4.17367 15.6722 4.17395 15.6652 4.3477C15.652 4.67501 15.5872 4.98175 15.4038 5.2522C15.304 5.41312 15.1582 5.54039 14.9853 5.61755C14.9015 5.65252 14.8129 5.67425 14.7225 5.68197C14.6844 5.68522 14.6462 5.68537 14.6082 5.68242C14.6056 5.68242 14.58 5.68135 14.5824 5.67881C14.5896 5.6716 14.6176 5.72012 14.6141 5.73443C14.6552 5.56537 14.3944 5.49312 14.3533 5.66252Z" fill="#211715"/>
<path d="M13.1786 5.691C13.1727 5.74153 13.1825 5.79266 13.2066 5.83745C13.2307 5.88224 13.268 5.91853 13.3135 5.94139C13.4068 5.97494 13.5065 5.98698 13.6052 5.97661C13.7963 5.97246 13.9843 5.92756 14.1566 5.84491C14.5038 5.68294 14.7596 5.31849 14.8857 4.96576C14.9509 4.76146 14.9925 4.5504 15.0097 4.33667C15.0095 4.30086 14.9952 4.26658 14.9699 4.24126C14.9446 4.21594 14.9103 4.20162 14.8745 4.20142C14.8389 4.20223 14.8049 4.21675 14.7797 4.24194C14.7545 4.26713 14.74 4.30105 14.7392 4.33667C14.7225 4.52615 14.6841 4.7131 14.6249 4.89385C14.5579 5.07108 14.4583 5.23416 14.3312 5.37462C14.2017 5.52304 14.03 5.62832 13.839 5.67635C13.7596 5.6963 13.678 5.7064 13.5961 5.70644C13.555 5.70689 13.5132 5.70768 13.4721 5.70447C13.4592 5.70449 13.4463 5.7033 13.4336 5.70092C13.4497 5.70605 13.4464 5.72662 13.4491 5.69117C13.4488 5.65539 13.4345 5.62117 13.4092 5.59587C13.3839 5.57057 13.3497 5.55623 13.3139 5.55592C13.2782 5.55658 13.2442 5.57104 13.219 5.59627C13.1938 5.62149 13.1793 5.65551 13.1786 5.69117V5.691Z" fill="#211715"/>
<path d="M12.5697 6.16905C12.8664 5.97096 13.2288 5.89855 13.5128 5.68288C13.8002 5.46467 13.9411 5.13228 14.025 4.79071C14.0665 4.62165 13.8056 4.54957 13.7642 4.71881C13.6913 5.01602 13.5779 5.30913 13.3186 5.49149C13.1804 5.58871 13.0239 5.64241 12.8698 5.70891C12.7177 5.77108 12.5716 5.84691 12.4332 5.93546C12.2891 6.0316 12.4244 6.26604 12.5697 6.16905Z" fill="#211715"/>
<path d="M18.0993 18.3031L18.0069 18.2106C17.9011 18.3667 17.7665 18.501 17.6102 18.6065C17.5682 18.6401 17.5159 18.6583 17.462 18.6582C17.4147 18.656 17.369 18.6398 17.3309 18.6116C17.297 18.5796 17.2699 18.5411 17.2512 18.4983C17.2326 18.4555 17.2228 18.4095 17.2224 18.3628C17.1091 18.4797 17.0421 18.5413 16.8803 18.516C16.8261 18.5011 16.7774 18.4708 16.7401 18.4288C16.6936 18.3605 16.6754 18.2767 16.6894 18.1952C16.6894 18.1952 16.7036 18.1514 16.7244 18.0874C16.6811 18.111 16.6317 18.1211 16.5827 18.1164C16.5336 18.1118 16.4871 18.0925 16.449 18.0612C16.4225 18.0315 16.4039 17.9957 16.3948 17.957C16.3858 17.9183 16.3865 17.8779 16.3971 17.8395C16.4191 17.7632 16.4538 17.6911 16.4999 17.6264L16.7285 17.2637L16.776 17.1885L16.6038 17.3002C16.4187 17.4201 16.2369 17.2038 16.3079 17.018C16.3494 16.8975 16.4062 16.7829 16.477 16.6769C16.589 16.5274 16.8541 16.3269 17.0595 16.4673L17.4417 16.4406C17.6454 16.4125 17.7886 16.5313 17.9489 16.6041C18.1068 16.6873 18.2418 16.8081 18.3421 16.9558C18.4717 17.1321 18.5506 17.2996 18.544 17.4611C18.5357 17.6253 18.4917 17.7857 18.415 17.9311C18.3382 18.0765 18.2307 18.2034 18.0998 18.3029" fill="white"/>
<path d="M17.1274 16.3505C16.8814 16.1897 16.574 16.3524 16.4054 16.5507C16.3143 16.6669 16.2431 16.7974 16.1948 16.9369C16.1667 16.9978 16.1546 17.0648 16.1597 17.1317C16.1647 17.1985 16.1867 17.263 16.2236 17.3189C16.2707 17.3906 16.344 17.441 16.4278 17.4593C16.5116 17.4776 16.5992 17.4623 16.6719 17.4169C16.7029 17.3988 16.7254 17.3691 16.7345 17.3344C16.7436 17.2997 16.7386 17.2628 16.7205 17.2318C16.7024 17.2008 16.6727 17.1783 16.638 17.1692C16.6033 17.1601 16.5664 17.1652 16.5354 17.1833C16.5285 17.1878 16.5214 17.1919 16.5141 17.1957C16.5287 17.1903 16.5289 17.19 16.5146 17.1953C16.5078 17.1976 16.5008 17.1994 16.4938 17.2009C16.5126 17.1989 16.5143 17.1985 16.499 17.1996C16.4924 17.1997 16.4857 17.1995 16.4791 17.1989C16.4988 17.2018 16.5012 17.2017 16.4863 17.1985C16.48 17.1969 16.4739 17.1949 16.4679 17.1925C16.4853 17.2 16.4874 17.2003 16.4741 17.1936C16.4684 17.1903 16.4628 17.1868 16.4577 17.183C16.472 17.1943 16.4736 17.195 16.4624 17.1852C16.4576 17.1807 16.453 17.1759 16.4486 17.1709C16.4591 17.1854 16.4599 17.1865 16.4513 17.1743C16.4443 17.1625 16.4373 17.1511 16.4314 17.1386C16.4454 17.1682 16.4331 17.1396 16.431 17.1317C16.4292 17.1249 16.4276 17.1181 16.4264 17.1112C16.4285 17.1297 16.429 17.1311 16.4276 17.1155C16.4276 17.1072 16.4332 17.0633 16.4262 17.0973C16.4335 17.0671 16.4434 17.0376 16.4557 17.0091C16.462 16.9931 16.4684 16.9771 16.475 16.9612C16.466 16.9828 16.4862 16.9359 16.4881 16.9317C16.5023 16.9005 16.5173 16.8697 16.5338 16.8396C16.5497 16.8105 16.5676 16.7833 16.586 16.7555C16.5966 16.7412 16.5959 16.7419 16.584 16.7576C16.5882 16.7524 16.5924 16.7473 16.5967 16.7422C16.6057 16.7316 16.6151 16.7212 16.6249 16.7111C16.6457 16.6893 16.6682 16.6697 16.6906 16.6496C16.7026 16.64 16.7026 16.6398 16.6906 16.6489C16.6969 16.6441 16.7032 16.6394 16.7097 16.6349C16.7209 16.6269 16.7322 16.6192 16.7442 16.6119C16.7562 16.6046 16.7679 16.5976 16.7801 16.591C16.7851 16.5884 16.8298 16.568 16.801 16.5798C16.8292 16.5683 16.8587 16.5598 16.8888 16.5546C16.8545 16.5606 16.9009 16.5551 16.9083 16.5552C16.9158 16.5553 16.9231 16.5556 16.9305 16.5563C16.9128 16.5536 16.9119 16.5536 16.9274 16.5563C16.9331 16.558 16.9776 16.5732 16.9491 16.5605C16.9636 16.5672 16.9776 16.5752 16.9908 16.5842C17.0219 16.602 17.0587 16.6069 17.0933 16.5978C17.1279 16.5887 17.1576 16.5664 17.1759 16.5356C17.1932 16.5045 17.1978 16.4678 17.1888 16.4334C17.1797 16.3989 17.1577 16.3692 17.1274 16.3506L17.1274 16.3505Z" fill="#211715"/>
<path d="M16.8077 16.8845L16.4774 17.4083C16.3788 17.5648 16.2381 17.7382 16.2562 17.9349C16.259 17.9805 16.2711 18.0251 16.2917 18.066C16.3123 18.1068 16.341 18.143 16.376 18.1725C16.411 18.2019 16.4516 18.2239 16.4954 18.2372C16.5392 18.2505 16.5852 18.2548 16.6306 18.2498C16.811 18.2319 16.9474 18.1017 17.0627 17.9718C17.194 17.814 17.3149 17.6479 17.4248 17.4746C17.4429 17.4436 17.448 17.4067 17.4389 17.372C17.4298 17.3373 17.4073 17.3076 17.3763 17.2895C17.3453 17.2714 17.3084 17.2663 17.2737 17.2754C17.239 17.2845 17.2094 17.307 17.1913 17.338C17.0943 17.4922 16.9874 17.64 16.8714 17.7805C16.8189 17.8439 16.7588 17.9007 16.6925 17.9496C16.669 17.9667 16.6415 17.9775 16.6126 17.9811C16.5922 17.9844 16.5712 17.981 16.5529 17.9712C16.5346 17.9599 16.5325 17.9529 16.5273 17.9301C16.5214 17.8987 16.5252 17.8663 16.5383 17.8372C16.5786 17.747 16.6286 17.6614 16.6874 17.582L17.0412 17.0208C17.1343 16.8732 16.9004 16.7373 16.8077 16.8843V16.8845Z" fill="#211715"/>
<path d="M16.5589 18.1592C16.5396 18.2332 16.5419 18.3112 16.5656 18.3839C16.5894 18.4566 16.6335 18.5209 16.6928 18.5692C16.7521 18.6175 16.824 18.6477 16.9 18.6563C16.976 18.6648 17.0528 18.6513 17.1214 18.6174C17.2151 18.5638 17.2979 18.4931 17.3656 18.4089C17.4381 18.3318 17.5092 18.2535 17.579 18.1738C17.6873 18.0509 17.7925 17.9255 17.8911 17.7947C17.909 17.7637 17.914 17.7268 17.9049 17.6922C17.8958 17.6575 17.8734 17.6279 17.8426 17.6096C17.8114 17.5924 17.7748 17.5878 17.7404 17.5968C17.7059 17.6059 17.6763 17.6278 17.6576 17.6581C17.5039 17.8564 17.3396 18.0462 17.1656 18.2269C17.1283 18.2663 17.091 18.3062 17.0504 18.3422C17.0492 18.3432 17.0166 18.3682 17.0371 18.3538C17.0238 18.363 17.01 18.3714 16.9956 18.3789C17.0197 18.3663 16.989 18.3807 16.9834 18.3822C16.9755 18.3843 16.9675 18.3861 16.9594 18.3875C16.9741 18.3853 16.973 18.385 16.9561 18.3864C16.9415 18.3855 16.927 18.3869 16.9124 18.3848C16.928 18.387 16.8786 18.372 16.898 18.3807C16.8834 18.373 16.8693 18.3643 16.8558 18.3547C16.836 18.3425 16.8548 18.3572 16.8429 18.3406C16.8289 18.3211 16.8429 18.3496 16.8342 18.3234C16.8289 18.3073 16.8246 18.2911 16.8212 18.2746C16.8195 18.2648 16.8193 18.2651 16.8206 18.2756C16.8196 18.2668 16.8191 18.2579 16.8189 18.2491C16.8186 18.2402 16.8189 18.233 16.8194 18.225C16.8164 18.243 16.8165 18.2451 16.8198 18.2312C16.8649 18.0628 16.6039 17.9909 16.5589 18.1592Z" fill="#211715"/>
<path d="M17.1138 18.515C17.1328 18.5815 17.1693 18.6417 17.2195 18.6893C17.2697 18.7369 17.3318 18.7701 17.3992 18.7855C17.5416 18.8117 17.6515 18.748 17.7605 18.6647C17.9649 18.5037 18.1325 18.301 18.2523 18.07C18.2704 18.039 18.2754 18.0021 18.2663 17.9674C18.2572 17.9327 18.2347 17.903 18.2037 17.8849C18.1728 17.8668 18.1359 17.8618 18.1012 17.8709C18.0664 17.88 18.0368 17.9025 18.0187 17.9335C17.93 18.1088 17.8094 18.2661 17.663 18.3971C17.6327 18.4251 17.6002 18.4507 17.5659 18.4737C17.5473 18.4865 17.5283 18.4984 17.5092 18.5104C17.4997 18.5164 17.4872 18.5217 17.5048 18.5147C17.4951 18.5186 17.4851 18.5216 17.4749 18.5236C17.4657 18.5256 17.4664 18.5254 17.477 18.523H17.4621C17.4321 18.5107 17.4902 18.5323 17.4531 18.521C17.4428 18.5179 17.4324 18.5154 17.4222 18.5119C17.4077 18.5067 17.4382 18.5122 17.4156 18.5075C17.4281 18.5179 17.43 18.519 17.4213 18.5108C17.4162 18.5058 17.4113 18.5006 17.4066 18.4953C17.4017 18.4903 17.3936 18.4796 17.4023 18.4914C17.3945 18.4809 17.3885 18.4698 17.3817 18.4587C17.3674 18.4357 17.3848 18.4717 17.3745 18.4431C17.3642 18.409 17.3412 18.3802 17.3102 18.3626C17.2792 18.345 17.2427 18.34 17.2081 18.3487C17.1737 18.3585 17.1445 18.3814 17.1269 18.4125C17.1092 18.4436 17.1045 18.4804 17.1137 18.515H17.1138Z" fill="#211715"/>
<path d="M17.4414 16.5759C17.5304 16.5665 17.6201 16.5845 17.6985 16.6275C17.7793 16.6679 17.8634 16.7075 17.9413 16.753C18.1169 16.8682 18.2574 17.0294 18.3475 17.2191C18.5129 17.5445 18.3044 17.9835 18.0311 18.1864C18.0009 18.2052 17.9791 18.2348 17.9701 18.2692C17.9611 18.3036 17.9655 18.3402 17.9825 18.3714C18.0008 18.4021 18.0305 18.4245 18.0651 18.4336C18.0998 18.4427 18.1366 18.4377 18.1676 18.4199C18.5487 18.1371 18.8104 17.5841 18.6016 17.1249C18.4923 16.884 18.3178 16.6784 18.0977 16.5315C18.0014 16.4734 17.9014 16.4215 17.7984 16.3761C17.6883 16.3198 17.5648 16.2954 17.4416 16.3054C17.406 16.3065 17.3722 16.321 17.3471 16.3462C17.3219 16.3713 17.3074 16.4051 17.3063 16.4407C17.3066 16.4765 17.3209 16.5108 17.3462 16.5361C17.3715 16.5614 17.4058 16.5757 17.4416 16.5759H17.4414Z" fill="#211715"/>
<path d="M6.17974 10.6045C6.00954 10.4449 5.79691 10.3267 5.57076 10.3551C5.26498 10.3935 5.0435 10.7121 5.05381 11.0201C5.06638 11.398 5.36647 11.7314 5.70477 11.874C6.00533 11.7855 6.2924 11.6563 6.55805 11.4902L6.6764 11.2891C6.75587 11.1528 6.7826 10.992 6.75152 10.8373C6.72807 10.7226 6.65137 10.6006 6.53449 10.5945C6.44083 10.5897 6.36255 10.6609 6.29628 10.7272C6.25973 10.6842 6.22082 10.6433 6.17974 10.6045Z" fill="white"/>
<path d="M10.8856 12.5296C10.7794 12.1042 10.6113 11.6958 10.3389 11.3559C9.96443 10.8887 9.42179 10.6071 8.82972 10.696C8.6043 10.7299 8.33199 10.7848 8.12995 10.8901C7.70205 11.113 7.31844 11.3645 7.04624 11.8442C6.96592 11.6723 6.8698 11.5081 6.75911 11.3539C6.41797 11.6029 6.0338 11.7867 5.62592 11.8962C5.59244 12.3586 5.87388 13.4097 5.98146 13.7741C6.05247 14.0148 6.15549 14.2673 6.37426 14.4071C6.49189 14.4771 6.62398 14.5192 6.76041 14.5302L6.72778 14.6348C6.18755 14.6906 5.79622 15.3312 5.99313 15.8373L6.29818 16.5816L8.78503 16.9413C9.62365 16.8647 10.3504 16.2465 10.7111 15.4856C11.0719 14.7247 11.1078 13.8437 10.9809 13.0111C10.9562 12.85 10.9252 12.6884 10.8856 12.5296Z" fill="#7ABEE6"/>
<path d="M7.77903 14.0734C7.55419 14.2756 7.26531 14.3921 6.96312 14.4024C6.80632 14.4143 6.64898 14.3879 6.50461 14.3256C6.37879 14.2588 6.27844 14.1524 6.21906 14.0229C6.12106 13.8317 6.07344 13.6109 6.01872 13.4041C5.95239 13.1533 5.89169 12.9009 5.84182 12.6464C5.79352 12.4001 5.74438 12.1488 5.761 11.8963L5.66171 12.0267C6.08062 11.9133 6.47551 11.725 6.82725 11.4708L6.64218 11.4223C6.80192 11.6449 6.93071 11.8882 7.025 12.1455C7.03532 12.1795 7.05834 12.2084 7.08931 12.2259C7.12027 12.2435 7.15681 12.2485 7.19136 12.2399C7.22579 12.2301 7.255 12.2072 7.27268 12.1761C7.29036 12.145 7.2951 12.1081 7.28587 12.0736C7.18548 11.7936 7.04752 11.5286 6.87577 11.2858C6.83671 11.2309 6.75398 11.1912 6.6907 11.2372C6.35887 11.4788 5.98581 11.6579 5.5898 11.7658C5.56156 11.7742 5.53674 11.7914 5.51889 11.8149C5.50105 11.8383 5.4911 11.8668 5.4905 11.8963C5.47399 12.1477 5.52217 12.4063 5.56827 12.6523C5.62023 12.9293 5.68583 13.2037 5.7579 13.476C5.82232 13.7195 5.88144 13.9756 6.00547 14.1968C6.08402 14.3436 6.20234 14.4654 6.34687 14.5481C6.51697 14.6335 6.70514 14.6766 6.89544 14.6738C7.29248 14.6778 7.67639 14.5317 7.9703 14.2647C8.09902 14.1469 7.9073 13.9561 7.77903 14.0734Z" fill="#211715"/>
<path d="M6.72757 14.4996C6.5744 14.5208 6.42774 14.5753 6.29784 14.6592C6.16794 14.7431 6.05794 14.8544 5.97554 14.9852C5.89314 15.1161 5.84033 15.2634 5.82081 15.4168C5.80129 15.5702 5.81552 15.726 5.86251 15.8733C5.87288 15.9073 5.89592 15.9361 5.92687 15.9537C5.95781 15.9712 5.99432 15.9763 6.02887 15.9677C6.06331 15.958 6.09253 15.935 6.1102 15.9039C6.12787 15.8728 6.13259 15.836 6.12333 15.8014C6.08374 15.6933 6.06976 15.5775 6.08247 15.4631C6.09518 15.3487 6.13424 15.2388 6.19659 15.142C6.25315 15.0472 6.32772 14.9645 6.41609 14.8983C6.50781 14.8307 6.61478 14.7866 6.72757 14.77C6.76311 14.769 6.79692 14.7544 6.82206 14.7293C6.8472 14.7041 6.86179 14.6703 6.86282 14.6348C6.8626 14.599 6.84828 14.5647 6.82296 14.5394C6.79764 14.5141 6.76337 14.4997 6.72757 14.4995V14.4996Z" fill="#211715"/>
<path d="M7.90196 10.8371C7.83254 10.8462 7.76201 10.8409 7.6947 10.8217C7.62739 10.8024 7.56474 10.7696 7.51062 10.7252C7.37891 10.6325 7.2708 10.5102 7.19503 10.3681C7.03842 10.0566 7.10611 9.68436 7.12634 9.35187C7.13699 9.17649 7.13406 8.99976 7.15294 8.82506C7.16942 8.67725 7.2022 8.53172 7.25066 8.39112C7.34291 8.1218 7.50781 7.8682 7.75222 7.71486C8.05118 7.52753 8.41158 7.47484 8.75867 7.47816C9.03446 7.47911 9.30839 7.52335 9.57047 7.60925C10.0635 7.77454 10.4701 8.13076 10.6031 8.64511C10.6966 9.0063 10.6707 9.41205 10.5862 9.77222C10.5112 10.1545 10.2923 10.4933 9.97454 10.7187C9.94439 10.7375 9.92258 10.7672 9.91356 10.8016C9.90454 10.836 9.909 10.8725 9.92601 10.9037C9.94429 10.9345 9.97396 10.9569 10.0086 10.9659C10.0432 10.975 10.0801 10.9701 10.1111 10.9522C10.4348 10.7221 10.6762 10.3942 10.7999 10.0167C10.9196 9.63327 10.9574 9.22891 10.9107 8.8299C10.8753 8.50849 10.7504 8.20344 10.5504 7.94941C10.3626 7.72159 10.1223 7.54293 9.84999 7.42885C9.55752 7.30476 9.24583 7.23207 8.92864 7.21397C8.54074 7.18855 8.14147 7.22975 7.78462 7.39098C7.46306 7.54073 7.20739 7.80293 7.06581 8.12817C6.91822 8.45582 6.87984 8.79316 6.86603 9.1482C6.85059 9.54798 6.76251 9.97634 6.90159 10.3639C6.96831 10.544 7.07804 10.7051 7.22124 10.8332C7.35187 10.9547 7.50826 11.066 7.68719 11.0992C7.78209 11.1161 7.87928 11.1155 7.97398 11.0975C8.00841 11.0877 8.03761 11.0648 8.05528 11.0336C8.07296 11.0025 8.07768 10.9657 8.06843 10.9311C8.05822 10.897 8.03521 10.8681 8.00421 10.8505C7.97322 10.8329 7.93663 10.8279 7.90207 10.8367L7.90196 10.8371Z" fill="#211715"/>
<path d="M8.43203 9.31713C8.38589 9.31876 8.3397 9.31669 8.2939 9.31093L8.32985 9.31572C8.31131 9.31324 8.29294 9.31009 8.27468 9.30625C8.23947 9.2975 8.20225 9.30237 8.17048 9.31989C8.15514 9.32885 8.14171 9.34075 8.13097 9.35491C8.12023 9.36906 8.11238 9.38519 8.10788 9.40238C8.10337 9.41956 8.10229 9.43747 8.10471 9.45507C8.10713 9.47267 8.11299 9.48963 8.12196 9.50496C8.13979 9.53537 8.16879 9.55761 8.20277 9.56695C8.2781 9.5829 8.35506 9.58978 8.43203 9.58747C8.4678 9.5869 8.50203 9.57281 8.52783 9.54802C8.55187 9.52174 8.56585 9.4878 8.56728 9.45222C8.56728 9.43445 8.56378 9.41687 8.55698 9.40046C8.55019 9.38405 8.54022 9.36914 8.52766 9.35658C8.5151 9.34402 8.50019 9.33405 8.48378 9.32726C8.46737 9.32046 8.44979 9.31696 8.43203 9.31696V9.31713Z" fill="#211715"/>
<path d="M7.41072 9.26006C7.36225 9.26434 7.31345 9.26326 7.26521 9.25684L7.30117 9.26169C7.2917 9.26048 7.28229 9.25878 7.27299 9.25662C7.2378 9.2476 7.20048 9.25249 7.16879 9.27026C7.13938 9.28919 7.11747 9.31776 7.1068 9.35107C7.10207 9.36819 7.10077 9.38608 7.10296 9.40371C7.10515 9.42134 7.11079 9.43837 7.11956 9.45382C7.12833 9.46926 7.14006 9.48283 7.15408 9.49375C7.16809 9.50466 7.18412 9.51271 7.20125 9.51743C7.22392 9.5223 7.24686 9.5258 7.26995 9.52791C7.28494 9.52977 7.30004 9.53096 7.31503 9.53174C7.34695 9.53366 7.37897 9.53327 7.41084 9.53056C7.42894 9.53136 7.44693 9.52733 7.46296 9.5189C7.48714 9.50833 7.50779 9.49109 7.52252 9.4692C7.53724 9.44731 7.54541 9.42168 7.54609 9.39531C7.54605 9.35943 7.53187 9.32501 7.50664 9.2995C7.49416 9.28681 7.47923 9.27677 7.46277 9.26999C7.44631 9.26321 7.42864 9.25983 7.41084 9.26006H7.41072Z" fill="#211715"/>
<path d="M7.72498 10.1985C7.67044 10.1885 7.6153 10.182 7.55991 10.1792C7.5333 10.1788 7.50719 10.1866 7.48511 10.2014C7.46302 10.2163 7.446 10.2375 7.43633 10.2623C7.42789 10.2784 7.42386 10.2964 7.42466 10.3145L7.42951 10.3504C7.43575 10.373 7.44773 10.3935 7.46428 10.4101L7.49167 10.4312C7.51236 10.4434 7.53592 10.4498 7.55991 10.4497C7.59209 10.4519 7.62427 10.4545 7.65622 10.4587L7.62027 10.4539C7.63154 10.4554 7.64219 10.4572 7.65307 10.4595C7.67051 10.4651 7.68913 10.466 7.707 10.4619C7.73302 10.4581 7.75742 10.447 7.77737 10.4298C7.79732 10.4127 7.812 10.3902 7.81971 10.3651L7.82456 10.3291C7.82457 10.3051 7.81819 10.2815 7.80607 10.2608L7.78494 10.2335C7.76839 10.2169 7.74783 10.2049 7.72526 10.1987L7.72498 10.1985Z" fill="#211715"/>
<path d="M9.65139 9.74421C9.65359 9.7428 9.68734 9.72477 9.66328 9.73491C9.6754 9.73026 9.68788 9.72659 9.70059 9.72392C9.72426 9.71829 9.69619 9.72291 9.71068 9.72313C9.71586 9.72313 9.75119 9.72522 9.73936 9.72313C9.72409 9.72071 9.75728 9.72821 9.76038 9.72877C9.792 9.73739 9.74843 9.71874 9.77582 9.73548C9.78146 9.73886 9.80761 9.76055 9.78895 9.74303C9.79171 9.74562 9.81189 9.7694 9.80214 9.75554C9.79138 9.74015 9.81009 9.7712 9.80259 9.75497C9.80389 9.75774 9.81257 9.79685 9.8093 9.77436C9.81234 9.80299 9.8133 9.83181 9.81217 9.86058C9.81217 9.8847 9.81138 9.90882 9.80963 9.93289C9.80862 9.94715 9.80755 9.96157 9.80552 9.97577C9.80873 9.95323 9.80113 9.99651 9.80118 9.99629C9.79592 10.022 9.78892 10.0474 9.78022 10.0721C9.77379 10.0911 9.76513 10.1093 9.75441 10.1262C9.74719 10.1387 9.73936 10.1508 9.73125 10.1627C9.72955 10.1651 9.70994 10.192 9.71913 10.1801C9.7264 10.1707 9.70436 10.197 9.70126 10.2005C9.69405 10.2082 9.68667 10.2159 9.67872 10.223C9.67827 10.2234 9.64773 10.2496 9.66582 10.2356C9.65471 10.2441 9.6431 10.2519 9.63105 10.259C9.62338 10.2636 9.61555 10.2677 9.60754 10.2716C9.59954 10.2756 9.58354 10.2812 9.60084 10.2748C9.57601 10.2841 9.55071 10.2921 9.52504 10.2987C9.51247 10.3019 9.49974 10.3044 9.48711 10.3071C9.45781 10.314 9.5065 10.3059 9.47674 10.3085C9.44087 10.3085 9.40647 10.3227 9.38111 10.3481C9.35574 10.3735 9.34149 10.4079 9.34149 10.4437C9.34149 10.4796 9.35574 10.514 9.38111 10.5394C9.40647 10.5648 9.44087 10.579 9.47674 10.579C9.62717 10.5704 9.7697 10.5089 9.87918 10.4054C9.98862 10.2924 10.0572 10.1462 10.0739 9.98981C10.0928 9.84193 10.0982 9.66126 9.98005 9.55159C9.91726 9.49553 9.83807 9.46121 9.75423 9.45371C9.67039 9.4462 9.58636 9.46593 9.51461 9.50994C9.48364 9.52805 9.46112 9.55772 9.45203 9.59243C9.44293 9.62714 9.44799 9.66404 9.46609 9.69501C9.4842 9.72599 9.51387 9.7485 9.54858 9.7576C9.58329 9.7667 9.62019 9.76164 9.65116 9.74353L9.65139 9.74421Z" fill="#211715"/>
<path d="M6.79319 11.3571C6.91215 11.1458 6.95014 10.8519 6.81635 10.6372C6.7879 10.5864 6.74723 10.5435 6.69803 10.5124C6.64883 10.4813 6.59265 10.4629 6.53457 10.459C6.39876 10.4567 6.29225 10.5406 6.20072 10.6314H6.39199C6.12493 10.322 5.67482 10.0643 5.28349 10.32C4.9378 10.5458 4.83941 10.9915 4.99636 11.3606C5.09433 11.5785 5.2534 11.7634 5.4543 11.8927C5.59913 11.9902 5.73467 11.756 5.59085 11.6591C5.28574 11.4538 5.05987 11.0492 5.27791 10.7021C5.31999 10.6289 5.38266 10.5698 5.45813 10.532C5.5336 10.4942 5.61852 10.4794 5.70232 10.4895C5.90554 10.5211 6.0715 10.673 6.20072 10.8227C6.22628 10.8477 6.26061 10.8617 6.29636 10.8617C6.33211 10.8617 6.36644 10.8477 6.39199 10.8227C6.42384 10.7911 6.48256 10.7184 6.53457 10.7295C6.5667 10.7363 6.59363 10.7869 6.60581 10.8171C6.62761 10.8837 6.63478 10.9542 6.62682 11.0239C6.61887 11.0935 6.59598 11.1606 6.55971 11.2206C6.47416 11.3725 6.7077 11.509 6.79319 11.3571Z" fill="#211715"/>
<path d="M7.20986 11.8336C7.38611 11.5641 7.62184 11.3387 7.89892 11.1748C8.02774 11.0897 8.16445 11.0172 8.30716 10.9583C8.47441 10.8995 8.64711 10.8575 8.82269 10.833C9.467 10.7309 10.0386 11.1092 10.3744 11.6376C10.7532 12.2337 10.8849 12.9832 10.909 13.6792C10.9334 14.3851 10.8118 15.116 10.4268 15.7193C10.0656 16.2856 9.46746 16.7397 8.78482 16.8058C8.74924 16.8067 8.71538 16.8213 8.69021 16.8464C8.66504 16.8716 8.6505 16.9055 8.64957 16.941C8.64982 16.9768 8.66415 17.0111 8.68946 17.0364C8.71477 17.0617 8.74903 17.076 8.78482 17.0763C9.47315 17.0097 10.0813 16.622 10.5005 16.0813C10.9728 15.4721 11.1685 14.7019 11.1818 13.9403C11.1866 13.5449 11.1507 13.15 11.0748 12.7618C11.0076 12.3795 10.8826 12.0097 10.704 11.6651C10.3687 11.0414 9.75335 10.5277 9.01419 10.5446C8.60489 10.5594 8.20591 10.677 7.85395 10.8864C7.49978 11.081 7.19853 11.3592 6.97638 11.6968C6.88283 11.8442 7.11682 11.9801 7.20992 11.8333L7.20986 11.8336Z" fill="#211715"/>
<path d="M7.7966 8.17309C7.75909 8.22441 7.71534 8.27086 7.66636 8.31138L7.69375 8.29025C7.6685 8.30939 7.64137 8.32591 7.61277 8.33956C7.58246 8.3575 7.56025 8.38645 7.55078 8.42037C7.54605 8.43751 7.54474 8.4554 7.54693 8.47304C7.54912 8.49068 7.55476 8.50772 7.56354 8.52317C7.57232 8.53863 7.58406 8.5522 7.59808 8.56312C7.61211 8.57403 7.62815 8.58208 7.64529 8.58679L7.68124 8.59158C7.70523 8.59164 7.72879 8.58528 7.74949 8.57315C7.80127 8.54748 7.84896 8.51426 7.891 8.47459C7.92619 8.44043 7.95866 8.40358 7.9881 8.36436C8.01216 8.33809 8.02614 8.30415 8.02755 8.26855C8.02737 8.2327 8.01322 8.19833 7.9881 8.17275C7.96262 8.14748 7.92818 8.1333 7.89229 8.1333L7.85628 8.13815C7.83371 8.14438 7.81315 8.15636 7.7966 8.17292V8.17309Z" fill="#211715"/>
<path d="M8.29322 8.39726C8.28083 8.41659 8.26747 8.43519 8.25344 8.45362L8.27463 8.42623C8.22348 8.49262 8.16431 8.55241 8.09846 8.60426L8.12585 8.58312C8.11571 8.59084 8.10539 8.59834 8.09463 8.60527C8.06473 8.6237 8.04267 8.65248 8.03264 8.68614C8.02331 8.72132 8.02821 8.75875 8.04628 8.79034C8.05524 8.80568 8.06714 8.81911 8.08129 8.82985C8.09544 8.84059 8.11157 8.84844 8.12876 8.85295C8.14594 8.85745 8.16385 8.85853 8.18145 8.85611C8.19906 8.85369 8.21601 8.84783 8.23135 8.83886C8.28666 8.80191 8.33779 8.75905 8.38384 8.71105C8.43751 8.6571 8.48548 8.59776 8.52699 8.53398C8.54509 8.50301 8.55014 8.46612 8.54104 8.43142C8.53194 8.39673 8.50943 8.36707 8.47846 8.34897C8.46286 8.33992 8.44561 8.33406 8.42773 8.33172C8.40984 8.32938 8.39167 8.33061 8.37426 8.33533C8.34074 8.34561 8.31204 8.36762 8.29339 8.39732L8.29322 8.39726Z" fill="#211715"/>
<path d="M11.2779 14.9305C11.3181 14.8897 11.3572 14.8464 11.3952 14.8005C11.7124 14.4176 11.6953 13.9937 11.593 13.5715C11.5061 13.3336 11.2571 13.0629 11.0975 13.0249C10.8813 12.9734 10.7663 12.9915 10.5641 13.0426C10.3134 13.1119 10.0529 13.1389 9.7934 13.1227C9.62773 13.1134 9.46158 13.1269 9.29956 13.1627C9.13049 13.1982 9.05762 13.2985 9.07735 13.456C9.09955 13.6338 9.29956 13.7627 9.52092 13.7835L9.82524 13.8121C9.6953 13.8792 9.56024 13.9358 9.42134 13.9815C9.23182 14.0435 9.04618 14.0968 8.85632 14.1759C8.80738 14.1964 8.76572 14.231 8.73676 14.2755C8.70781 14.3199 8.69289 14.372 8.69396 14.425C8.69343 14.4678 8.70264 14.5101 8.7209 14.5488C8.73917 14.5875 8.766 14.6216 8.79937 14.6483C8.83274 14.6751 8.87177 14.6939 8.9135 14.7034C8.95523 14.7128 8.99856 14.7127 9.04021 14.7029L9.26563 14.6652L9.22934 14.8147C9.21599 14.8637 9.21651 14.9154 9.23087 14.9641C9.24522 15.0128 9.27282 15.0566 9.3106 15.0905C9.44118 15.4561 9.86069 15.5059 10.2081 15.4554C10.6138 15.4063 10.9909 15.2213 11.2779 14.9305Z" fill="white"/>
<path d="M9.5209 13.6482C9.37894 13.6326 9.17313 13.5317 9.21309 13.3732C9.21712 13.3583 9.22464 13.3446 9.23501 13.3332C9.27193 13.3089 9.31397 13.2936 9.35781 13.2885C9.47514 13.2643 9.59474 13.2528 9.71454 13.2541C9.84416 13.2561 9.97073 13.2679 10.1005 13.2577C10.2421 13.2462 10.3827 13.2242 10.5211 13.192C10.627 13.1607 10.7358 13.1398 10.8458 13.1297C10.9374 13.1239 11.0291 13.1403 11.113 13.1776C11.4723 13.3867 11.5807 13.8799 11.5062 14.2623C11.4233 14.6876 11.0508 15.0252 10.6654 15.1916C10.4591 15.2812 10.2374 15.3303 10.0125 15.3364C9.81789 15.3399 9.59106 15.3025 9.47717 15.1264C9.38311 14.9806 9.14884 15.1161 9.24358 15.263C9.53245 15.7108 10.1779 15.6462 10.6161 15.4982C11.1134 15.3306 11.6091 14.9334 11.7495 14.4094C11.8214 14.1409 11.796 13.8593 11.7362 13.5911C11.6818 13.3472 11.4925 13.113 11.291 12.9712C11.0698 12.8154 10.7745 12.8517 10.5279 12.9123C10.3746 12.9525 10.2181 12.9786 10.0601 12.9902C9.90879 12.9992 9.75861 12.9778 9.60746 12.9861C9.33696 13.001 8.96028 13.0431 8.93931 13.3849C8.91931 13.7118 9.23743 13.8877 9.52051 13.9189C9.55631 13.9186 9.5906 13.9043 9.61592 13.879C9.64124 13.8537 9.65555 13.8194 9.65576 13.7836C9.65496 13.748 9.64045 13.714 9.61526 13.6888C9.59006 13.6637 9.55612 13.6491 9.52051 13.6483L9.5209 13.6482Z" fill="#211715"/>
<path d="M9.9655 13.5789C9.77565 13.6949 9.57312 13.7888 9.36188 13.8586C9.25221 13.8943 9.14181 13.9278 9.03276 13.9657C8.92729 13.9936 8.82619 14.036 8.73233 14.0916C8.65109 14.1499 8.59374 14.2356 8.57094 14.3329C8.54814 14.4302 8.56143 14.5325 8.60835 14.6207C8.69768 14.8024 8.88754 14.8603 9.0761 14.8334C9.11057 14.8237 9.13983 14.8008 9.15752 14.7696C9.17521 14.7385 9.17992 14.7016 9.17061 14.667C9.16027 14.633 9.13724 14.6041 9.10627 14.5866C9.07529 14.569 9.03875 14.564 9.00419 14.5726C8.98389 14.5768 8.96291 14.5767 8.94268 14.5721C8.92245 14.5675 8.90346 14.5585 8.88699 14.5459C8.87051 14.5333 8.85696 14.5173 8.84724 14.499C8.83752 14.4807 8.83187 14.4605 8.83067 14.4398C8.80858 14.3045 8.98988 14.2663 9.09273 14.2306C9.26264 14.1716 9.43706 14.125 9.60449 14.059C9.77684 13.9909 9.9432 13.9085 10.1018 13.8127C10.2508 13.723 10.115 13.489 9.96527 13.5791L9.9655 13.5789Z" fill="#211715"/>
<path d="M9.04033 14.838C9.23881 14.8191 9.43415 14.7754 9.6218 14.708C9.8068 14.6466 9.98831 14.5751 10.1655 14.4939C10.1963 14.4756 10.2186 14.4459 10.2277 14.4113C10.2368 14.3766 10.2319 14.3398 10.214 14.3088C10.1954 14.2785 10.1657 14.2565 10.1312 14.2474C10.0968 14.2384 10.0601 14.243 10.029 14.2603C9.99478 14.2759 9.96039 14.2912 9.92578 14.306C9.90544 14.3147 9.92618 14.306 9.91355 14.3112L9.88718 14.322C9.86674 14.3305 9.84621 14.3387 9.82558 14.3469C9.73463 14.3829 9.64273 14.4164 9.54989 14.4473C9.45877 14.4775 9.36668 14.505 9.27341 14.5276C9.23013 14.538 9.18663 14.5475 9.14284 14.5552C9.1336 14.5568 9.12435 14.5583 9.11511 14.5598C9.10694 14.5612 9.08412 14.5641 9.10384 14.5617C9.08265 14.5643 9.06142 14.5663 9.04016 14.5677C9.00455 14.5685 8.97062 14.583 8.94543 14.6082C8.92024 14.6334 8.90572 14.6673 8.90491 14.7029C8.90522 14.7387 8.91956 14.7729 8.94486 14.7982C8.97016 14.8235 9.00438 14.8379 9.04016 14.8382L9.04033 14.838Z" fill="#211715"/>
<path d="M6.89786 16.1712C6.9687 16.1123 7.07194 16.0733 7.23036 16.0343C7.51049 15.9608 7.78572 15.8698 8.05444 15.7618C8.19049 15.7028 8.30483 15.5947 8.44949 15.5621C8.59416 15.5296 8.77106 15.5767 8.8317 15.712C8.8484 15.7559 8.85516 15.8029 8.85147 15.8497C8.84779 15.8965 8.83376 15.9418 8.81039 15.9825C8.71052 16.1294 8.59892 16.2679 8.47671 16.3967L8.4571 16.4163L8.50427 16.4749C8.63293 16.6417 8.85435 16.714 9.0658 16.7211C9.24755 16.7375 9.43069 16.7146 9.60286 16.6541C9.72684 16.6111 9.88464 16.5801 9.97977 16.6111C10.0749 16.642 10.1698 16.7303 10.1736 16.83C10.1756 16.8832 10.1141 16.9777 10.0875 17.0239C10.0286 17.1259 9.8555 17.2191 9.63301 17.298C9.58906 17.4126 9.56336 17.4797 9.56336 17.4797C9.39993 17.9063 8.96498 18.2354 8.44431 18.3247C7.96157 18.4006 7.25442 18.416 7.04878 18.3543C6.99124 18.337 6.8468 18.265 6.78814 18.252C6.67543 18.2271 6.41016 18.2223 6.14518 18.2041C6.14518 18.2041 6.097 18.2007 6.0163 18.1953C6.0722 17.5957 6.12856 16.8173 6.0948 16.377C6.15115 16.3836 6.24566 16.3946 6.24566 16.3946C6.36452 16.4083 6.53358 16.4448 6.6295 16.4357L6.69149 16.4298C6.74556 16.3369 6.81247 16.252 6.89025 16.1778C6.89296 16.1754 6.89544 16.1733 6.89786 16.1712Z" fill="white"/>
<path d="M9.09893 14.7787C9.06275 14.9478 9.11381 15.1436 9.27668 15.2288C9.41437 15.2925 9.57073 15.3034 9.71591 15.2592C9.95888 15.1833 10.1946 15.0859 10.4204 14.9683C10.4511 14.9499 10.4734 14.9203 10.4824 14.8857C10.4915 14.8511 10.4866 14.8143 10.4689 14.7832C10.4502 14.7528 10.4206 14.7308 10.3861 14.7217C10.3516 14.7127 10.315 14.7173 10.2838 14.7347C10.1007 14.826 9.91215 14.9062 9.71929 14.9747C9.64087 15.0078 9.5553 15.0204 9.47065 15.0112C9.46987 15.0112 9.4471 15.006 9.44005 15.0041C9.43122 15.0006 9.42216 14.9976 9.41295 14.9952C9.40889 14.9933 9.3806 14.9727 9.3904 14.9814C9.37851 14.9711 9.38359 14.9754 9.37829 14.9675C9.35711 14.9324 9.35036 14.8905 9.35947 14.8506C9.36816 14.8161 9.3632 14.7795 9.34561 14.7485C9.32801 14.7175 9.29915 14.6945 9.26501 14.6843C9.23044 14.6751 9.19365 14.6798 9.16254 14.6975C9.13143 14.7152 9.1085 14.7443 9.09865 14.7787H9.09893Z" fill="#211715"/>
<path d="M6.14535 18.339C6.31137 18.3503 6.47785 18.3549 6.64381 18.3686C6.73282 18.3774 6.81966 18.4013 6.90057 18.4394C7.09218 18.5212 7.29545 18.5266 7.50166 18.5274C7.77735 18.5285 8.05283 18.5116 8.3263 18.4767C8.60914 18.4478 8.8816 18.3545 9.12277 18.204C9.38045 18.0398 9.58021 17.7991 9.69394 17.5155C9.70321 17.4809 9.69851 17.4441 9.68083 17.413C9.66315 17.3818 9.63393 17.3589 9.59948 17.3492C9.56493 17.3405 9.52835 17.3454 9.49736 17.363C9.46637 17.3806 9.44336 17.4095 9.43312 17.4436C9.25279 17.9021 8.77067 18.1501 8.30602 18.2087C8.0457 18.2412 7.7836 18.2573 7.52127 18.257C7.41487 18.257 7.30802 18.2548 7.20201 18.2445C7.19339 18.2437 7.13901 18.2365 7.16572 18.2406C7.14927 18.2381 7.13281 18.2353 7.11652 18.2317C7.08369 18.2237 7.05163 18.2128 7.02072 18.1991C6.96208 18.1712 6.90186 18.1467 6.84038 18.1258C6.78222 18.1114 6.72281 18.1027 6.66298 18.0997C6.4907 18.0843 6.31746 18.0801 6.14496 18.0685C6.10909 18.0685 6.07468 18.0827 6.04932 18.1081C6.02395 18.1335 6.0097 18.1679 6.0097 18.2037C6.0097 18.2396 6.02395 18.274 6.04932 18.2994C6.07468 18.3247 6.10909 18.339 6.14496 18.339H6.14535Z" fill="#211715"/>
<path d="M8.40878 16.5702C8.57334 16.7746 8.83934 16.8492 9.09192 16.8568C9.22156 16.8634 9.35151 16.8543 9.47897 16.8297C9.60233 16.8035 9.71927 16.7448 9.84607 16.735C9.89108 16.727 9.93746 16.7352 9.97704 16.7581C9.99549 16.769 10.0116 16.7835 10.0243 16.8007C10.0282 16.8064 10.0404 16.8405 10.0401 16.8208C10.0407 16.8565 9.99969 16.9063 9.98138 16.9373C9.97811 16.9429 9.95545 16.9781 9.96419 16.9666C9.97518 16.9521 9.96058 16.9706 9.95743 16.9737C9.95049 16.9803 9.94396 16.9874 9.93697 16.994C9.93843 16.9927 9.90845 17.0186 9.92209 17.0075C9.93393 16.998 9.91189 17.015 9.90936 17.0167C9.89363 17.0274 9.8778 17.0379 9.86145 17.0477C9.8198 17.0724 9.77671 17.0946 9.7324 17.1142C9.63676 17.1554 9.53853 17.1903 9.43834 17.2187C9.17854 17.2955 8.91315 17.3518 8.64457 17.3872C8.60906 17.3883 8.57531 17.4029 8.55018 17.428C8.52506 17.4531 8.51045 17.4869 8.50932 17.5224C8.50932 17.5879 8.57165 17.6675 8.64457 17.6577C8.91986 17.6228 9.19229 17.5681 9.45975 17.4942C9.66973 17.4345 9.89622 17.3637 10.0725 17.2305C10.1494 17.1704 10.2114 17.0935 10.2539 17.0057C10.2923 16.9441 10.3093 16.8715 10.302 16.7992C10.2947 16.727 10.2637 16.6592 10.2138 16.6065C10.1648 16.5537 10.1038 16.5135 10.036 16.4891C9.96827 16.4647 9.89565 16.457 9.82426 16.4664C9.67537 16.4811 9.54175 16.5417 9.39652 16.571C9.25378 16.5978 9.10744 16.5996 8.96411 16.5761C8.82222 16.5586 8.69219 16.4882 8.60005 16.3788C8.57457 16.3537 8.54021 16.3396 8.50442 16.3396C8.46862 16.3396 8.43426 16.3537 8.40878 16.3788C8.38416 16.4046 8.37042 16.4389 8.37042 16.4745C8.37042 16.5101 8.38416 16.5444 8.40878 16.5702Z" fill="#211715"/>
<path d="M6.77817 16.5456C6.83227 16.4488 6.89931 16.3598 6.97744 16.2811C7.00286 16.2605 7.0307 16.2431 7.06034 16.2293C7.10334 16.2108 7.14771 16.1957 7.19306 16.1842C7.4293 16.1176 7.66701 16.0534 7.8975 15.9691C8.013 15.9304 8.12462 15.881 8.2309 15.8215C8.31543 15.771 8.40284 15.7021 8.50354 15.689C8.5366 15.683 8.57059 15.6846 8.60295 15.6936C8.63532 15.7026 8.66522 15.7188 8.69042 15.7411C8.74035 15.7965 8.71482 15.8814 8.6796 15.9378C8.59326 16.0692 8.49313 16.1909 8.38092 16.301C8.25857 16.425 8.44973 16.6166 8.57219 16.4923C8.6968 16.3672 8.80896 16.2303 8.9071 16.0836C9.05763 15.8542 8.98679 15.552 8.72513 15.4505C8.61119 15.4083 8.48629 15.4059 8.37083 15.4438C8.24527 15.4853 8.14276 15.567 8.02621 15.6262C7.77262 15.7548 7.47957 15.824 7.20686 15.9004C7.08007 15.9359 6.94763 15.9672 6.83948 16.0466C6.71229 16.1402 6.62759 16.278 6.54435 16.4094C6.45086 16.5569 6.68485 16.6927 6.77789 16.5459L6.77817 16.5456Z" fill="#211715"/>
<path d="M6.24582 16.5294C6.25484 16.5304 6.26385 16.5315 6.27281 16.5327L6.23686 16.5279C6.30088 16.5365 6.36456 16.5474 6.42847 16.5561C6.49476 16.5682 6.56219 16.573 6.62954 16.5704C6.66524 16.5695 6.69935 16.5555 6.72535 16.531C6.73796 16.5184 6.74796 16.5035 6.75479 16.487C6.76161 16.4706 6.76513 16.453 6.76513 16.4352C6.76513 16.4174 6.76161 16.3998 6.75479 16.3833C6.74796 16.3669 6.73796 16.3519 6.72535 16.3394C6.71285 16.3267 6.69793 16.3167 6.68146 16.3099C6.665 16.3031 6.64734 16.2997 6.62954 16.2999C6.57432 16.3028 6.51895 16.2996 6.46442 16.2904L6.50038 16.2953C6.41539 16.284 6.33092 16.2688 6.24571 16.2588C6.22792 16.2587 6.2103 16.2622 6.19386 16.2689C6.17742 16.2757 6.16248 16.2857 6.1499 16.2982C6.12454 16.3236 6.11029 16.358 6.11029 16.3939C6.11029 16.4297 6.12454 16.4641 6.1499 16.4895L6.17729 16.5106C6.198 16.5227 6.22155 16.5291 6.24554 16.5291L6.24582 16.5294Z" fill="#211715"/>
<path d="M3.09391 15.8005C3.60313 15.9173 4.12448 15.9589 4.64063 16.0332C5.06927 16.0949 5.50017 16.1154 5.93061 16.1592C5.9664 16.159 6.00066 16.1446 6.02597 16.1193C6.05128 16.094 6.06561 16.0598 6.06586 16.024C6.06508 15.9883 6.05059 15.9544 6.02539 15.9292C6.00019 15.904 5.96624 15.8895 5.93061 15.8887C5.51606 15.8466 5.10061 15.8281 4.6878 15.7688C4.17982 15.6955 3.66693 15.6546 3.16581 15.5396C2.99635 15.5007 2.92399 15.7615 3.09391 15.8005Z" fill="#211715"/>
<path d="M5.9354 16.1593C5.89933 16.1332 5.91427 16.1432 5.92413 16.1531C5.89629 16.1254 5.90936 16.1352 5.91894 16.1502C5.93444 16.1743 5.91832 16.1474 5.91821 16.1469C5.92058 16.1574 5.92554 16.1679 5.92858 16.1782C5.93526 16.202 5.94072 16.2261 5.94492 16.2505C5.94729 16.2636 5.94926 16.2768 5.95129 16.2899C5.95428 16.3095 5.94836 16.2654 5.95067 16.2857C5.95174 16.295 5.95287 16.3042 5.95383 16.3134C5.96848 16.4729 5.97356 16.6331 5.96904 16.7932C5.96341 17.2043 5.93247 17.6152 5.89651 18.0247C5.87882 18.2259 5.85934 18.4269 5.83807 18.6277C5.8383 18.6635 5.85262 18.6977 5.87793 18.7231C5.90325 18.7484 5.93752 18.7627 5.97333 18.7629C6.00895 18.7621 6.04291 18.7476 6.06811 18.7224C6.0933 18.6973 6.1078 18.6633 6.10858 18.6277C6.15073 18.2263 6.18748 17.8242 6.21317 17.4217C6.23662 17.0505 6.26536 16.6676 6.22247 16.2968C6.20703 16.1632 6.18894 16.0105 6.07178 15.9258C6.04075 15.908 6.00395 15.9031 5.96933 15.9122C5.93471 15.9213 5.90505 15.9436 5.88676 15.9743C5.86943 16.0055 5.86479 16.0421 5.87384 16.0766C5.88288 16.1111 5.90489 16.1408 5.93529 16.1594L5.9354 16.1593Z" fill="#211715"/>
</g>
<defs>
<clipPath id="clip0_1612_173">
<rect width="20" height="20" fill="white"/>
</clipPath>
</defs>
</svg>
