<svg width="22" height="22" viewBox="0 0 22 22" fill="none" xmlns="http://www.w3.org/2000/svg">
<g clip-path="url(#clip0_1397_265)">
<path d="M18.7 0H3.3C1.47746 0 0 1.47746 0 3.3V18.7C0 20.5225 1.47746 22 3.3 22H18.7C20.5225 22 22 20.5225 22 18.7V3.3C22 1.47746 20.5225 0 18.7 0Z" fill="white"/>
<path d="M6.78906 16.8008V10.6992L3.26562 7.99219V15.5117C3.26562 16.3711 3.69531 16.8008 4.55469 16.8008" fill="#4285F4"/>
<path d="M6.61719 10.6562L11 13.9648L15.3828 10.6562V6.44531L11 9.75391L6.61719 6.44531" fill="#EA4335"/>
<path d="M15.2109 16.8008V10.6992L18.7344 7.99219V15.5117C18.7344 16.3711 18.3047 16.8008 17.4453 16.8008" fill="#34A853"/>
<path d="M3.26562 8.07803L6.78906 10.7851V6.57412L5.5 5.58584C4.33984 4.6835 3.26562 5.58584 3.26562 6.70303" fill="#C5221F"/>
<path d="M18.7344 8.07803L15.2109 10.7851V6.57412L16.5 5.58584C17.6602 4.6835 18.7344 5.58584 18.7344 6.70303" fill="#FBBC04"/>
</g>
<defs>
<clipPath id="clip0_1397_265">
<rect width="22" height="22" fill="white"/>
</clipPath>
</defs>
</svg>
