<svg width="46" height="58" viewBox="0 0 46 58" fill="none" xmlns="http://www.w3.org/2000/svg">
<path d="M46 0H0V58H46V0Z" fill="#D6D6EA"/>
<path d="M44 2H2V56H44V2Z" fill="#E7ECED"/>
<path d="M23 53C22.448 53 22 52.552 22 52V50C22 49.448 22.448 49 23 49C23.552 49 24 49.448 24 50V52C24 52.552 23.552 53 23 53ZM23 44C22.448 44 22 43.552 22 43V41C22 40.448 22.448 40 23 40C23.552 40 24 40.448 24 41V43C24 43.552 23.552 44 23 44ZM23 35C22.448 35 22 34.552 22 34V32C22 31.448 22.448 31 23 31C23.552 31 24 31.448 24 32V34C24 34.552 23.552 35 23 35ZM23 26C22.448 26 22 25.552 22 25V23C22 22.448 22.448 22 23 22C23.552 22 24 22.448 24 23V25C24 25.552 23.552 26 23 26ZM23 17C22.448 17 22 16.552 22 16V14C22 13.448 22.448 13 23 13C23.552 13 24 13.448 24 14V16C24 16.552 23.552 17 23 17ZM23 8C22.448 8 22 7.552 22 7V5C22 4.448 22.448 4 23 4C23.552 4 24 4.448 24 5V7C24 7.552 23.552 8 23 8Z" fill="white"/>
<path d="M11 3.99996H8.00001C5.81701 3.97796 4.02301 5.74596 4.00001 7.92896C3.97801 10.113 5.81601 11.978 8.00001 12H11V3.99996Z" fill="#57ABC1"/>
<path d="M11 18H8.00001C5.81701 17.978 4.02301 19.746 4.00001 21.929C3.97801 24.113 5.81601 25.978 8.00001 26H11V18Z" fill="#57ABC1"/>
<path d="M11 32H8.00001C5.81701 31.978 4.02301 33.746 4.00001 35.929C3.97801 38.113 5.81601 39.978 8.00001 40H11V32Z" fill="#57ABC1"/>
<path d="M11 46H8.00001C5.81701 45.978 4.02301 47.746 4.00001 49.929C3.97801 52.113 5.81601 53.978 8.00001 54H11V46Z" fill="#57ABC1"/>
<path d="M35 3.99996H32C29.817 3.97796 28.023 5.74596 28 7.92896C27.978 10.113 29.816 11.978 32 12H35V3.99996Z" fill="#57ABC1"/>
<path d="M35 18H32C29.817 17.978 28.023 19.746 28 21.929C27.978 24.113 29.816 25.978 32 26H35V18Z" fill="#57ABC1"/>
<path d="M35 32H32C29.817 31.978 28.023 33.746 28 35.929C27.978 38.113 29.816 39.978 32 40H35V32Z" fill="#57ABC1"/>
<path d="M35 46H32C29.817 45.978 28.023 47.746 28 49.929C27.978 52.113 29.816 53.978 32 54H35V46Z" fill="#57ABC1"/>
<path d="M14 4H11V12H14C16.183 12.022 17.977 10.254 18 8.071C18.022 5.887 16.184 4.022 14 4Z" fill="#EBBA16"/>
<path d="M14 18H11V26H14C16.183 26.022 17.977 24.254 18 22.071C18.022 19.887 16.184 18.022 14 18Z" fill="#EBBA16"/>
<path d="M14 32H11V40H14C16.183 40.022 17.977 38.254 18 36.071C18.022 33.887 16.184 32.022 14 32Z" fill="#EBBA16"/>
<path d="M14 46H11V54H14C16.183 54.022 17.977 52.254 18 50.071C18.022 47.887 16.184 46.022 14 46Z" fill="#EBBA16"/>
<path d="M38 4H35V12H38C40.183 12.022 41.977 10.254 42 8.071C42.022 5.887 40.184 4.022 38 4Z" fill="#EBBA16"/>
<path d="M38 18H35V26H38C40.183 26.022 41.977 24.254 42 22.071C42.022 19.887 40.184 18.022 38 18Z" fill="#EBBA16"/>
<path d="M38 32H35V40H38C40.183 40.022 41.977 38.254 42 36.071C42.022 33.887 40.184 32.022 38 32Z" fill="#EBBA16"/>
<path d="M38 46H35V54H38C40.183 54.022 41.977 52.254 42 50.071C42.022 47.887 40.184 46.022 38 46Z" fill="#EBBA16"/>
<path d="M15 48H11V50H15C15.55 50 16 49.55 16 49C16 48.45 15.55 48 15 48Z" fill="#EFCE4A"/>
<path d="M7 50H11V48H7C6.45 48 6 48.45 6 49C6 49.55 6.45 50 7 50Z" fill="#9CF7D4"/>
<path d="M15 34H11V36H15C15.55 36 16 35.55 16 35C16 34.45 15.55 34 15 34Z" fill="#EFCE4A"/>
<path d="M7 36H11V34H7C6.45 34 6 34.45 6 35C6 35.55 6.45 36 7 36Z" fill="#9CF7D4"/>
<path d="M15 20H11V22H15C15.55 22 16 21.55 16 21C16 20.45 15.55 20 15 20Z" fill="#EFCE4A"/>
<path d="M7 22H11V20H7C6.45 20 6 20.45 6 21C6 21.55 6.45 22 7 22Z" fill="#9CF7D4"/>
<path d="M15 6H11V8H15C15.55 8 16 7.55 16 7C16 6.45 15.55 6 15 6Z" fill="#EFCE4A"/>
<path d="M7 8H11V6H7C6.45 6 6 6.45 6 7C6 7.55 6.45 8 7 8Z" fill="#9CF7D4"/>
<path d="M39 48H35V50H39C39.55 50 40 49.55 40 49C40 48.45 39.55 48 39 48Z" fill="#EFCE4A"/>
<path d="M31 50H35V48H31C30.45 48 30 48.45 30 49C30 49.55 30.45 50 31 50Z" fill="#9CF7D4"/>
<path d="M39 34H35V36H39C39.55 36 40 35.55 40 35C40 34.45 39.55 34 39 34Z" fill="#EFCE4A"/>
<path d="M31 36H35V34H31C30.45 34 30 34.45 30 35C30 35.55 30.45 36 31 36Z" fill="#9CF7D4"/>
<path d="M39 20H35V22H39C39.55 22 40 21.55 40 21C40 20.45 39.55 20 39 20Z" fill="#EFCE4A"/>
<path d="M31 22H35V20H31C30.45 20 30 20.45 30 21C30 21.55 30.45 22 31 22Z" fill="#9CF7D4"/>
<path d="M39 6H35V8H39C39.55 8 40 7.55 40 7C40 6.45 39.55 6 39 6Z" fill="#EFCE4A"/>
<path d="M31 8H35V6H31C30.45 6 30 6.45 30 7C30 7.55 30.45 8 31 8Z" fill="#9CF7D4"/>
</svg>
