<svg width="20" height="20" viewBox="0 0 20 20" fill="none" xmlns="http://www.w3.org/2000/svg">
<path d="M16.8375 5.04367C15.9034 4.14656 14.6576 3.64691 13.3625 3.64992C12.1028 3.66397 10.8975 4.16579 10 5.04992C9.05061 4.17066 7.7973 3.69372 6.50354 3.71936C5.20978 3.74501 3.97635 4.27123 3.06252 5.18742C2.60532 5.65086 2.24415 6.20003 1.99974 6.80343C1.75534 7.40682 1.63251 8.05254 1.63832 8.70352C1.64413 9.35451 1.77845 9.99794 2.03358 10.5969C2.28871 11.1958 2.65962 11.7385 3.12502 12.1937L3.37502 12.4187C3.39661 12.4561 3.42404 12.4899 3.45627 12.5187L9.63752 18.5687C9.75394 18.6841 9.91106 18.7492 10.075 18.7499C10.2399 18.7476 10.3971 18.6802 10.5125 18.5624L11.5 17.5562C11.5583 17.4958 11.6039 17.4242 11.634 17.3459C11.664 17.2675 11.678 17.1838 11.675 17.0999C11.6731 17.0148 11.6538 16.931 11.6183 16.8536C11.5829 16.7762 11.532 16.7069 11.4688 16.6499C11.1936 16.396 10.976 16.0862 10.8305 15.7412C10.685 15.3963 10.6149 15.0242 10.625 14.6499C10.6286 14.1067 10.7941 13.5769 11.1003 13.1282C11.4066 12.6796 11.8396 12.3324 12.3442 12.1311C12.8487 11.9298 13.4018 11.8836 13.9328 11.9982C14.4638 12.1129 14.9485 12.3833 15.325 12.7749C15.3824 12.8351 15.4512 12.8832 15.5274 12.9165C15.6036 12.9498 15.6856 12.9675 15.7688 12.9687C15.8515 12.9683 15.9333 12.9516 16.0094 12.9194C16.0856 12.8872 16.1546 12.8402 16.2125 12.7812L16.5938 12.3937C16.662 12.3251 16.7133 12.2417 16.7438 12.1499L16.925 11.9749C17.8314 11.0436 18.3312 9.79067 18.3148 8.49119C18.2984 7.19172 17.7671 5.95183 16.8375 5.04367Z" fill="#FFC10D"/>
<path d="M13.3187 11.9248C12.602 11.9346 11.9178 12.2259 11.4139 12.7357C10.9099 13.2455 10.6266 13.933 10.625 14.6498C10.6315 15.3711 10.9205 16.0611 11.4299 16.5717C11.9394 17.0823 12.6287 17.3729 13.35 17.3811C14.0744 17.3811 14.7691 17.0933 15.2813 16.5811C15.7935 16.0689 16.0812 15.3742 16.0812 14.6498C16.0796 13.9265 15.7911 13.2334 15.2791 12.7226C14.767 12.2117 14.0733 11.9248 13.35 11.9248H13.3187Z" fill="#194F82"/>
<path d="M16.1938 11.8749C15.8195 11.5092 15.3769 11.2209 14.8912 11.0263C14.4055 10.8317 13.8862 10.7347 13.363 10.7407C12.8398 10.7468 12.3229 10.8559 11.8419 11.0618C11.3609 11.2676 10.9251 11.5662 10.5594 11.9405C10.1938 12.3147 9.90542 12.7574 9.71083 13.2431C9.51624 13.7288 9.41923 14.2481 9.42532 14.7713C9.43141 15.2945 9.5405 15.8113 9.74635 16.2924C9.9522 16.7734 10.2508 17.2092 10.625 17.5749C11.352 18.2589 12.3143 18.6371 13.3125 18.6311C14.3679 18.6295 15.3796 18.2095 16.1259 17.4632C16.8722 16.7169 17.2921 15.7052 17.2938 14.6499C17.3069 13.6161 16.9116 12.6189 16.1938 11.8749ZM13.3188 17.3561C12.6073 17.3401 11.9295 17.0494 11.4274 16.545C10.9253 16.0406 10.6378 15.3615 10.625 14.6499C10.6267 13.9276 10.9143 13.2355 11.425 12.7248C11.9357 12.2141 12.6278 11.9265 13.35 11.9249C14.0733 11.9249 14.7671 12.2117 15.2791 12.7226C15.7912 13.2335 16.0796 13.9266 16.0813 14.6499C16.0813 15.0112 16.0097 15.3689 15.8704 15.7023C15.7312 16.0358 15.5273 16.3382 15.2703 16.5923C15.0134 16.8463 14.7086 17.0468 14.3736 17.1822C14.0386 17.3176 13.6801 17.3852 13.3188 17.3811V17.3561Z" fill="#194F82"/>
<path d="M15.125 13.3875C15.073 13.3238 15.0089 13.2709 14.9364 13.232C14.8639 13.1931 14.7844 13.1689 14.7025 13.1608C14.6207 13.1526 14.538 13.1608 14.4593 13.1847C14.3805 13.2086 14.3073 13.2478 14.2437 13.3L12.6062 14.6375L12.35 14.3188C12.2456 14.1895 12.0941 14.107 11.9288 14.0894C11.7635 14.0718 11.598 14.1206 11.4687 14.225C11.3395 14.3295 11.2569 14.481 11.2394 14.6462C11.2218 14.8115 11.2706 14.977 11.375 15.1063L12 15.9125C12.0519 15.9774 12.1162 16.0312 12.1892 16.071C12.2622 16.1107 12.3423 16.1354 12.425 16.1438H12.5C12.6449 16.1434 12.7855 16.095 12.9 16.0063L15.025 14.2688C15.0897 14.2177 15.1436 14.1542 15.1836 14.0822C15.2237 14.0101 15.2491 13.9309 15.2584 13.849C15.2677 13.7671 15.2607 13.6841 15.2378 13.6049C15.2149 13.5257 15.1766 13.4518 15.125 13.3875Z" fill="#FFC10D"/>
</svg>
