<svg width="24" height="24" viewBox="0 0 24 24" fill="none" xmlns="http://www.w3.org/2000/svg">
<path d="M11.625 6.125C11.625 8.058 10.058 9.625 8.125 9.625C6.192 9.625 4.625 8.058 4.625 6.125C4.625 4.192 6.192 2.625 8.125 2.625C10.058 2.625 11.625 4.192 11.625 6.125ZM6.35501 6.125C6.35501 7.10254 7.14746 7.89498 8.125 7.89498C9.10254 7.89498 9.89498 7.10254 9.89498 6.125C9.89498 5.14746 9.10254 4.35502 8.125 4.35502C7.14746 4.35502 6.35501 5.14746 6.35501 6.125Z" fill="#9775FA"/>
<path fill-rule="evenodd" clip-rule="evenodd" d="M4.07517 12.4581C5.10075 11.715 6.46032 11.375 8.125 11.375C9.78968 11.375 11.1493 11.715 12.1748 12.4581C13.2164 13.2128 13.805 14.3042 14.0706 15.5819C14.4085 17.2066 12.9994 18.375 11.625 18.375H4.625C3.25057 18.375 1.84152 17.2066 2.17934 15.5819C2.44503 14.3042 3.03354 13.2128 4.07517 12.4581ZM5.10197 13.8752C4.49284 14.3166 4.09189 14.9803 3.8927 15.9382C3.85872 16.1016 3.90416 16.2513 4.0285 16.382C4.16161 16.5221 4.37752 16.625 4.625 16.625H11.625C11.8724 16.625 12.0884 16.5221 12.2215 16.382C12.3458 16.2513 12.3912 16.1016 12.3573 15.9382C12.1581 14.9803 11.7571 14.3166 11.148 13.8752C10.5228 13.4222 9.57037 13.125 8.125 13.125C6.67963 13.125 5.72716 13.4222 5.10197 13.8752Z" fill="#9775FA"/>
<path d="M20.375 6.125C20.375 8.058 18.808 9.625 16.875 9.625C14.942 9.625 13.375 8.058 13.375 6.125C13.375 4.192 14.942 2.625 16.875 2.625C18.808 2.625 20.375 4.192 20.375 6.125ZM15.105 6.125C15.105 7.10254 15.8974 7.89498 16.875 7.89498C17.8526 7.89498 18.645 7.10254 18.645 6.125C18.645 5.14746 17.8526 4.35502 16.875 4.35502C15.8974 4.35502 15.105 5.14746 15.105 6.125Z" fill="#9775FA"/>
<path d="M14.7191 11.6103C14.1929 11.7394 14.0092 12.3522 14.3066 12.8051L14.3441 12.8621C14.5644 13.1975 14.9841 13.3341 15.378 13.2563C15.8064 13.1717 16.302 13.125 16.875 13.125C18.3204 13.125 19.2729 13.4222 19.898 13.8752C20.5072 14.3166 20.9081 14.9803 21.1073 15.9382C21.1413 16.1016 21.0958 16.2513 20.9715 16.382C20.8384 16.5221 20.6225 16.625 20.375 16.625H16C15.5168 16.625 15.125 17.0167 15.125 17.5C15.125 17.9833 15.5168 18.375 16 18.375H20.375C21.7495 18.375 23.1585 17.2066 22.8207 15.5819C22.555 14.3042 21.9665 13.2128 20.9249 12.4581C19.8993 11.715 18.5397 11.375 16.875 11.375C16.087 11.375 15.3673 11.4512 14.7191 11.6103Z" fill="#9775FA"/>
</svg>
