<svg width="365" height="331" viewBox="0 0 365 331" fill="none" xmlns="http://www.w3.org/2000/svg">
<g clip-path="url(#clip0_1211_1132)">
<path d="M38.0602 264.795C30.1549 264.795 22.5095 261.198 16.5015 254.652C14.4973 252.466 12.3618 248.666 10.1545 243.358C8.74588 239.939 7.95692 236.161 7.84565 232.302C7.73438 228.444 8.30364 224.602 9.51153 221.061C8.34722 222.57 7.05941 223.915 5.67013 225.075L4.96783 225.67L4.92725 224.597C4.90063 223.9 4.88715 223.204 4.88715 222.53C4.88715 218.56 7.24437 214.53 6.15724 210.86C1.57525 195.391 -12.9577 180.017 8.10496 156.076C10.0534 153.862 7.4506 149.434 7.4506 146.083C7.4506 113.245 35.4555 63.9846 54.203 86.529C65.1461 99.6883 87.9453 109.037 98.5902 127.341L98.7312 127.883L98.3158 128.097C96.1889 129.236 93.9487 129.995 91.6588 130.353C94.1001 130.987 96.5915 131.253 99.0816 131.145L99.4677 131.128L99.5618 131.606C100.488 136.341 100.956 141.203 100.956 146.083L100.954 146.611C100.945 150.317 101.55 153.984 102.728 157.373C103.907 160.762 105.633 163.797 107.793 166.279C111.206 170.244 113.933 175.071 115.801 180.452C117.668 185.834 118.635 191.653 118.64 197.537C118.64 204.499 114.927 213.637 111.811 220.077C111.022 221.718 109.951 223.109 108.679 224.147C107.407 225.185 105.967 225.843 104.467 226.07C103.047 226.299 101.604 226.126 100.242 225.565C98.8791 225.005 97.6299 224.069 96.5826 222.825C98.0572 226.603 99.9789 230.069 102.28 233.103L102.705 233.661L102.178 234.052C97.1056 237.821 91.339 239.805 85.4678 239.802L85.1239 239.801C76.2101 239.801 67.7492 244.2 61.9106 251.872C58.8106 255.941 55.1041 259.179 51.0085 261.398C46.9129 263.618 42.5107 264.772 38.0602 264.795Z" fill="#E6E6E6"/>
<path d="M26.3623 331C26.2188 331 26.0801 330.934 25.9717 330.814C25.8634 330.694 25.7926 330.528 25.7724 330.347C25.7471 330.12 23.2645 307.308 25.4941 276.99C27.5532 248.991 34.1658 208.662 53.9746 175.54C54.022 175.461 54.0813 175.394 54.1491 175.343C54.2168 175.293 54.2917 175.26 54.3694 175.247C54.4471 175.233 54.5261 175.24 54.6019 175.265C54.6777 175.291 54.7488 175.335 54.8112 175.395C54.8736 175.456 54.926 175.532 54.9654 175.618C55.0048 175.704 55.0305 175.8 55.0409 175.899C55.0513 175.998 55.0464 176.098 55.0262 176.195C55.0061 176.292 54.9713 176.382 54.9237 176.462C35.286 209.297 28.7267 249.33 26.6821 277.132C24.4654 307.274 26.9285 329.908 26.9537 330.133C26.9656 330.241 26.9593 330.351 26.9351 330.455C26.9108 330.559 26.8693 330.656 26.8132 330.738C26.7571 330.82 26.6879 330.886 26.6101 330.932C26.5323 330.977 26.4478 331 26.3623 331Z" fill="#3F3D56"/>
<path d="M44.4493 221.422C44.3233 221.422 44.2005 221.371 44.0985 221.277C43.9965 221.182 43.9206 221.049 43.8816 220.897C43.8426 220.744 43.8425 220.58 43.8814 220.427C43.9203 220.274 43.9962 220.141 44.0981 220.047C49.7425 215.179 55.8399 211.224 62.2502 208.274C72.2651 203.602 87.4941 199.368 103.172 205.725C103.247 205.755 103.316 205.804 103.376 205.868C103.436 205.932 103.485 206.011 103.521 206.1C103.557 206.189 103.579 206.285 103.586 206.385C103.592 206.484 103.583 206.584 103.56 206.68C103.536 206.775 103.498 206.863 103.447 206.939C103.397 207.015 103.335 207.078 103.265 207.124C103.196 207.17 103.12 207.198 103.042 207.206C102.964 207.215 102.885 207.204 102.81 207.173C87.4535 200.947 72.5005 205.111 62.6605 209.701C56.3532 212.601 50.3536 216.49 44.7996 221.276C44.6978 221.371 44.5752 221.422 44.4493 221.422Z" fill="#3F3D56"/>
<path d="M284.42 264.795C276.515 264.795 268.869 261.198 262.861 254.652C260.857 252.466 258.721 248.666 256.514 243.358C255.106 239.939 254.317 236.161 254.205 232.302C254.094 228.444 254.663 224.602 255.871 221.061C254.707 222.57 253.419 223.915 252.03 225.075L251.327 225.67L251.287 224.597C251.26 223.9 251.247 223.204 251.247 222.53C251.247 218.56 253.604 214.53 252.517 210.86C247.935 195.391 233.402 180.017 254.465 156.076C256.413 153.862 253.81 149.434 253.81 146.083C253.81 113.245 290.238 56.4335 300.563 86.529C313.295 123.644 335.232 119.674 344.95 127.341L345.091 127.883L344.675 128.097C342.549 129.236 340.308 129.995 338.018 130.353C340.46 130.987 342.951 131.253 345.441 131.145L345.827 131.128L345.921 131.606C346.848 136.341 347.316 141.203 347.315 146.083L347.313 146.611C347.305 150.317 347.909 153.984 349.088 157.373C350.266 160.762 351.992 163.797 354.153 166.279C357.566 170.244 360.293 175.071 362.16 180.452C364.028 185.834 364.995 191.653 365 197.537C365 204.499 361.286 213.637 358.171 220.077C357.381 221.718 356.31 223.109 355.038 224.147C353.767 225.185 352.327 225.842 350.827 226.07C349.406 226.299 347.964 226.126 346.601 225.565C345.239 225.005 343.99 224.069 342.942 222.825C344.417 226.603 346.339 230.069 348.64 233.103L349.065 233.661L348.537 234.052C343.465 237.821 337.699 239.805 331.827 239.802L331.484 239.801C322.57 239.801 314.109 244.2 308.27 251.872C305.17 255.941 301.464 259.179 297.368 261.398C293.273 263.618 288.87 264.772 284.42 264.795Z" fill="#E6E6E6"/>
<path d="M272.722 331C272.578 331 272.44 330.934 272.331 330.814C272.223 330.694 272.152 330.528 272.132 330.347C272.107 330.12 269.624 307.308 271.854 276.99C273.913 248.991 280.525 208.662 300.334 175.54C300.382 175.461 300.441 175.394 300.509 175.343C300.576 175.293 300.651 175.26 300.729 175.247C300.807 175.233 300.886 175.24 300.962 175.265C301.037 175.291 301.109 175.335 301.171 175.395C301.233 175.456 301.286 175.532 301.325 175.618C301.364 175.704 301.39 175.8 301.401 175.899C301.411 175.998 301.406 176.098 301.386 176.195C301.366 176.292 301.331 176.382 301.283 176.462C281.646 209.297 275.086 249.33 273.042 277.132C270.825 307.274 273.288 329.908 273.313 330.133C273.325 330.241 273.319 330.351 273.295 330.455C273.271 330.559 273.229 330.656 273.173 330.738C273.117 330.82 273.048 330.886 272.97 330.932C272.892 330.977 272.807 331 272.722 331Z" fill="#3F3D56"/>
<path d="M289.172 222.986C289.046 222.986 288.923 222.935 288.821 222.841C288.719 222.747 288.643 222.614 288.604 222.461C288.565 222.308 288.565 222.144 288.604 221.991C288.643 221.838 288.719 221.705 288.821 221.611C294.465 216.743 300.563 212.789 306.973 209.838C316.988 205.167 332.217 200.932 347.895 207.289C347.97 207.319 348.039 207.368 348.099 207.432C348.159 207.497 348.208 207.575 348.244 207.664C348.28 207.753 348.302 207.85 348.308 207.949C348.315 208.048 348.306 208.149 348.282 208.244C348.259 208.339 348.22 208.427 348.17 208.503C348.119 208.58 348.058 208.642 347.988 208.688C347.918 208.734 347.842 208.762 347.764 208.771C347.686 208.779 347.608 208.768 347.533 208.737C332.176 202.511 317.223 206.676 307.383 211.266C301.076 214.166 295.076 218.054 289.522 222.841C289.421 222.935 289.298 222.986 289.172 222.986Z" fill="#3F3D56"/>
<path d="M261.868 136.343C261.858 136.183 261.889 136.023 261.956 135.887C262.022 135.75 262.121 135.644 262.238 135.584C262.354 135.523 262.483 135.511 262.606 135.55C262.728 135.588 262.838 135.675 262.919 135.798C267.136 142.62 270.671 150.083 273.442 158.017C277.821 170.407 282.233 189.454 278.385 209.835C278.367 209.932 278.333 210.024 278.287 210.105C278.241 210.185 278.183 210.254 278.116 210.306C278.05 210.358 277.975 210.393 277.898 210.409C277.821 210.424 277.741 210.42 277.665 210.397C277.589 210.374 277.517 210.331 277.454 210.273C277.39 210.214 277.337 210.14 277.296 210.055C277.255 209.969 277.228 209.875 277.215 209.776C277.203 209.677 277.206 209.577 277.225 209.48C280.994 189.516 276.656 170.815 272.354 158.641C269.63 150.835 266.154 143.491 262.007 136.778C261.925 136.655 261.877 136.503 261.868 136.343Z" fill="#3F3D56"/>
<path d="M16.7357 131.65C16.7266 131.49 16.7574 131.331 16.8239 131.194C16.8904 131.058 16.989 130.952 17.1057 130.891C17.2225 130.831 17.3512 130.819 17.4736 130.857C17.5959 130.896 17.7056 130.982 17.7868 131.105C22.004 137.927 25.539 145.391 28.3105 153.324C32.6887 165.714 37.1007 184.762 33.2529 205.143C33.2346 205.24 33.2015 205.331 33.1555 205.412C33.1094 205.493 33.0513 205.561 32.9845 205.613C32.9177 205.666 32.8434 205.701 32.766 205.716C32.6886 205.732 32.6095 205.728 32.5333 205.704C32.4571 205.681 32.3853 205.639 32.3219 205.58C32.2585 205.521 32.2049 205.447 32.164 205.362C32.1231 205.277 32.0957 205.182 32.0836 205.084C32.0714 204.985 32.0746 204.884 32.093 204.787C35.8616 184.824 31.5243 166.122 27.2224 153.948C24.4979 146.142 21.022 138.798 16.8747 132.085C16.7934 131.963 16.7448 131.81 16.7357 131.65Z" fill="#3F3D56"/>
<path d="M181.401 54.8126C180.69 53.8828 179.814 53.1826 178.847 52.7703C177.88 52.3579 176.85 52.2452 175.843 52.4416C174.835 52.638 173.878 53.1377 173.052 53.8993C172.227 54.661 171.555 55.6626 171.094 56.821C161.388 65.4279 155.234 76.9605 152.912 91.649L135.692 71.7433C135.894 70.0781 135.677 68.3743 135.072 66.8761C134.466 65.3779 133.505 64.1623 132.324 63.4037C131.143 62.6452 129.804 62.3825 128.498 62.6535C127.193 62.9245 125.989 63.7152 125.058 64.9122C124.127 66.1092 123.518 67.651 123.318 69.3164C123.117 70.9819 123.336 72.6854 123.942 74.1827C124.549 75.6801 125.512 76.8942 126.693 77.6511C127.875 78.408 129.214 78.6687 130.519 78.3958C133.68 85.2324 148.343 115.465 157.393 108.543C165 102.725 178.509 73.8992 182.478 64.339C183.113 62.8104 183.351 61.0644 183.158 59.3524C182.964 57.6405 182.349 56.0509 181.401 54.8126Z" fill="#FFB6B6"/>
<path d="M181.952 68.0138C182.817 65.0277 183.51 61.7362 182.76 58.7C181.935 55.361 179.401 52.9702 176.692 52.3886C173.983 51.8071 171.167 52.8479 168.838 54.7039C166.509 56.56 164.614 59.1815 162.931 61.9482L163.382 61.034C161.191 64.6913 159 68.3486 156.809 72.0059C162.37 76.9285 167.931 81.8511 173.492 86.7737C177.117 81.1682 179.977 74.8266 181.952 68.0138Z" fill="#9775FA"/>
<path d="M157.967 319.935L150.002 319.934L146.213 280.788L157.969 280.789L157.967 319.935Z" fill="#FFB6B6"/>
<path d="M158.248 330.522L133.753 330.521V330.126C133.753 326.905 134.757 323.815 136.545 321.537C138.333 319.259 140.758 317.979 143.287 317.979H143.288L147.762 313.654L156.11 317.98L158.248 317.98L158.248 330.522Z" fill="#2F2E41"/>
<path d="M274.815 175.808L278.159 185.019L251.864 205.837L246.928 192.241L274.815 175.808Z" fill="#FFB6B6"/>
<path d="M282.239 171.039L292.522 199.364L292.241 199.53C289.946 200.883 287.324 201.018 284.95 199.907C282.577 198.796 280.647 196.529 279.585 193.605L274.625 190.246L274.202 178.777L273.304 176.304L282.239 171.039Z" fill="#2F2E41"/>
<path d="M98.5044 19.6592C100.14 19.0336 101.189 17.3512 100.848 15.9013C100.506 14.4515 98.9033 13.7833 97.2675 14.4089C95.6317 15.0345 94.5825 16.7169 94.9241 18.1668C95.2656 19.6166 96.8686 20.2848 98.5044 19.6592Z" fill="#E6E6E6"/>
<path d="M118.698 18.3755C120.333 17.7499 121.383 16.0675 121.041 14.6177C120.699 13.1678 119.096 12.4997 117.461 13.1252C115.825 13.7508 114.776 15.4333 115.117 16.8831C115.459 18.3329 117.062 19.0011 118.698 18.3755Z" fill="#3F3D56"/>
<path d="M95.4413 41.2195C97.0771 40.5939 98.1263 38.9115 97.7847 37.4617C97.4432 36.0119 95.8402 35.3437 94.2044 35.9692C92.5686 36.5948 91.5194 38.2773 91.861 39.7271C92.2025 41.1769 93.8055 41.8451 95.4413 41.2195Z" fill="#FF6584"/>
<path d="M89.0719 50.2322C89.8139 50.0848 90.2805 48.8638 90.1142 47.505C89.9479 46.1462 89.2116 45.1641 88.4697 45.3115C87.7278 45.4589 87.2612 46.6799 87.4275 48.0388C87.5938 49.3976 88.33 50.3796 89.0719 50.2322Z" fill="#E6E6E6"/>
<path d="M87.9608 66.4505C88.7027 66.3031 89.1694 65.0821 89.003 63.7233C88.8367 62.3645 88.1005 61.3824 87.3586 61.5298C86.6166 61.6772 86.15 62.8982 86.3163 64.257C86.4826 65.6158 87.2189 66.5979 87.9608 66.4505Z" fill="#3F3D56"/>
<path d="M107.564 34.5751C108.306 34.4277 108.772 33.2067 108.606 31.8479C108.44 30.4891 107.703 29.5071 106.961 29.6544C106.219 29.8018 105.753 31.0229 105.919 32.3817C106.085 33.7405 106.822 34.7225 107.564 34.5751Z" fill="#E6E6E6"/>
<path d="M97.2326 30.2727C97.9746 30.1253 98.4412 28.9043 98.2749 27.5455C98.1086 26.1867 97.3723 25.2046 96.6304 25.352C95.8885 25.4994 95.4219 26.7204 95.5882 28.0793C95.7545 29.4381 96.4907 30.4201 97.2326 30.2727Z" fill="#FF6584"/>
<path d="M109.307 16.4351C110.049 16.2877 110.516 15.0667 110.35 13.7079C110.183 12.349 109.447 11.367 108.705 11.5144C107.963 11.6618 107.497 12.8828 107.663 14.2416C107.829 15.6004 108.565 16.5825 109.307 16.4351Z" fill="#3F3D56"/>
<path d="M222.289 275.227C223.979 274.913 225.211 273.445 225.04 271.947C224.869 270.449 223.36 269.489 221.67 269.802C219.98 270.115 218.748 271.584 218.919 273.082C219.09 274.58 220.599 275.54 222.289 275.227Z" fill="#E6E6E6"/>
<path d="M202.167 272.725C203.857 272.412 205.088 270.943 204.917 269.445C204.746 267.947 203.237 266.987 201.547 267.3C199.857 267.614 198.625 269.082 198.797 270.58C198.968 272.078 200.476 273.038 202.167 272.725Z" fill="#3F3D56"/>
<path d="M227.799 254.471C229.49 254.158 230.721 252.689 230.55 251.191C230.379 249.693 228.87 248.733 227.18 249.046C225.49 249.36 224.258 250.828 224.429 252.326C224.601 253.824 226.109 254.784 227.799 254.471Z" fill="#FF6584"/>
<path d="M234.548 246.301C235.299 246.294 235.901 245.173 235.892 243.798C235.884 242.423 235.269 241.314 234.518 241.321C233.767 241.328 233.165 242.449 233.173 243.824C233.181 245.199 233.797 246.308 234.548 246.301Z" fill="#E6E6E6"/>
<path d="M237.513 230.465C238.264 230.458 238.866 229.338 238.858 227.962C238.849 226.587 238.234 225.478 237.483 225.485C236.732 225.493 236.13 226.613 236.138 227.989C236.147 229.364 236.762 230.473 237.513 230.465Z" fill="#3F3D56"/>
<path d="M214.454 258.335C215.205 258.328 215.807 257.207 215.799 255.832C215.791 254.457 215.176 253.348 214.425 253.355C213.674 253.362 213.072 254.483 213.08 255.858C213.088 257.233 213.704 258.342 214.454 258.335Z" fill="#E6E6E6"/>
<path d="M224.178 264.521C224.929 264.514 225.531 263.393 225.523 262.018C225.514 260.643 224.899 259.534 224.148 259.541C223.397 259.548 222.795 260.669 222.803 262.044C222.812 263.419 223.427 264.528 224.178 264.521Z" fill="#FF6584"/>
<path d="M210.642 275.954C211.393 275.946 211.995 274.826 211.987 273.451C211.979 272.075 211.363 270.966 210.613 270.974C209.862 270.981 209.26 272.102 209.268 273.477C209.276 274.852 209.891 275.961 210.642 275.954Z" fill="#3F3D56"/>
<path d="M170.495 142.995L165.654 150.548C165.764 152.594 165.258 153.763 163.755 153.512C163.755 153.512 163.979 157.258 162.137 156.036C160.295 154.815 160.746 158.206 160.746 158.206L159.37 160.353C159.37 160.353 159.327 164.006 157.969 162.539C156.612 161.071 156.176 165.336 156.176 165.336L154.449 168.032L136.836 195.512L146.709 296.514L158.248 295.591L161.061 207.045C161.779 204.604 162.868 203.325 164.533 203.847C165.278 204.055 165.714 203.484 165.989 202.506L167.315 201.283L184.681 185.285L207.618 235.369L264.65 197.048L259.33 184.013L219.32 200.878L218.27 184.93C216.903 183.916 217.133 182.704 218.039 181.408L217.777 177.428C219.133 176.368 218.461 174.687 217.48 172.911C215.431 170.983 215.631 168.788 217.054 166.446C217.054 166.446 218.852 136.491 210.139 132.358C201.426 128.225 170.495 142.995 170.495 142.995Z" fill="#2F2E41"/>
<path d="M187.599 44.6699L176.664 45.3222L170.935 55.7501C166.946 66.9304 165.851 79.4371 167.808 91.4625L171.753 115.71L170.708 133.691C167.907 136.57 167.674 139.954 170.116 143.865C167.11 157.083 192.695 151.134 216.36 146.472C216.442 140.175 215.161 133.763 211.858 127.181L215.043 74.647L203.264 56.7929L194.25 49.229L187.599 44.6699Z" fill="#9775FA"/>
<path d="M197.831 59.0787C196.957 59.7465 196.22 60.6704 195.682 61.7736C195.144 62.8769 194.82 64.1277 194.737 65.4223C194.655 66.717 194.816 68.018 195.207 69.2176C195.598 70.4172 196.207 71.4807 196.986 72.3198C198.305 83.2252 206.5 93.7307 219.386 102.9L200.209 119.651C198.984 119.016 197.632 118.892 196.349 119.296C195.065 119.701 193.914 120.613 193.062 121.901C192.211 123.19 191.701 124.789 191.606 126.47C191.512 128.151 191.838 129.826 192.537 131.256C193.236 132.686 194.273 133.798 195.499 134.431C196.724 135.064 198.076 135.186 199.359 134.78C200.643 134.374 201.792 133.46 202.643 132.17C203.494 130.88 204.002 129.28 204.095 127.599C210.046 125.259 236.519 114.061 233.323 101.245C230.635 90.4718 211.74 67.0707 205.355 59.9437C204.334 58.8034 203.056 58.1052 201.704 57.9497C200.352 57.7943 198.996 58.1896 197.831 59.0787Z" fill="#FFB6B6"/>
<path d="M176.976 107.931C175.702 107.928 174.474 107.314 173.539 106.21C172.604 105.107 172.029 103.595 171.93 101.976L171.251 90.9454C171.145 89.2373 171.577 87.546 172.451 86.2435C173.324 84.941 174.568 84.134 175.909 84L192.726 82.3197C194.067 82.1859 195.394 82.736 196.416 83.849C197.439 84.9621 198.072 86.5469 198.177 88.2549L198.856 99.2851C198.961 100.993 198.53 102.684 197.656 103.987C196.782 105.289 195.538 106.097 194.198 106.23L177.381 107.911C177.245 107.924 177.111 107.931 176.976 107.931Z" fill="#F2F2F2"/>
<path d="M179.397 42.0256C187.304 42.0256 193.713 33.859 193.713 23.785C193.713 13.711 187.304 5.54447 179.397 5.54447C171.49 5.54447 165.08 13.711 165.08 23.785C165.08 33.859 171.49 42.0256 179.397 42.0256Z" fill="#FFB6B6"/>
<path d="M194.272 12.1765C193.593 11.0545 192.817 10.0239 192.226 8.82402C191.657 7.66874 191.269 6.37194 190.628 5.27998C188.732 2.0504 185.206 1.38997 182.056 0.987753C179.976 0.722191 177.896 0.45662 175.816 0.191033C174.647 -0.0197845 173.462 -0.0470459 172.288 0.109876C171.171 0.3309 170.11 0.878398 169.187 1.70948C168.264 2.54057 167.504 3.63267 166.967 4.90024C166.358 6.36936 165.951 8.20035 164.763 8.88556C164.203 9.11053 163.632 9.29117 163.055 9.42646C162.494 9.6483 161.929 10.2198 161.95 10.9681C161.989 12.3539 163.908 13.1472 163.44 14.399C163.027 15.5045 161.371 14.7201 161.136 16.3889C161.104 16.6298 161.112 16.8764 161.159 17.113C161.207 17.3497 161.292 17.5711 161.411 17.7631C161.945 18.6346 162.821 18.8611 163.643 19.0534L162.184 21.7114C166.907 24.1841 172.165 24.4442 177.025 22.4454C177.75 22.1392 178.524 22.0699 179.276 22.2439C180.028 22.4179 180.734 22.8296 181.328 23.4413C181.923 24.053 182.388 24.8452 182.679 25.7451C182.971 26.6449 183.081 27.6238 182.999 28.5919L182.992 28.6674C182.961 28.9593 182.992 29.2566 183.082 29.5278C183.173 29.799 183.319 30.0339 183.506 30.2075C184.246 30.8484 184.998 29.9492 185.334 29.0594C185.675 28.1543 185.902 27.0562 186.728 26.739C187.065 26.6307 187.421 26.6646 187.741 26.8357C188.062 27.0069 188.331 27.306 188.506 27.6882C189.149 28.9728 188.885 30.506 188.515 31.8656C187.66 35.003 186.271 37.8609 184.449 40.2353C187.559 39.9732 186.649 40.3704 189.76 40.1083L190.627 40.2803C192.708 38.6259 193.74 35.4782 194.289 32.4318C195.534 25.5213 197.668 17.7932 194.272 12.1765Z" fill="#2F2E41"/>
<path d="M206.411 57.5855C204.343 55.7986 202.002 54.1509 199.509 54.3488C196.766 54.5665 194.336 57.1256 193.242 60.3366C192.148 63.5475 192.265 67.2798 193.119 70.6066C193.974 73.9334 195.516 76.9062 197.219 79.6524L196.631 78.8753C198.891 82.4638 201.151 86.0523 203.411 89.6407C208.498 83.9455 213.585 78.2503 218.671 72.5551C215.271 66.7256 211.127 61.6653 206.411 57.5855Z" fill="#9775FA"/>
<path d="M179 329.563L179.006 329.2C179.135 323.106 180.304 317.12 182.432 311.66C184.56 306.2 187.596 301.395 191.329 297.581C193.436 295.462 195.744 293.69 198.198 292.307L198.432 292.174L198.472 292.496C198.948 296.344 199.7 300.272 200.051 302.015L202.402 290.328L202.663 290.232C203.861 289.784 205.136 289.803 206.326 290.287C207.515 290.772 208.563 291.698 209.335 292.948C210.14 294.198 210.634 295.727 210.751 297.338C210.869 298.948 210.605 300.567 209.994 301.985C209.446 303.285 208.908 304.642 208.387 305.955C206.597 310.464 204.746 315.128 202.049 318.75C199.986 321.467 197.473 323.563 194.694 324.884C191.914 326.205 188.938 326.718 185.983 326.386L179 329.563Z" fill="#F2F2F2"/>
<path d="M212.216 330.618L101.007 330.778C100.943 330.778 100.879 330.762 100.82 330.731C100.761 330.699 100.707 330.654 100.662 330.596C100.617 330.538 100.581 330.47 100.557 330.395C100.532 330.319 100.519 330.239 100.519 330.157C100.519 330.076 100.532 329.995 100.557 329.919C100.581 329.844 100.617 329.776 100.662 329.718C100.707 329.66 100.761 329.615 100.82 329.583C100.879 329.552 100.943 329.536 101.007 329.536L212.216 329.376C212.346 329.376 212.47 329.441 212.561 329.558C212.652 329.674 212.704 329.832 212.704 329.997C212.704 330.161 212.652 330.319 212.561 330.436C212.47 330.552 212.346 330.618 212.216 330.618Z" fill="#CACACA"/>
<path d="M316.162 330.618L252.014 330.778C251.95 330.778 251.887 330.762 251.828 330.731C251.769 330.699 251.715 330.654 251.67 330.596C251.625 330.538 251.589 330.47 251.564 330.395C251.54 330.319 251.527 330.239 251.527 330.157C251.527 330.076 251.54 329.995 251.564 329.919C251.589 329.844 251.625 329.776 251.67 329.718C251.715 329.66 251.769 329.615 251.828 329.583C251.887 329.552 251.95 329.536 252.014 329.536L316.162 329.376C316.291 329.376 316.415 329.441 316.507 329.558C316.598 329.674 316.649 329.832 316.649 329.997C316.649 330.161 316.598 330.319 316.507 330.436C316.415 330.552 316.291 330.618 316.162 330.618Z" fill="#CACACA"/>
<path d="M61.2086 330.618L1.15329 330.778C1.0893 330.778 1.02593 330.762 0.966816 330.731C0.907698 330.699 0.853979 330.654 0.808732 330.596C0.763485 330.538 0.727595 330.47 0.703108 330.395C0.67862 330.319 0.666016 330.239 0.666016 330.157C0.666016 330.076 0.67862 329.995 0.703108 329.919C0.727595 329.844 0.763485 329.776 0.808732 329.718C0.853979 329.66 0.907698 329.615 0.966816 329.583C1.02593 329.552 1.0893 329.536 1.15329 329.536L61.2086 329.376C61.2727 329.376 61.3362 329.392 61.3955 329.423C61.4548 329.454 61.5086 329.5 61.554 329.557C61.5994 329.615 61.6355 329.683 61.66 329.759C61.6846 329.834 61.6972 329.915 61.6972 329.997C61.6972 330.078 61.6846 330.159 61.66 330.235C61.6355 330.31 61.5994 330.379 61.554 330.436C61.5086 330.494 61.4548 330.54 61.3955 330.571C61.3362 330.602 61.2727 330.618 61.2086 330.618Z" fill="#CACACA"/>
<path d="M126.256 52.2793C126.02 52.2792 125.787 52.3415 125.57 52.4623C125.354 52.583 125.16 52.7595 125 52.9807C124.84 53.2018 124.718 53.4628 124.641 53.7472C124.565 54.0316 124.535 54.3331 124.554 54.6328C126.298 65.1041 127.065 75.0895 126.474 84.3997C126.512 84.9429 126.707 85.4488 127.022 85.8182C127.337 86.1877 127.748 86.3941 128.176 86.3969H139.193C139.621 86.3941 140.032 86.1877 140.347 85.8182C140.662 85.4488 140.857 84.9429 140.895 84.3997C140.005 75.0088 140.946 64.982 142.815 54.6328C142.834 54.3331 142.804 54.0316 142.728 53.7472C142.651 53.4628 142.529 53.2018 142.369 52.9807C142.209 52.7595 142.015 52.583 141.799 52.4623C141.582 52.3415 141.349 52.2792 141.113 52.2793H126.256Z" fill="#9775FA"/>
<path d="M143.697 56.2467L142.875 51.2726C142.8 50.8203 142.606 50.4145 142.324 50.1232C142.042 49.832 141.691 49.673 141.328 49.673H136.197C136.177 49.5863 136.144 49.5051 136.101 49.4337L135.53 48.5257C135.477 48.4401 135.409 48.3711 135.331 48.3236C135.253 48.2761 135.169 48.2515 135.083 48.2515H131.915C131.829 48.2515 131.744 48.2761 131.666 48.3236C131.589 48.3711 131.52 48.4401 131.467 48.5257L130.897 49.4337C130.853 49.5051 130.82 49.5863 130.8 49.673H126.041C125.679 49.673 125.327 49.832 125.045 50.1232C124.763 50.4145 124.569 50.8203 124.494 51.2726L123.672 56.2467C123.624 56.54 123.627 56.8434 123.682 57.1348C123.738 57.4262 123.843 57.6982 123.992 57.931C124.14 58.1638 124.327 58.3515 124.539 58.4805C124.752 58.6094 124.984 58.6763 125.219 58.6763C130.594 60.8461 136.237 60.8461 142.15 58.6763C142.385 58.6763 142.617 58.6094 142.83 58.4805C143.042 58.3515 143.229 58.1638 143.377 57.931C143.526 57.6983 143.631 57.4262 143.687 57.1348C143.742 56.8435 143.745 56.54 143.697 56.2467Z" fill="#3F3D56"/>
</g>
<defs>
<clipPath id="clip0_1211_1132">
<rect width="368" height="331" fill="white" transform="translate(-3)"/>
</clipPath>
</defs>
</svg>
