<svg width="24" height="24" viewBox="0 0 24 24" fill="none" xmlns="http://www.w3.org/2000/svg">
<path d="M18.377 5.78303C20.1358 5.78303 21.5668 4.4859 21.5668 2.89147C21.5668 1.29705 20.1358 0 18.377 0C16.6182 0 15.1872 1.29713 15.1872 2.89156C15.1872 4.48598 16.6181 5.78303 18.377 5.78303ZM18.377 1.37139C19.3016 1.37139 20.0538 2.05333 20.0538 2.89147C20.0538 3.72962 19.3016 4.41156 18.377 4.41156C17.4524 4.41156 16.7001 3.72962 16.7001 2.89147C16.7001 2.05333 17.4524 1.37139 18.377 1.37139Z" fill="#9775FA"/>
<path d="M21.8397 6.52421C21.834 6.52252 20.9639 6.28042 20.9639 6.28042C20.579 6.17318 20.1691 6.35832 20.0313 6.7011L19.085 9.05464C19.085 9.05464 18.7473 7.71476 18.7319 7.68785L19.3198 6.7647C19.3913 6.65238 19.3913 6.51403 19.3198 6.40171C19.2483 6.28939 19.1161 6.22021 18.973 6.22021H17.781C17.6379 6.22021 17.5057 6.28939 17.4341 6.40171C17.3626 6.51403 17.3626 6.65238 17.4341 6.7647L18.022 7.68785C18.0068 7.71476 17.6689 9.05464 17.6689 9.05464L16.7227 6.7011C16.5849 6.35832 16.1748 6.17302 15.7901 6.28042C15.7901 6.28042 14.9199 6.52252 14.9142 6.52421C13.6221 6.9146 12.7539 8.00648 12.7539 9.24123V13.997C12.7539 14.1308 12.7971 14.2618 12.8781 14.3736L14.6837 16.8643V23.3147C14.6837 23.6933 15.0224 24.0004 15.4402 24.0004H21.3137C21.7314 24.0004 22.0702 23.6934 22.0702 23.3147V16.8643L23.8757 14.3736C23.9569 14.2618 24 14.1308 24 13.997V9.24123C24 8.00648 23.1318 6.9146 21.8397 6.52421ZM22.4872 13.7919L20.6816 16.2827C20.6005 16.3945 20.5573 16.5254 20.5573 16.6592V22.629H16.1966V16.6592C16.1966 16.5254 16.1534 16.3945 16.0724 16.2827L14.2668 13.7919V9.24131C14.2668 8.60026 14.7156 8.03314 15.3847 7.82773L15.5472 7.78248L17.6662 13.0529C17.7751 13.3236 18.059 13.5038 18.3769 13.5038C18.6948 13.5038 18.9787 13.3236 19.0876 13.0529L21.2066 7.78248L21.369 7.82773C22.0382 8.03314 22.487 8.60026 22.487 9.24131V13.7919H22.4872Z" fill="#9775FA"/>
<path d="M13.2023 3.53197C13.0852 3.27581 12.8093 3.1087 12.5035 3.1087H10.8973C10.7645 1.91436 9.64905 0.979004 8.29711 0.979004H2.61339C1.1724 0.979004 0 2.04179 0 3.34805V6.9891C0 8.29537 1.1724 9.35816 2.61339 9.35816H8.29711C9.7381 9.35816 10.9105 8.29537 10.9105 6.9891V6.20826L13.0384 4.27937C13.2547 4.08309 13.3194 3.78822 13.2023 3.53197ZM9.61909 5.43929C9.47727 5.56793 9.39758 5.7424 9.39758 5.92422V6.9891C9.39758 7.53917 8.90382 7.98668 8.29711 7.98668H2.61339C2.0066 7.98668 1.51293 7.53908 1.51293 6.9891V3.34797C1.51293 2.79791 2.00669 2.3504 2.61339 2.3504H8.29711C8.9039 2.3504 9.39758 2.79799 9.39758 3.34797V3.79436C9.39758 4.17302 9.73623 4.48009 10.154 4.48009H10.6773L9.61909 5.43929Z" fill="#9775FA"/>
</svg>
