<svg width="14" height="20" viewBox="0 0 14 20" fill="none" xmlns="http://www.w3.org/2000/svg">
<path d="M13.1584 1.48902C13.1337 1.32975 13.0527 1.18461 12.9301 1.08C12.8075 0.975386 12.6514 0.918242 12.4902 0.918952H11.2324C11.0756 0.919235 10.9239 0.973787 10.8028 1.07333C10.6818 1.17288 10.5989 1.31127 10.5684 1.46499L10.4948 1.83932C10.4625 2.00694 10.4944 2.18059 10.5843 2.32572C10.6742 2.47085 10.8154 2.57682 10.9799 2.62253L11.2776 2.7041C11.3303 2.71873 11.3751 2.75344 11.4025 2.80078C11.4298 2.84812 11.4374 2.9043 11.4238 2.95723L11.0153 4.51711C11.0058 4.55228 10.9874 4.58438 10.9618 4.61027C10.9362 4.63617 10.9043 4.65496 10.8692 4.66482C10.4768 4.78133 10.0446 4.98178 9.58449 5.26055C9.25597 5.45942 8.8628 5.52219 8.48868 5.43551C8.00016 5.32617 7.50055 5.27422 6.99999 5.28071C6.49942 5.27429 5.99981 5.32624 5.51127 5.43551C5.13717 5.52225 4.74398 5.45947 4.41549 5.26055C3.9554 4.98178 3.52316 4.78133 3.13078 4.66482C3.09571 4.65497 3.0638 4.63617 3.03819 4.61028C3.01258 4.58438 2.99414 4.55226 2.98468 4.51709L2.5762 2.95722C2.56252 2.90429 2.57017 2.84811 2.5975 2.80077C2.62483 2.75343 2.66966 2.71871 2.72234 2.7041L3.02008 2.62252C3.18455 2.5768 3.32577 2.47084 3.41566 2.32572C3.50554 2.1806 3.53749 2.00695 3.50515 1.83934L3.43153 1.46499C3.40102 1.31127 3.3182 1.17287 3.19716 1.07332C3.07612 0.973771 2.92434 0.919223 2.76762 0.918952H1.50975C1.34858 0.918241 1.1925 0.975383 1.06989 1.07999C0.947273 1.1846 0.866262 1.32973 0.841578 1.489C0.725879 2.21839 0.545875 3.68211 0.639668 5.29008C0.655877 5.58071 0.744881 5.86259 0.898499 6.10983C1.05212 6.35707 1.26542 6.56173 1.5188 6.70499L3.94705 8.08293C4.05792 8.14579 4.15175 8.23481 4.22034 8.34224C4.28893 8.44966 4.3302 8.57223 4.34057 8.69927L4.43025 9.79308C4.46142 10.1693 4.41973 10.548 4.30746 10.9084L2.09272 18.0411C2.05544 18.1612 2.0469 18.2883 2.06778 18.4123C2.08866 18.5362 2.13839 18.6536 2.21295 18.7548C2.28751 18.856 2.38482 18.9383 2.49702 18.995C2.60922 19.0517 2.73319 19.0813 2.85891 19.0813H4.666C4.90301 19.0805 5.13258 18.9985 5.31634 18.8488C5.5001 18.6991 5.62691 18.4909 5.67556 18.2589L6.88635 12.396C6.89072 12.3676 6.90549 12.3417 6.92781 12.3235C6.95013 12.3054 6.97841 12.2961 7.00716 12.2976H7.00731C7.03609 12.2961 7.06438 12.3054 7.08668 12.3237C7.10899 12.3419 7.12373 12.3678 7.12805 12.3963L8.32538 18.2568C8.37356 18.4892 8.50023 18.698 8.68413 18.8482C8.86804 18.9983 9.09799 19.0806 9.33539 19.0813H11.1411C11.2668 19.0813 11.3908 19.0517 11.503 18.995C11.6152 18.9383 11.7125 18.856 11.787 18.7548C11.8616 18.6536 11.9113 18.5362 11.9322 18.4123C11.9531 18.2883 11.9445 18.1611 11.9073 18.0411L9.69252 10.9084C9.58025 10.548 9.53855 10.1693 9.56972 9.79308L9.65941 8.69926C9.66977 8.57223 9.71105 8.44966 9.77964 8.34223C9.84823 8.23481 9.94205 8.14579 10.0529 8.08293L12.4812 6.70498C12.7346 6.56172 12.9479 6.35707 13.1015 6.10983C13.2551 5.8626 13.3441 5.58071 13.3603 5.29009C13.4541 3.68211 13.2741 2.21839 13.1584 1.48902ZM12.8923 5.26281C12.8805 5.47527 12.8155 5.68136 12.7032 5.86212C12.591 6.04289 12.4351 6.19254 12.2499 6.29732L9.82161 7.67526C9.64427 7.77578 9.49422 7.91815 9.38452 8.08996C9.27483 8.26177 9.20882 8.45781 9.19226 8.66098L9.10257 9.7548C9.06642 10.1908 9.11472 10.6297 9.24482 11.0475L11.4596 18.1801C11.4751 18.23 11.4786 18.2829 11.4699 18.3344C11.4613 18.3859 11.4406 18.4347 11.4096 18.4768C11.3786 18.5189 11.3382 18.5531 11.2915 18.5767C11.2449 18.6002 11.1933 18.6125 11.1411 18.6125H9.33538C9.20593 18.6122 9.08054 18.5673 8.98026 18.4854C8.87998 18.4035 8.81092 18.2897 8.78466 18.1629L7.58734 12.3025C7.56224 12.1678 7.49027 12.0463 7.3842 11.9596C7.27812 11.873 7.14478 11.8266 7.0078 11.8288H7.00711C6.87026 11.8265 6.73699 11.8726 6.63087 11.9591C6.52476 12.0455 6.45264 12.1667 6.42728 12.3012L5.2165 18.1641C5.18996 18.2906 5.12082 18.4041 5.02062 18.4858C4.92042 18.5674 4.79523 18.6121 4.666 18.6126H2.85891C2.80664 18.6126 2.75511 18.6003 2.70847 18.5767C2.66183 18.5531 2.62138 18.5189 2.59038 18.4768C2.55939 18.4347 2.53872 18.386 2.53004 18.3344C2.52136 18.2829 2.52492 18.23 2.54042 18.1801L4.75515 11.0475C4.88526 10.6298 4.93355 10.1909 4.8974 9.75484L4.80772 8.66101C4.79115 8.45784 4.72515 8.26181 4.61545 8.09C4.50576 7.91819 4.3557 7.77582 4.17837 7.67529L1.75013 6.29735C1.56492 6.19257 1.40901 6.04292 1.29675 5.86215C1.18449 5.68138 1.11946 5.47529 1.10766 5.26282C1.01637 3.69889 1.19184 2.27315 1.30453 1.56245C1.31216 1.51358 1.33706 1.46907 1.37473 1.43701C1.41239 1.40495 1.4603 1.38747 1.50976 1.38774H2.76762C2.81577 1.38782 2.8624 1.40458 2.89958 1.43516C2.93677 1.46575 2.96221 1.50827 2.97159 1.55549L3.04521 1.9298C3.05515 1.9813 3.04534 2.03465 3.01772 2.07924C2.9901 2.12383 2.94671 2.15638 2.89618 2.17043L2.59848 2.25201C2.42702 2.29961 2.28111 2.41261 2.19213 2.56671C2.10315 2.7208 2.07821 2.90367 2.1227 3.07596L2.53117 4.63581C2.54964 4.70606 2.57947 4.77281 2.61948 4.83343C2.52909 5.00397 2.4841 5.1949 2.48885 5.38786C2.48906 5.45139 2.51445 5.51224 2.55944 5.55708C2.60443 5.60192 2.66537 5.62711 2.72889 5.62712H2.72967C2.7612 5.62702 2.7924 5.62071 2.82149 5.60856C2.85058 5.5964 2.87699 5.57863 2.8992 5.55626C2.92142 5.53389 2.93902 5.50737 2.95098 5.4782C2.96294 5.44903 2.96904 5.41779 2.96893 5.38626C2.96692 5.29531 2.98257 5.20484 3.01502 5.11985C3.36012 5.22457 3.75967 5.41126 4.17256 5.66144C4.6049 5.92353 5.12248 6.00648 5.61508 5.89263C6.0561 5.79248 7.00123 5.74948 7.00123 5.74948H7.00127C7.46646 5.74301 7.93081 5.79106 8.38482 5.89265C8.87743 6.00652 9.39503 5.92356 9.82739 5.66146C10.2472 5.40708 10.6536 5.21783 11.0026 5.11417C11.0183 5.10952 11.0337 5.10421 11.0488 5.09849C11.0879 5.18928 11.1067 5.28749 11.104 5.38629C11.1039 5.41785 11.11 5.44912 11.122 5.47831C11.134 5.5075 11.1516 5.53403 11.1739 5.5564C11.1961 5.57877 11.2226 5.59654 11.2517 5.60868C11.2808 5.62081 11.3121 5.62709 11.3436 5.62715H11.344C11.4075 5.62714 11.4685 5.60196 11.5135 5.55712C11.5585 5.51227 11.5838 5.45142 11.5841 5.38789C11.5907 5.17036 11.5323 4.95578 11.4163 4.77167C11.4387 4.72847 11.4563 4.68293 11.4688 4.63586L11.8773 3.07599C11.9217 2.9037 11.8968 2.72083 11.8078 2.56674C11.7188 2.41264 11.5729 2.29964 11.4015 2.25204L11.1038 2.17043C11.0532 2.15639 11.0098 2.12383 10.9822 2.07924C10.9546 2.03465 10.9448 1.9813 10.9548 1.9298L11.0283 1.55547C11.0377 1.50824 11.0632 1.46572 11.1004 1.43513C11.1376 1.40455 11.1842 1.38779 11.2324 1.3877H12.4902C12.5397 1.38743 12.5876 1.40491 12.6253 1.43698C12.6629 1.46904 12.6878 1.51356 12.6955 1.56243C12.8081 2.27311 12.9836 3.69885 12.8923 5.26281Z" fill="#FFC10D"/>
<path d="M7.02508 4.95621C8.06035 4.95621 8.90263 4.15711 8.90263 3.17488C8.90263 2.19266 8.06035 1.39355 7.02508 1.39355C5.98981 1.39355 5.14752 2.19266 5.14752 3.17488C5.14752 4.15711 5.98981 4.95621 7.02508 4.95621ZM7.02508 1.8623C7.8019 1.8623 8.43388 2.45112 8.43388 3.17488C8.43388 3.89864 7.8019 4.48746 7.02508 4.48746C6.24825 4.48746 5.61627 3.89864 5.61627 3.17488C5.61627 2.45112 6.24825 1.8623 7.02508 1.8623Z" fill="#FFC10D"/>
<path d="M7.02508 4.18887C7.45255 4.18887 7.61763 3.93012 7.68136 3.73027C7.6898 3.70411 7.69194 3.67632 7.6876 3.64917C7.68327 3.62202 7.67258 3.59628 7.6564 3.57405C7.64023 3.55182 7.61904 3.53372 7.59454 3.52123C7.57005 3.50875 7.54295 3.50222 7.51546 3.5022H6.53468C6.50719 3.50222 6.48009 3.50875 6.4556 3.52123C6.4311 3.53372 6.40991 3.55182 6.39374 3.57405C6.37756 3.59628 6.36687 3.62202 6.36254 3.64917C6.3582 3.67632 6.36034 3.70411 6.36878 3.73027C6.43253 3.93012 6.59758 4.18887 7.02508 4.18887Z" fill="#FFC10D"/>
<path d="M6.99997 6.94043C6.76156 6.94043 6.52851 7.01112 6.33028 7.14357C6.13205 7.27603 5.97755 7.46428 5.88631 7.68454C5.79508 7.9048 5.77121 8.14717 5.81772 8.381C5.86423 8.61482 5.97903 8.82961 6.14761 8.99819C6.31619 9.16677 6.53097 9.28157 6.7648 9.32808C6.99863 9.37459 7.241 9.35072 7.46126 9.25948C7.68151 9.16825 7.86977 9.01375 8.00222 8.81552C8.13468 8.61729 8.20537 8.38424 8.20537 8.14583C8.20501 7.82625 8.0779 7.51986 7.85192 7.29388C7.62594 7.0679 7.31955 6.94079 6.99997 6.94043ZM7.45182 8.33818H6.93825C6.90199 8.33818 6.86722 8.32378 6.84158 8.29814C6.81594 8.2725 6.80153 8.23772 6.80153 8.20146V7.41387C6.80153 7.37761 6.81594 7.34283 6.84158 7.31719C6.86722 7.29155 6.90199 7.27715 6.93825 7.27715C6.97451 7.27715 7.00929 7.29155 7.03493 7.31719C7.06057 7.34283 7.07497 7.37761 7.07497 7.41387V8.06475H7.45179C7.48805 8.06475 7.52282 8.07915 7.54846 8.10479C7.5741 8.13043 7.58851 8.16521 7.58851 8.20147C7.58851 8.23773 7.5741 8.2725 7.54846 8.29814C7.52282 8.32378 7.48808 8.33818 7.45182 8.33818Z" fill="#194F82"/>
<path d="M6.99996 6.19214C6.61356 6.19214 6.23583 6.30672 5.91455 6.52139C5.59326 6.73606 5.34285 7.04119 5.19498 7.39818C5.04711 7.75517 5.00842 8.14799 5.0838 8.52697C5.15919 8.90595 5.34526 9.25406 5.61849 9.52729C5.89171 9.80052 6.23983 9.98659 6.61881 10.062C6.99779 10.1374 7.39061 10.0987 7.7476 9.9508C8.10459 9.80293 8.40971 9.55252 8.62439 9.23123C8.83906 8.90995 8.95364 8.53223 8.95364 8.14582C8.95364 7.62767 8.7478 7.13075 8.38142 6.76436C8.01503 6.39798 7.51811 6.19214 6.99996 6.19214ZM6.99996 9.674C6.69772 9.674 6.40226 9.58438 6.15095 9.41646C5.89964 9.24855 5.70377 9.00988 5.58811 8.73064C5.47244 8.4514 5.44218 8.14414 5.50114 7.8477C5.5601 7.55126 5.70565 7.27897 5.91936 7.06525C6.13308 6.85153 6.40538 6.70598 6.70181 6.64702C6.99825 6.58805 7.30552 6.61831 7.58475 6.73397C7.86399 6.84964 8.10266 7.0455 8.27058 7.29681C8.4385 7.54812 8.52813 7.84357 8.52813 8.14582C8.52767 8.55097 8.36652 8.9394 8.08003 9.22589C7.79355 9.51238 7.40512 9.67354 6.99996 9.674Z" fill="#194F82"/>
</svg>
