<svg width="96" height="99" viewBox="0 0 96 99" fill="none" xmlns="http://www.w3.org/2000/svg">
<path d="M50.8226 66.3637H44.2349C38.7429 66.3637 34.292 61.9128 34.292 56.4207V49.683C34.292 47.8826 32.8326 46.4187 31.0276 46.4187H24.2899C18.7978 46.4187 14.3469 41.9678 14.3469 36.4757V29.888C14.3469 24.396 18.7978 19.945 24.2899 19.945H28.1543C29.5728 19.945 30.723 21.0953 30.723 22.5137C30.723 23.9322 29.5728 25.0825 28.1543 25.0825H24.2899C21.6348 25.0825 19.4798 27.2374 19.4798 29.8925V36.4803C19.4798 39.1354 21.6348 41.2904 24.2899 41.2904H31.0276C35.665 41.2904 39.4294 45.0502 39.4294 49.6921V56.4298C39.4294 59.0849 41.5844 61.2399 44.2395 61.2399H50.8272C53.4823 61.2399 55.6373 59.0849 55.6373 56.4298V51.447C55.6373 47.2416 54.0006 43.2862 51.0272 40.3129L40.416 29.697C36.4742 25.7508 34.3011 20.5088 34.3011 14.9304V9.94296C34.3011 4.45092 38.752 0 44.244 0H50.8317C56.3238 0 60.7747 4.45092 60.7747 9.94296V16.6807C60.7747 18.4811 62.2341 19.945 64.039 19.945H70.7768C76.2688 19.945 80.7197 24.396 80.7197 29.888V36.4757C80.7197 41.9678 76.2688 46.4187 70.7768 46.4187H66.9169C65.4984 46.4187 64.3481 45.2684 64.3481 43.85C64.3481 42.4315 65.4984 41.2813 66.9169 41.2813H70.7768C73.4319 41.2813 75.5868 39.1263 75.5868 36.4712V29.8834C75.5868 27.2283 73.4319 25.0734 70.7768 25.0734H64.0299C59.3926 25.0734 55.6327 21.3135 55.6327 16.6762V9.94296C55.6327 7.28787 53.4777 5.13288 50.8226 5.13288H44.2349C41.5798 5.13288 39.4248 7.28332 39.4248 9.94296V14.9258C39.4248 19.1312 41.0615 23.0866 44.0349 26.0599L54.6462 36.6712C58.5924 40.6129 60.7611 45.8595 60.7611 51.4379V56.4207C60.7656 61.9082 56.3147 66.3637 50.8226 66.3637Z" fill="#9775FA"/>
<path d="M18.4882 92.5211L18.4626 81.7363L13.1729 90.6209H11.2984L6.03436 81.9674V92.5211H2.13128V74.5464H5.57215L12.2998 85.7164L18.9248 74.5464H22.34L22.3913 92.5211H18.4882ZM39.9058 85.665C39.9058 85.7164 39.8801 86.0759 39.8288 86.7435H29.3778C29.5661 87.5994 30.0112 88.2756 30.713 88.7721C31.4149 89.2685 32.288 89.5167 33.3322 89.5167C34.0512 89.5167 34.6846 89.414 35.2324 89.2086C35.7973 88.9861 36.3194 88.6437 36.7988 88.1815L38.93 90.4925C37.629 91.9818 35.7288 92.7265 33.2295 92.7265C31.6717 92.7265 30.2936 92.4269 29.0953 91.8278C27.897 91.2115 26.9726 90.3641 26.3221 89.2856C25.6716 88.2071 25.3463 86.9832 25.3463 85.6137C25.3463 84.2613 25.663 83.0458 26.2964 81.9674C26.9469 80.8718 27.8285 80.0244 28.9413 79.4252C30.0711 78.809 31.3293 78.5008 32.7159 78.5008C34.0683 78.5008 35.2923 78.7918 36.3879 79.3739C37.4835 79.9559 38.3394 80.7947 38.9557 81.8903C39.5891 82.9688 39.9058 84.227 39.9058 85.665ZM32.7416 81.5308C31.8343 81.5308 31.0725 81.7876 30.4563 82.3012C29.84 82.8147 29.4634 83.5166 29.3264 84.4068H36.1311C35.9942 83.5337 35.6176 82.8404 35.0013 82.3269C34.385 81.7962 33.6318 81.5308 32.7416 81.5308ZM56.6443 73.4679V92.5211H52.8183V90.929C51.8254 92.1273 50.3874 92.7265 48.5044 92.7265C47.2033 92.7265 46.0222 92.4355 44.9608 91.8534C43.9165 91.2714 43.0948 90.4411 42.4957 89.3627C41.8965 88.2842 41.597 87.0345 41.597 85.6137C41.597 84.1928 41.8965 82.9431 42.4957 81.8647C43.0948 80.7862 43.9165 79.9559 44.9608 79.3739C46.0222 78.7918 47.2033 78.5008 48.5044 78.5008C50.2676 78.5008 51.6457 79.0572 52.6385 80.1699V73.4679H56.6443ZM49.1977 89.4397C50.2077 89.4397 51.0465 89.0973 51.7141 88.4126C52.3818 87.7107 52.7156 86.7777 52.7156 85.6137C52.7156 84.4496 52.3818 83.5252 51.7141 82.8404C51.0465 82.1386 50.2077 81.7876 49.1977 81.7876C48.1706 81.7876 47.3232 82.1386 46.6555 82.8404C45.9879 83.5252 45.6541 84.4496 45.6541 85.6137C45.6541 86.7777 45.9879 87.7107 46.6555 88.4126C47.3232 89.0973 48.1706 89.4397 49.1977 89.4397ZM60.3518 78.7062H64.3576V92.5211H60.3518V78.7062ZM62.3547 76.7804C61.6186 76.7804 61.0194 76.5664 60.5572 76.1384C60.095 75.7105 59.8639 75.1798 59.8639 74.5464C59.8639 73.913 60.095 73.3823 60.5572 72.9543C61.0194 72.5264 61.6186 72.3124 62.3547 72.3124C63.0908 72.3124 63.69 72.5178 64.1522 72.9287C64.6144 73.3395 64.8455 73.8531 64.8455 74.4694C64.8455 75.137 64.6144 75.6933 64.1522 76.1384C63.69 76.5664 63.0908 76.7804 62.3547 76.7804ZM74.7516 92.7265C73.2794 92.7265 71.9527 92.4269 70.7715 91.8278C69.6074 91.2115 68.6916 90.3641 68.024 89.2856C67.3734 88.2071 67.0482 86.9832 67.0482 85.6137C67.0482 84.2442 67.3734 83.0202 68.024 81.9417C68.6916 80.8632 69.6074 80.0244 70.7715 79.4252C71.9527 78.809 73.2794 78.5008 74.7516 78.5008C76.2067 78.5008 77.4735 78.809 78.552 79.4252C79.6476 80.0244 80.4436 80.8889 80.9401 82.0187L77.833 83.6878C77.114 82.421 76.0783 81.7876 74.7259 81.7876C73.6817 81.7876 72.8172 82.13 72.1325 82.8147C71.4477 83.4995 71.1053 84.4325 71.1053 85.6137C71.1053 86.7949 71.4477 87.7278 72.1325 88.4126C72.8172 89.0973 73.6817 89.4397 74.7259 89.4397C76.0954 89.4397 77.1311 88.8063 77.833 87.5395L80.9401 89.2343C80.4436 90.3299 79.6476 91.1858 78.552 91.8021C77.4735 92.4184 76.2067 92.7265 74.7516 92.7265ZM87.8942 92.7265C86.7473 92.7265 85.626 92.5895 84.5304 92.3156C83.4348 92.0246 82.5617 91.6651 81.9112 91.2372L83.2465 88.3612C83.8627 88.7549 84.6074 89.0802 85.4805 89.337C86.3535 89.5766 87.2095 89.6965 88.0483 89.6965C89.743 89.6965 90.5904 89.2771 90.5904 88.4383C90.5904 88.0445 90.3593 87.7621 89.8971 87.5909C89.4349 87.4197 88.7245 87.2742 87.7658 87.1543C86.636 86.9832 85.703 86.7863 84.9669 86.5637C84.2308 86.3412 83.5888 85.9475 83.041 85.3826C82.5104 84.8176 82.245 84.0131 82.245 82.9688C82.245 82.0958 82.4932 81.3254 82.9897 80.6578C83.5033 79.973 84.2394 79.4423 85.198 79.0657C86.1738 78.6891 87.3207 78.5008 88.6389 78.5008C89.6146 78.5008 90.5819 78.6121 91.5405 78.8346C92.5163 79.0401 93.3209 79.3311 93.9542 79.7077L92.619 82.558C91.4036 81.8732 90.0769 81.5308 88.6389 81.5308C87.7829 81.5308 87.141 81.6507 86.713 81.8903C86.285 82.13 86.0711 82.4381 86.0711 82.8147C86.0711 83.2427 86.3022 83.5423 86.7644 83.7135C87.2266 83.8847 87.9627 84.0473 88.9727 84.2014C90.1025 84.3897 91.0269 84.5951 91.7459 84.8176C92.4649 85.0231 93.0898 85.4082 93.6204 85.9732C94.1511 86.5381 94.4165 87.3255 94.4165 88.3355C94.4165 89.1915 94.1597 89.9533 93.6461 90.6209C93.1325 91.2885 92.3793 91.8106 91.3864 92.1873C90.4107 92.5468 89.2466 92.7265 87.8942 92.7265Z" fill="#9775FA"/>
</svg>
