<svg width="375" height="566" viewBox="0 0 375 566" fill="none" xmlns="http://www.w3.org/2000/svg">
<mask id="mask0_1253_558" style="mask-type:alpha" maskUnits="userSpaceOnUse" x="-117" y="0" width="566" height="566">
<path fill-rule="evenodd" clip-rule="evenodd" d="M448 283C448 438.744 321.744 565 166 565C10.2557 565 -116 438.744 -116 283C-116 127.256 10.2557 1 166 1C321.744 1 448 127.256 448 283ZM449 283C449 439.297 322.297 566 166 566C9.70341 566 -117 439.297 -117 283C-117 126.703 9.70341 0 166 0C322.297 0 449 126.703 449 283ZM357.747 283C357.747 388.899 271.899 474.747 166 474.747C60.101 474.747 -25.7471 388.899 -25.7471 283C-25.7471 177.101 60.101 91.2527 166 91.2527C271.899 91.2527 357.747 177.101 357.747 283ZM358.747 283C358.747 389.451 272.451 475.747 166 475.747C59.5488 475.747 -26.7471 389.451 -26.7471 283C-26.7471 176.549 59.5488 90.2527 166 90.2527C272.451 90.2527 358.747 176.549 358.747 283ZM166.24 391.215C225.873 391.215 274.215 342.873 274.215 283.24C274.215 223.607 225.873 175.265 166.24 175.265C106.607 175.265 58.2645 223.607 58.2645 283.24C58.2645 342.873 106.607 391.215 166.24 391.215ZM166.24 392.215C226.425 392.215 275.215 343.425 275.215 283.24C275.215 223.055 226.425 174.265 166.24 174.265C106.054 174.265 57.2645 223.055 57.2645 283.24C57.2645 343.425 106.054 392.215 166.24 392.215ZM204.126 283C204.126 304.056 187.056 321.126 166 321.126C144.944 321.126 127.874 304.056 127.874 283C127.874 261.944 144.944 244.874 166 244.874C187.056 244.874 204.126 261.944 204.126 283ZM205.126 283C205.126 304.608 187.608 322.126 166 322.126C144.392 322.126 126.874 304.608 126.874 283C126.874 261.392 144.392 243.874 166 243.874C187.608 243.874 205.126 261.392 205.126 283Z" fill="black"/>
</mask>
<g mask="url(#mask0_1253_558)">
<rect x="-117" y="-52.7627" width="566" height="335.763" fill="#EBE4FF"/>
</g>
</svg>
