<svg width="375" height="381" viewBox="0 0 375 437" fill="none" xmlns="http://www.w3.org/2000/svg">
<g clip-path="url(#clip0_1211_1256)">
<path d="M265.948 435.419H101.535C83.7101 435.419 69.2085 418.75 69.2085 398.262V37.1566C69.2085 16.6685 83.7101 0 101.535 0H265.948C283.773 0 298.274 16.6685 298.274 37.1566V398.262C298.274 418.75 283.773 435.419 265.948 435.419Z" fill="#3F3D56"/>
<path d="M298.275 132.826C297.52 132.826 296.907 133.531 296.907 134.398V184.699C296.907 185.566 297.52 186.271 298.275 186.271C299.029 186.271 299.642 185.566 299.642 184.699V134.398C299.642 133.531 299.029 132.826 298.275 132.826Z" fill="#3F3D56"/>
<path d="M295.198 37.1569V398.255C295.198 416.089 283.122 430.676 267.853 431.808H267.847C267.621 431.824 267.395 431.839 267.163 431.847C266.759 431.871 266.356 431.879 265.946 431.879C265.946 431.879 264.441 431.753 261.693 431.517C258.916 431.281 254.875 430.928 249.836 430.464C248.325 430.33 246.731 430.181 245.049 430.024C241.699 429.709 238.02 429.364 234.075 428.971C232.502 428.821 230.875 428.656 229.213 428.491C220.72 427.65 211.209 426.668 201.178 425.552C199.482 425.371 197.773 425.182 196.05 424.986C195.598 424.931 195.14 424.884 194.682 424.829C187.53 424.019 180.179 423.147 172.801 422.219C172.343 422.164 171.885 422.109 171.434 422.054C158.722 420.443 145.963 418.69 134.024 416.804C124.841 415.358 116.143 413.833 108.335 412.253C105.791 411.735 103.343 411.216 101.004 410.689C100.546 410.587 100.088 410.485 99.6369 410.375C83.11 406.571 72.2858 402.468 72.2858 398.255V37.1569C72.2858 18.5849 85.3801 3.53385 101.538 3.53385H119.002C121.791 3.53385 124.034 6.03318 124.273 9.23201C124.294 9.44424 124.315 9.65641 124.349 9.86864C124.855 13.0832 127.419 15.3232 130.263 15.3232H237.22C240.065 15.3232 242.629 13.0832 243.135 9.86864C243.169 9.65641 243.189 9.44424 243.21 9.23201C243.449 6.03318 245.692 3.53385 248.482 3.53385H265.946C282.103 3.53385 295.198 18.5849 295.198 37.1569Z" fill="white"/>
<path d="M157.197 365.469C157.3 365.995 157.389 366.514 157.478 367.04H108.184C104.998 367.04 102.29 369.438 101.353 372.746C101.168 372.401 100.977 372.055 100.792 371.709V371.701C100.847 371.151 100.902 370.601 100.963 370.051C101.941 361.161 103.856 352.43 106.666 344.067C110.639 344.853 114.42 341.788 115.111 337.221C115.473 334.785 114.885 332.278 113.497 330.384L113.251 328.049L113.504 327.531C118.94 316.755 130.947 313.093 140.315 319.341C144.766 322.304 148.028 327.169 149.389 332.875C151.973 343.65 155.187 354.528 157.197 365.469Z" fill="#FAFAFA"/>
<path d="M289.919 276.695L289.796 277.206C287.122 278.031 284.496 279.045 281.939 280.24C280.476 280.931 279.033 281.678 277.611 282.488C272.715 285.301 270.732 292.139 273.187 297.766C274.424 300.619 276.653 302.742 279.327 303.622L279.518 303.685L279.929 303.818C274.281 315.097 266.992 325.181 258.376 333.622C245.965 378.429 213.739 378.193 181.239 359.928L181.218 359.92C178.716 367.779 175.905 375.489 172.801 383.05C172.35 384.143 171.899 385.227 171.434 386.312V375.293C171.434 374.586 171.358 373.894 171.208 373.242C171.481 372.542 171.741 371.843 172.001 371.135C180.35 348.563 185.984 324.709 188.692 300.242C189.738 290.693 190.32 281.089 190.436 271.468C190.525 263.585 190.306 255.71 189.793 247.851C186.948 205.189 175.345 163.911 155.925 127.403C145.539 118.797 137.696 106.733 133.456 92.8448C131.911 87.854 131.009 82.6274 130.769 77.3301C132.007 77.7073 137.908 56.1801 137.101 54.6946C139.193 51.8887 142.496 50.8198 144.739 48.1162C155.884 34.6449 168.726 39.1406 173.369 60.2984C187.072 70.9009 185.677 85.0009 175.215 97.2461C168.562 105.035 166.497 116.573 160.479 125.069C160.91 125.902 161.368 126.719 161.799 127.552C169.704 142.847 176.282 158.991 181.444 175.763C181.704 157.851 185.656 140.261 192.979 124.448C200.255 109.774 212.146 98.2522 222.826 86.1956C230.731 77.1414 243.531 77.165 251.408 86.2506C255.19 90.6127 257.309 96.5231 257.309 102.677L257.296 103.274C255.832 103.966 254.39 104.713 252.967 105.522C248.071 108.336 246.095 115.182 248.543 120.801C249.781 123.654 252.01 125.784 254.684 126.656L254.875 126.719C253.767 132.323 252.297 137.817 250.465 143.162C256.537 197.416 228.919 212.868 192.385 208.459C191.523 208.82 190.689 209.182 189.834 209.512C194.292 233.051 196.063 257.164 195.106 281.222C194.504 295.416 192.904 309.532 190.326 323.428L190.443 322.941C194.791 307.701 203.578 294.654 215.325 286.001C232.755 273.37 255.668 271.107 274.021 261.581C279.689 258.469 286.472 261.227 289.18 267.743C290.343 270.533 290.603 273.701 289.919 276.695Z" fill="#FAFAFA"/>
<path d="M68.5248 95.1005C67.7706 95.1005 67.1573 95.8055 67.1573 96.6724V109.248C67.1573 110.115 67.7706 110.82 68.5248 110.82C69.279 110.82 69.8924 110.115 69.8924 109.248V96.6724C69.8924 95.8055 69.279 95.1005 68.5248 95.1005Z" fill="#3F3D56"/>
<path d="M68.5248 132.826C67.7706 132.826 67.1573 133.531 67.1573 134.398V158.763C67.1573 159.63 67.7706 160.335 68.5248 160.335C69.279 160.335 69.8924 159.63 69.8924 158.763V134.398C69.8924 133.531 69.279 132.826 68.5248 132.826Z" fill="#3F3D56"/>
<path d="M68.5248 167.408C67.7706 167.408 67.1573 168.113 67.1573 168.98V193.345C67.1573 194.212 67.7706 194.917 68.5248 194.917C69.279 194.917 69.8924 194.212 69.8924 193.345V168.98C69.8924 168.113 69.279 167.408 68.5248 167.408Z" fill="#3F3D56"/>
<path d="M117.415 9.03859H93.4828C92.7275 9.03859 92.1152 9.74236 92.1152 10.6105V11.3965C92.1152 12.2646 92.7275 12.9684 93.4828 12.9684H117.415C118.17 12.9684 118.783 12.2646 118.783 11.3965V10.6105C118.783 9.74236 118.17 9.03859 117.415 9.03859Z" fill="#3F3D56"/>
<path d="M252.803 12.9684C254.314 12.9684 255.538 11.5608 255.538 9.82455C255.538 8.08827 254.314 6.68073 252.803 6.68073C251.293 6.68073 250.068 8.08827 250.068 9.82455C250.068 11.5608 251.293 12.9684 252.803 12.9684Z" fill="#3F3D56"/>
<path d="M260.325 12.9684C261.835 12.9684 263.06 11.5608 263.06 9.82455C263.06 8.08827 261.835 6.68073 260.325 6.68073C258.814 6.68073 257.59 8.08827 257.59 9.82455C257.59 11.5608 258.814 12.9684 260.325 12.9684Z" fill="#3F3D56"/>
<path d="M267.846 12.9684C269.357 12.9684 270.581 11.5608 270.581 9.82455C270.581 8.08827 269.357 6.68073 267.846 6.68073C266.336 6.68073 265.111 8.08827 265.111 9.82455C265.111 11.5608 266.336 12.9684 267.846 12.9684Z" fill="#3F3D56"/>
<path d="M245.282 48.7292H122.201C118.997 48.7292 116.389 45.7324 116.389 42.0486C116.389 38.3649 118.997 35.368 122.201 35.368H245.282C248.487 35.368 251.094 38.3649 251.094 42.0486C251.094 45.7324 248.487 48.7292 245.282 48.7292Z" fill="#E6E6E6"/>
<path d="M124.253 45.1925C122.368 45.1925 120.834 43.4294 120.834 41.2627C120.834 39.0959 122.368 37.3329 124.253 37.3329C126.138 37.3329 127.672 39.0959 127.672 41.2627C127.672 43.4294 126.138 45.1925 124.253 45.1925ZM124.253 38.9048C123.122 38.9048 122.201 39.9625 122.201 41.2627C122.201 42.5629 123.122 43.6205 124.253 43.6205C125.384 43.6205 126.304 42.5629 126.304 41.2627C126.304 39.9625 125.384 38.9048 124.253 38.9048Z" fill="white"/>
<path d="M129.513 47.8631C129.345 47.8631 129.177 47.7929 129.046 47.6505L125.837 44.1939C125.561 43.8972 125.547 43.3999 125.805 43.0833C126.063 42.7655 126.496 42.7498 126.772 43.0472L129.98 46.5038C130.256 46.8004 130.27 47.2978 130.012 47.6144C129.877 47.7798 129.695 47.8631 129.513 47.8631Z" fill="white"/>
<path d="M123.911 181.555C123.345 181.555 122.885 182.084 122.885 182.734V183.52C122.885 184.17 123.345 184.699 123.911 184.699H147.843C148.409 184.699 148.869 184.17 148.869 183.52V182.734C148.869 182.084 148.409 181.555 147.843 181.555H123.911Z" fill="#3F3D56"/>
<path d="M164.254 169.766H108.184C103.471 169.766 99.6368 165.359 99.6368 159.942V95.4935C99.6368 90.0762 103.471 85.6691 108.184 85.6691H164.254C168.967 85.6691 172.801 90.0762 172.801 95.4935V159.942C172.801 165.359 168.967 169.766 164.254 169.766ZM108.184 87.241C104.219 87.241 101.004 90.9357 101.004 95.4935V159.942C101.004 164.499 104.219 168.194 108.184 168.194H147.46C160.7 168.194 171.434 155.857 171.434 140.638V95.4935C171.434 90.9357 168.219 87.241 164.254 87.241H108.184Z" fill="#F2F2F2"/>
<path d="M116.389 93.9216C112.053 93.9216 108.526 97.9761 108.526 102.96V117.107C108.526 122.091 112.053 126.146 116.389 126.146H128.697C133.033 126.146 136.561 122.091 136.561 117.107V102.96C136.561 97.9761 133.033 93.9216 128.697 93.9216H116.389Z" fill="#F2F2F2"/>
<path d="M148.527 93.9216C144.191 93.9216 140.663 97.9761 140.663 102.96V117.107C140.663 122.091 144.191 126.146 148.527 126.146H160.835C165.171 126.146 168.698 122.091 168.698 117.107V102.96C168.698 97.9761 165.171 93.9216 160.835 93.9216H148.527Z" fill="#F2F2F2"/>
<path d="M113.996 129.682C109.66 129.682 106.133 133.737 106.133 138.721V152.868C106.133 157.852 109.66 161.907 113.996 161.907H126.304C130.64 161.907 134.168 157.852 134.168 152.868V138.721C134.168 133.737 130.64 129.682 126.304 129.682H113.996Z" fill="#F2F2F2"/>
<path d="M218.956 181.555C218.391 181.555 217.931 182.084 217.931 182.734V183.52C217.931 184.17 218.391 184.699 218.956 184.699H242.888C243.454 184.699 243.914 184.17 243.914 183.52V182.734C243.914 182.084 243.454 181.555 242.888 181.555H218.956Z" fill="#3F3D56"/>
<path d="M123.911 321.455C123.345 321.455 122.885 321.984 122.885 322.634V323.42C122.885 324.07 123.345 324.599 123.911 324.599H147.843C148.409 324.599 148.869 324.07 148.869 323.42V322.634C148.869 321.984 148.409 321.455 147.843 321.455H123.911Z" fill="#3F3D56"/>
<path d="M164.254 309.666H108.184C103.471 309.666 99.6368 305.259 99.6368 299.841V235.393C99.6368 229.976 103.471 225.569 108.184 225.569H164.254C168.967 225.569 172.801 229.976 172.801 235.393V299.841C172.801 305.259 168.967 309.666 164.254 309.666ZM108.184 227.141C104.219 227.141 101.004 230.835 101.004 235.393V299.841C101.004 304.399 104.219 308.094 108.184 308.094H148.143C161.006 308.094 171.434 296.108 171.434 281.324V235.393C171.434 230.835 168.219 227.141 164.254 227.141H108.184Z" fill="#F2F2F2"/>
<path d="M113.996 233.428C109.66 233.428 106.133 237.483 106.133 242.467V256.614C106.133 261.598 109.66 265.652 113.996 265.652H126.304C130.64 265.652 134.168 261.598 134.168 256.614V242.467C134.168 237.483 130.64 233.428 126.304 233.428H113.996Z" fill="#F2F2F2"/>
<path d="M146.134 233.428C141.798 233.428 138.27 237.483 138.27 242.467V256.614C138.27 261.598 141.798 265.652 146.134 265.652H158.442C162.778 265.652 166.305 261.598 166.305 256.614V242.467C166.305 237.483 162.778 233.428 158.442 233.428H146.134Z" fill="#F2F2F2"/>
<path d="M113.996 269.582C109.66 269.582 106.133 273.637 106.133 278.621V292.768C106.133 297.752 109.66 301.806 113.996 301.806H126.304C130.64 301.806 134.168 297.752 134.168 292.768V278.621C134.168 273.637 130.64 269.582 126.304 269.582H113.996Z" fill="#F2F2F2"/>
<path d="M218.956 321.455C218.391 321.455 217.931 321.984 217.931 322.634V323.42C217.931 324.07 218.391 324.599 218.956 324.599H242.888C243.454 324.599 243.914 324.07 243.914 323.42V322.634C243.914 321.984 243.454 321.455 242.888 321.455H218.956Z" fill="#3F3D56"/>
<path d="M259.299 309.666H203.229C198.516 309.666 194.682 305.259 194.682 299.841V235.393C194.682 229.976 198.516 225.569 203.229 225.569H259.299C264.012 225.569 267.846 229.976 267.846 235.393V299.841C267.846 305.259 264.012 309.666 259.299 309.666ZM203.229 227.141C199.264 227.141 196.05 230.835 196.05 235.393V299.841C196.05 304.399 199.264 308.094 203.229 308.094H243.638C256.253 308.094 266.479 296.34 266.479 281.84V235.393C266.479 230.835 263.264 227.141 259.299 227.141H203.229Z" fill="#F2F2F2"/>
<path d="M209.041 233.428C204.705 233.428 201.178 237.483 201.178 242.467V256.614C201.178 261.598 204.705 265.652 209.041 265.652H221.349C225.685 265.652 229.213 261.598 229.213 256.614V242.467C229.213 237.483 225.685 233.428 221.349 233.428H209.041Z" fill="#F2F2F2"/>
<path d="M241.179 233.428C236.843 233.428 233.316 237.483 233.316 242.467V256.614C233.316 261.598 236.843 265.652 241.179 265.652H253.487C257.823 265.652 261.35 261.598 261.35 256.614V242.467C261.35 237.483 257.823 233.428 253.487 233.428H241.179Z" fill="#F2F2F2"/>
<path d="M209.041 269.582C204.705 269.582 201.178 273.637 201.178 278.621V292.768C201.178 297.752 204.705 301.806 209.041 301.806H221.349C225.685 301.806 229.213 297.752 229.213 292.768V278.621C229.213 273.637 225.685 269.582 221.349 269.582H209.041Z" fill="#F2F2F2"/>
<path d="M172.801 375.29V422.219C172.343 422.164 171.885 422.109 171.434 422.054V375.29C171.434 374.583 171.358 373.891 171.208 373.239C170.415 369.678 167.598 367.037 164.254 367.037H108.184C104.998 367.037 102.29 369.435 101.353 372.743C101.128 373.545 101.004 374.402 101.004 375.29V410.689C100.546 410.587 100.088 410.485 99.6369 410.375V375.29C99.6369 373.364 100.122 371.564 100.963 370.048C102.481 367.297 105.148 365.465 108.184 365.465H164.254C167.673 365.465 170.627 367.784 172.001 371.132C172.514 372.39 172.801 373.804 172.801 375.29Z" fill="#F2F2F2"/>
<path d="M126.304 373.328H113.996C109.661 373.328 106.133 377.384 106.133 382.366V396.514C106.133 401.497 109.661 405.552 113.996 405.552H126.304C130.639 405.552 134.168 401.497 134.168 396.514V382.366C134.168 377.384 130.639 373.328 126.304 373.328Z" fill="#F2F2F2"/>
<path d="M158.442 373.328H146.134C141.799 373.328 138.27 377.384 138.27 382.366V396.514C138.27 401.497 141.799 405.552 146.134 405.552H158.442C162.777 405.552 166.305 401.497 166.305 396.514V382.366C166.305 377.384 162.777 373.328 158.442 373.328Z" fill="#F2F2F2"/>
<path d="M126.304 409.479H113.996C111.774 409.479 109.764 410.548 108.335 412.253C116.143 413.833 124.841 415.358 134.024 416.804C133.327 412.638 130.133 409.479 126.304 409.479Z" fill="#F2F2F2"/>
<path d="M267.847 375.29V431.847H266.479V375.29C266.479 370.739 263.258 367.037 259.299 367.037H203.229C199.27 367.037 196.05 370.739 196.05 375.29V424.986C195.598 424.931 195.14 424.884 194.682 424.829V375.29C194.682 369.875 198.518 365.465 203.229 365.465H259.299C264.011 365.465 267.847 369.875 267.847 375.29Z" fill="#F2F2F2"/>
<path d="M221.349 373.328H209.041C204.706 373.328 201.178 377.384 201.178 382.366V396.514C201.178 401.497 204.706 405.552 209.041 405.552H221.349C225.685 405.552 229.213 401.497 229.213 396.514V382.366C229.213 377.384 225.685 373.328 221.349 373.328Z" fill="#F2F2F2"/>
<path d="M253.487 373.328H241.179C236.844 373.328 233.316 377.384 233.316 382.366V396.514C233.316 401.497 236.844 405.552 241.179 405.552H253.487C257.822 405.552 261.35 401.497 261.35 396.514V382.366C261.35 377.384 257.822 373.328 253.487 373.328Z" fill="#F2F2F2"/>
<path d="M221.35 409.479H209.042C204.706 409.479 201.178 413.534 201.178 418.517V425.552C211.209 426.668 220.72 427.65 229.213 428.491V418.517C229.213 413.534 225.685 409.479 221.35 409.479Z" fill="#F2F2F2"/>
<path d="M141.504 269.448C139.653 269.448 138.148 271.178 138.148 273.305V279.344C138.148 281.471 139.653 283.202 141.504 283.202H146.758C148.608 283.202 150.114 281.471 150.114 279.344V273.305C150.114 271.178 148.608 269.448 146.758 269.448H141.504Z" fill="#F2F2F2"/>
<path d="M157.915 269.448C156.064 269.448 154.558 271.178 154.558 273.305V279.344C154.558 281.471 156.064 283.202 157.915 283.202H163.168C165.019 283.202 166.525 281.471 166.525 279.344V273.305C166.525 271.178 165.019 269.448 163.168 269.448H157.915Z" fill="#F2F2F2"/>
<path d="M141.504 131.12C139.653 131.12 138.148 132.85 138.148 134.978V141.016C138.148 143.143 139.653 144.874 141.504 144.874H146.758C148.608 144.874 150.114 143.143 150.114 141.016V134.978C150.114 132.85 148.608 131.12 146.758 131.12H141.504Z" fill="#F2F2F2"/>
<path d="M157.915 131.12C156.064 131.12 154.558 132.85 154.558 134.978V141.016C154.558 143.143 156.064 144.874 157.915 144.874H163.168C165.019 144.874 166.525 143.143 166.525 141.016V134.978C166.525 132.85 165.019 131.12 163.168 131.12H157.915Z" fill="#F2F2F2"/>
<path d="M241.924 409.482H236.673C234.82 409.482 233.316 411.211 233.316 413.341V419.377C233.316 421.507 234.82 423.236 236.673 423.236H241.924C243.777 423.236 245.282 421.507 245.282 419.377V413.341C245.282 411.211 243.777 409.482 241.924 409.482Z" fill="#F2F2F2"/>
<path d="M258.335 409.482H253.084C251.231 409.482 249.726 411.211 249.726 413.341V419.377C249.726 421.507 251.231 423.236 253.084 423.236H258.335C260.188 423.236 261.692 421.507 261.692 419.377V413.341C261.692 411.211 260.188 409.482 258.335 409.482Z" fill="#F2F2F2"/>
<path d="M241.924 427.556H236.673C235.627 427.556 234.69 428.106 234.075 428.97C238.02 429.363 241.699 429.709 245.049 430.024C244.571 428.578 243.354 427.556 241.924 427.556Z" fill="#F2F2F2"/>
<path d="M258.335 427.556H253.084C251.518 427.556 250.198 428.79 249.836 430.464C254.875 430.928 258.916 431.281 261.693 431.517V431.415C261.693 429.285 260.188 427.556 258.335 427.556Z" fill="#F2F2F2"/>
<path d="M272.1 95.5279L274.402 108.722L268.028 111.286L266.026 97.2359C265.733 96.9609 265.469 96.6331 265.248 96.2531C264.043 94.1863 264.524 91.3884 266.323 90.0038C268.121 88.6192 270.555 89.1723 271.759 91.2391C272.528 92.5571 272.608 94.1713 272.1 95.5279Z" fill="#A0616A"/>
<path d="M305.433 181.923L314.763 170.37L284.852 135.204C284.852 135.204 283.63 133.883 284.456 133.7C285.281 133.517 284.033 132.095 284.033 132.095C284.033 132.095 282.085 129.968 283.647 130.632C285.21 131.296 283.229 129.046 283.229 129.046L276.224 102.466L274.981 97.7515L264.519 104.929C264.519 104.929 264.612 105.841 264.797 107.398C265.731 115.25 269.009 139.494 274.546 145.655C281.179 153.037 305.433 181.923 305.433 181.923Z" fill="#9775FA"/>
<path d="M279.109 428.089L272.519 428.088L269.384 398.872L279.11 398.872L279.109 428.089Z" fill="#A0616A"/>
<path d="M279.341 435.991L259.076 435.99V435.695C259.076 430.688 262.608 426.63 266.964 426.629L270.666 423.401L277.572 426.63L279.341 426.63L279.341 435.991Z" fill="#2F2E41"/>
<path d="M332.87 420.665L326.638 423.127L315.406 396.671L324.604 393.036L332.87 420.665Z" fill="#A0616A"/>
<path d="M335.325 428.05L316.162 435.625L316.078 435.347C314.662 430.612 316.853 425.453 320.972 423.825L323.559 419.388L331.004 419.859L332.677 419.198L335.325 428.05Z" fill="#2F2E41"/>
<path d="M320.573 232.576H276.38C276.38 232.576 274.229 254.568 273.431 253.233C272.633 251.898 272.864 253.837 273.09 255.619C273.317 257.4 271.066 258.499 272.533 259.521C274 260.544 273.474 262.44 272.028 263.064C270.582 263.688 271.265 268.403 271.265 268.403L263.744 352.828L269.898 416.162H280.154L293.83 300.627V359.574L321.181 412.233L330.07 408.303L319.13 351.714L327.335 247.183L320.573 232.576Z" fill="#2F2E41"/>
<path d="M328.019 238.537L324.641 242.797L273.317 244.825L271.265 239.323L281.522 212.601L292.462 158.37L297.249 146.58V145.284C297.249 145.103 297.212 144.924 297.142 144.762C296.848 144.087 297.181 143.273 297.821 143.103L297.933 141.079L296.565 141.865L305.454 137.149L312.771 137.974L312.976 138.721L314.501 140.065C320.853 145.645 324.518 154.361 324.374 163.549L323.916 192.952L328.019 238.537Z" fill="#3F3D56"/>
<path d="M298.111 133.202C298.416 133.283 298.721 133.353 299.026 133.407C299.974 133.585 300.922 133.639 301.846 133.574C304.652 133.407 307.299 132.215 309.438 130.252C311.7 128.18 313.389 125.252 314.098 121.767C315.764 113.542 311.311 105.312 304.155 103.397C297.102 101.504 290.05 106.444 288.248 114.459C288.22 114.583 288.191 114.702 288.168 114.826C286.502 123.057 290.95 131.282 298.111 133.202Z" fill="#A0616A"/>
<path d="M277.892 239.333L284.739 228.417L290.71 232.043L283.113 243.288C283.137 243.722 283.108 244.167 283.016 244.612C282.518 247.033 280.406 248.531 278.3 247.958C276.194 247.386 274.891 244.959 275.389 242.538C275.707 240.994 276.682 239.829 277.892 239.333Z" fill="#A0616A"/>
<path d="M310.3 152.475H296.587L294.514 201.597C294.514 201.597 294.503 203.525 293.825 202.954C293.146 202.383 293.089 204.403 293.089 204.403C293.089 204.403 293.058 207.491 292.418 205.723C291.779 203.955 291.692 207.154 291.692 207.154L279.51 231.139L277.349 235.393L289.044 239.323C289.044 239.323 289.562 238.624 290.429 237.409C294.8 231.281 308.028 212.024 308.189 203.169C308.383 192.559 310.3 152.475 310.3 152.475Z" fill="#9775FA"/>
<path d="M292.462 163.871C292.462 163.871 303.403 147.366 312.976 163.085L310.924 142.651L300.462 140.436C299.848 140.36 299.319 140.926 299.339 141.635L292.462 163.871Z" fill="#3F3D56"/>
<path d="M296.565 147.366L296.531 144.647L296.216 144.065L296.565 143.437L296.62 143.295L297.933 137.149L309.625 132.433L312.771 137.974C308.046 141.637 306.972 147.5 296.565 147.366Z" fill="#9775FA"/>
<path d="M307.603 130.931L306.464 121.095C306.35 120.119 305.246 119.825 304.77 120.644H302.719L300.668 112.784C300.668 112.784 299.886 116.342 298.563 115.47C297.107 114.51 295.284 114.992 293.665 115.499L294.404 113.241L291.111 114.276L291.553 112.674L289.507 113.427C289.859 113.126 289.542 112.41 289.108 112.333C288.675 112.255 286.992 114.356 286.308 114.356C285.745 114.356 285.19 113.837 284.755 113.425C283.601 112.333 283.025 106.85 283.573 105.711C284.59 103.599 286.898 104.301 288.36 102.567C288.685 102.181 292.131 102.161 292.462 101.781C292.871 101.312 295.824 99.6344 296.401 99.6286C296.979 99.6227 297.524 100.453 297.149 100.957C297.417 99.957 298.536 99.6992 299.446 99.7194C300.086 99.7336 302.081 97.7865 302.719 97.8513C304.093 97.9909 304.11 100.142 305.484 100.282C306.593 100.395 307.91 100.672 308.347 101.849C308.56 102.425 308.496 103.078 308.512 103.703C308.528 104.328 308.67 105.026 309.134 105.354C309.537 105.64 310.077 105.548 310.484 105.268C310.891 104.988 311.193 104.55 311.487 104.122C311.931 105.773 314.426 109.782 314.87 111.433C315.319 113.103 315.77 114.781 315.999 116.509C316.697 121.778 311.762 127.376 308.585 131.257" fill="#2F2E41"/>
<path d="M203.229 86.455C198.893 86.455 195.366 90.5095 195.366 95.4935V159.942C195.366 164.926 198.893 168.98 203.229 168.98H259.299C263.635 168.98 267.163 164.926 267.163 159.942V95.4935C267.163 90.5095 263.635 86.455 259.299 86.455H203.229Z" fill="#F2F2F2"/>
<path d="M209.041 93.5286C204.705 93.5286 201.178 97.5831 201.178 102.567V116.714C201.178 121.698 204.705 125.753 209.041 125.753H221.349C225.685 125.753 229.213 121.698 229.213 116.714V102.567C229.213 97.5831 225.685 93.5286 221.349 93.5286H209.041Z" fill="#9775FA"/>
<path d="M241.179 93.5286C236.843 93.5286 233.316 97.5831 233.316 102.567V116.714C233.316 121.698 236.843 125.753 241.179 125.753H253.487C257.823 125.753 261.35 121.698 261.35 116.714V102.567C261.35 97.5831 257.823 93.5286 253.487 93.5286H241.179Z" fill="#9775FA"/>
<path d="M209.041 129.682C204.705 129.682 201.178 133.737 201.178 138.721V152.868C201.178 157.852 204.705 161.907 209.041 161.907H221.349C225.685 161.907 229.213 157.852 229.213 152.868V138.721C229.213 133.737 225.685 129.682 221.349 129.682H209.041Z" fill="white"/>
<path d="M236.672 129.682C234.821 129.682 233.316 131.413 233.316 133.54V139.579C233.316 141.706 234.821 143.437 236.672 143.437H241.925C243.776 143.437 245.282 141.706 245.282 139.579V133.54C245.282 131.413 243.776 129.682 241.925 129.682H236.672Z" fill="white"/>
<path d="M253.083 129.682C251.232 129.682 249.726 131.413 249.726 133.54V139.579C249.726 141.706 251.232 143.437 253.083 143.437H258.336C260.187 143.437 261.692 141.706 261.692 139.579V133.54C261.692 131.413 260.187 129.682 258.336 129.682H253.083Z" fill="white"/>
<path d="M236.672 147.759C234.821 147.759 233.316 149.49 233.316 151.617V157.656C233.316 159.783 234.821 161.514 236.672 161.514H241.925C243.776 161.514 245.282 159.783 245.282 157.656V151.617C245.282 149.49 243.776 147.759 241.925 147.759H236.672Z" fill="white"/>
<path d="M253.083 147.759C251.232 147.759 249.726 149.49 249.726 151.617V157.656C249.726 159.783 251.232 161.514 253.083 161.514H258.336C260.187 161.514 261.692 159.783 261.692 157.656V151.617C261.692 149.49 260.187 147.759 258.336 147.759H253.083Z" fill="white"/>
<path d="M340.899 423.377C342.312 423.479 343.092 421.461 342.024 420.286L341.917 419.8C341.931 419.761 341.945 419.722 341.959 419.683C343.388 415.768 348.23 415.795 349.646 419.716C350.903 423.196 352.504 426.683 352.898 430.363C353.075 431.987 352.995 433.642 352.682 435.236C355.627 427.839 357.178 419.763 357.178 411.641C357.178 409.6 357.08 407.559 356.882 405.524C356.718 403.859 356.493 402.204 356.201 400.564C354.625 391.701 351.211 383.259 346.287 376.208C343.919 374.72 341.945 372.395 340.753 369.609C340.324 368.603 339.989 367.522 339.83 366.421C340.099 366.461 340.846 361.745 340.642 361.456C341.018 360.801 341.69 360.475 342.1 359.836C344.139 356.659 346.949 357.213 348.415 361.532C351.549 363.35 351.579 366.364 349.656 369.263C348.433 371.108 348.265 373.604 347.192 375.578C347.302 375.741 347.417 375.898 347.528 376.061C349.552 379.046 351.303 382.254 352.78 385.625C352.363 381.878 352.978 377.366 354.029 374.456C355.224 371.142 357.465 368.35 359.438 365.485C361.808 362.043 366.667 363.545 367.085 367.908C367.089 367.95 367.093 367.993 367.097 368.035C366.804 368.225 366.517 368.427 366.236 368.64C364.637 369.856 365.189 372.706 367.085 373.043L367.128 373.05C367.022 374.263 366.841 375.467 366.576 376.649C369.107 387.901 363.642 391.999 355.839 392.183C355.667 392.285 355.499 392.386 355.327 392.483C356.118 395.041 356.749 397.666 357.217 400.326C357.637 402.676 357.928 405.052 358.092 407.438C358.295 410.448 358.277 413.473 358.056 416.479L358.07 416.372C358.63 413.062 360.194 409.971 362.464 407.828C365.846 404.635 370.623 403.46 374.272 400.893C376.028 399.658 378.278 401.254 377.972 403.594L377.957 403.706C377.414 403.96 376.884 404.255 376.371 404.585C376.078 404.775 375.791 404.977 375.511 405.19C373.911 406.406 374.464 409.256 376.359 409.593L376.402 409.6C376.433 409.605 376.46 409.61 376.491 409.615C375.559 412.159 374.26 414.519 372.635 416.555C371.052 426.377 364.255 427.309 356.983 424.448H356.979C356.184 428.428 355.022 432.317 353.529 436.023H341.208C341.163 435.865 341.124 435.703 341.084 435.545C342.223 435.627 343.372 435.55 344.494 435.312C343.579 434.023 342.665 432.723 341.751 431.434C341.729 431.408 341.711 431.383 341.693 431.357C341.23 430.698 340.762 430.043 340.298 429.383L340.298 429.382C340.269 427.356 340.48 425.337 340.899 423.377Z" fill="#F2F2F2"/>
<path d="M0 436.065C0 436.583 0.362423 437 0.813738 437H377.09C377.542 437 377.904 436.583 377.904 436.065C377.904 435.546 377.542 435.129 377.09 435.129H0.813738C0.362423 435.129 0 435.546 0 436.065Z" fill="#CCCCCC"/>
</g>
<defs>
<clipPath id="clip0_1211_1256">
<rect width="378" height="381" fill="white"/>
</clipPath>
</defs>
</svg>
