<svg width="327" height="31" viewBox="0 0 327 31" fill="none" xmlns="http://www.w3.org/2000/svg">
<line y1="15.5" x2="327" y2="15.5" stroke="#E5E7EB"/>
<rect x="137" width="53" height="31" fill="white"/>
<path d="M158.086 10.5391C159.706 10.5391 160.99 11.0625 161.938 12.1094C162.891 13.1562 163.367 14.5755 163.367 16.3672C163.367 18.1589 162.893 19.5781 161.945 20.625C160.997 21.6667 159.711 22.1875 158.086 22.1875C156.461 22.1875 155.174 21.6667 154.227 20.625C153.279 19.5781 152.805 18.1589 152.805 16.3672C152.805 14.5755 153.279 13.1562 154.227 12.1094C155.174 11.0625 156.461 10.5391 158.086 10.5391ZM158.086 12.0781C157.013 12.0781 156.161 12.4635 155.531 13.2344C154.906 14.0052 154.594 15.0495 154.594 16.3672C154.594 17.6797 154.906 18.7214 155.531 19.4922C156.161 20.263 157.013 20.6484 158.086 20.6484C159.154 20.6484 160 20.263 160.625 19.4922C161.255 18.7214 161.57 17.6797 161.57 16.3672C161.57 15.0495 161.255 14.0052 160.625 13.2344C160 12.4635 159.154 12.0781 158.086 12.0781ZM166.789 12.1953V16.25H169.242C169.919 16.25 170.443 16.0729 170.812 15.7188C171.182 15.3646 171.367 14.8646 171.367 14.2188C171.367 13.5885 171.174 13.0938 170.789 12.7344C170.404 12.375 169.872 12.1953 169.195 12.1953H166.789ZM166.789 17.6641V22H165.039V10.7266H169.406C170.562 10.7266 171.479 11.0391 172.156 11.6641C172.833 12.2839 173.172 13.1198 173.172 14.1719C173.172 14.9375 172.977 15.6094 172.586 16.1875C172.201 16.7604 171.667 17.1615 170.984 17.3906L173.508 22H171.492L169.195 17.6641H166.789Z" fill="#A1A8B0"/>
</svg>
