<svg width="310" height="216" viewBox="0 0 310 216" fill="none" xmlns="http://www.w3.org/2000/svg">
<g filter="url(#filter0_f_1224_455)">
<path d="M221.883 91.2421C221.011 91.2421 220.138 91.2735 219.266 91.3363C216.327 74.7883 201.5 62.1654 183.604 62.1654C175.431 62.1654 167.905 64.803 161.832 69.2304C155.275 57.9891 142.87 50.4216 128.657 50.4216C107.596 50.4216 90.5399 67.001 90.5399 87.474C90.5399 88.7615 90.6045 90.0489 90.7337 91.3049C89.8616 91.2421 88.9894 91.2107 88.1172 91.2107C67.0558 91.2107 50 107.79 50 128.263C50 148.736 67.0558 165.316 88.1172 165.316H221.85C242.912 165.316 259.968 148.736 259.968 128.263C259.968 107.79 242.944 91.2421 221.883 91.2421Z" fill="url(#paint0_linear_1224_455)" fill-opacity="0.3"/>
</g>
<path d="M221.883 85.8205C221.011 85.8205 220.138 85.8519 219.266 85.9147C216.327 69.3667 201.5 56.7437 183.604 56.7437C175.431 56.7437 167.905 59.3814 161.832 63.8088C155.275 52.5675 142.87 45 128.657 45C107.596 45 90.5399 61.5794 90.5399 82.0524C90.5399 83.3398 90.6045 84.6272 90.7337 85.8833C89.8616 85.8204 88.9894 85.7891 88.1172 85.7891C67.0558 85.7891 50 102.368 50 122.841C50 143.314 67.0558 159.894 88.1172 159.894H221.85C242.912 159.894 259.968 143.314 259.968 122.841C259.968 102.368 242.944 85.8205 221.883 85.8205Z" fill="#AAD0E2"/>
<path d="M221.883 85.8205C221.011 85.8205 220.138 85.8519 219.266 85.9147C216.327 69.3667 201.5 56.7437 183.604 56.7437C175.431 56.7437 167.905 59.3814 161.832 63.8088C155.275 52.5675 142.87 45 128.657 45C107.596 45 90.5399 61.5794 90.5399 82.0524C90.5399 83.3398 90.6045 84.6272 90.7337 85.8833C89.8616 85.8205 88.9894 85.7891 88.1172 85.7891C67.0558 85.7891 50 102.368 50 122.841C50 143.314 67.0558 159.894 88.1172 159.894H221.85C242.912 159.894 259.968 143.314 259.968 122.841C259.968 102.368 242.944 85.8205 221.883 85.8205Z" fill="url(#paint1_linear_1224_455)"/>
<path d="M144.13 53.2266C140.609 52.1276 136.83 51.531 132.921 51.531C112.603 51.531 96.1606 67.5452 96.1606 87.2646C96.1606 88.5206 96.2252 89.7453 96.3544 90.9699C95.5145 90.9071 94.6747 90.8757 93.8348 90.8757C73.5164 90.8757 57.0743 106.89 57.0743 126.609C57.0743 133.109 58.8509 139.169 61.952 144.413C60.563 128.274 63.0503 97.5011 102.815 98.2548C102.427 87.767 104.333 54.7338 144.13 53.2266Z" fill="#B298FF"/>
<path d="M106.562 159.894H221.883C242.944 159.894 260 143.314 260 122.841C260 118.477 259.225 114.269 257.771 110.375C232.737 158.387 147.974 154.148 106.562 159.894Z" fill="#6B48D0"/>
<path d="M185.575 150.756H177.144V123.595C177.144 111.757 167.227 102.117 155.049 102.117C142.87 102.117 132.953 111.757 132.953 123.595V150.756H124.522V123.595C124.522 107.204 138.219 93.8904 155.081 93.8904C171.943 93.8904 185.639 107.204 185.639 123.595V150.756H185.575Z" fill="url(#paint2_linear_1224_455)"/>
<path d="M198.496 191.828C198.496 193.587 197.042 195 195.233 195H114.799C112.99 195 111.537 193.587 111.537 191.828V141.054C111.537 139.295 112.99 137.882 114.799 137.882H195.201C197.01 137.882 198.463 139.295 198.463 141.054V191.828H198.496Z" fill="url(#paint3_linear_1224_455)"/>
<path d="M177.111 137.85C177.111 137.85 184.379 129.058 185.284 119.576V137.85H177.111Z" fill="#5C5A5A"/>
<path d="M198.496 191.828V160.71C172.007 182.502 133.793 190.698 112.151 193.681C112.732 194.466 113.701 194.999 114.799 194.999H195.201C197.042 195.031 198.496 193.586 198.496 191.828Z" fill="url(#paint4_linear_1224_455)"/>
<path d="M162.187 157.821C162.187 153.959 158.957 150.851 155.016 150.851C151.043 150.851 147.845 153.991 147.845 157.821C147.845 160.114 149.008 162.155 150.752 163.442L148.459 179.237H161.573L159.28 163.442C161.057 162.155 162.187 160.145 162.187 157.821Z" fill="#72716F"/>
<path d="M148.459 179.236C148.459 179.236 158.699 175.436 159.474 164.635L161.606 179.236H148.459Z" fill="#5C5A5A"/>
<defs>
<filter id="filter0_f_1224_455" x="0" y="0.421631" width="309.968" height="214.894" filterUnits="userSpaceOnUse" color-interpolation-filters="sRGB">
<feFlood flood-opacity="0" result="BackgroundImageFix"/>
<feBlend mode="normal" in="SourceGraphic" in2="BackgroundImageFix" result="shape"/>
<feGaussianBlur stdDeviation="25" result="effect1_foregroundBlur_1224_455"/>
</filter>
<linearGradient id="paint0_linear_1224_455" x1="103.667" y1="60.3614" x2="226.187" y2="169.101" gradientUnits="userSpaceOnUse">
<stop stop-color="#AE93FF"/>
<stop offset="1" stop-color="#6A42DE"/>
</linearGradient>
<linearGradient id="paint1_linear_1224_455" x1="103.667" y1="54.9398" x2="226.187" y2="163.679" gradientUnits="userSpaceOnUse">
<stop stop-color="#AE93FF"/>
<stop offset="1" stop-color="#6A42DE"/>
</linearGradient>
<linearGradient id="paint2_linear_1224_455" x1="155.081" y1="93.8904" x2="155.081" y2="150.756" gradientUnits="userSpaceOnUse">
<stop stop-color="#72716F"/>
<stop offset="1" stop-color="#5B5953"/>
</linearGradient>
<linearGradient id="paint3_linear_1224_455" x1="120.933" y1="142.139" x2="186.517" y2="193.885" gradientUnits="userSpaceOnUse">
<stop stop-color="#FFEA97"/>
<stop offset="1" stop-color="#EBC428"/>
</linearGradient>
<linearGradient id="paint4_linear_1224_455" x1="155.323" y1="160.71" x2="155.323" y2="195" gradientUnits="userSpaceOnUse">
<stop stop-color="#EAB531"/>
<stop offset="1" stop-color="#EAB531" stop-opacity="0"/>
</linearGradient>
</defs>
</svg>
