<svg width="22" height="22" viewBox="0 0 22 22" fill="none" xmlns="http://www.w3.org/2000/svg">
<rect width="22" height="22" rx="11" fill="#1DA1F2"/>
<path d="M16.3912 8.62256C16.3912 8.74287 16.3912 8.86318 16.3912 8.96631C16.3912 12.5241 13.6756 16.6319 8.72556 16.6319C7.19587 16.6319 5.7865 16.1851 4.58337 15.4288C4.78962 15.446 5.01306 15.4632 5.21931 15.4632C6.474 15.4632 7.64275 15.0335 8.57087 14.3116C7.38494 14.2944 6.38806 13.5038 6.0615 12.4382C6.23337 12.4726 6.38806 12.4897 6.57712 12.4897C6.81775 12.4897 7.05837 12.4554 7.28181 12.3866C6.04431 12.146 5.11619 11.0632 5.11619 9.75693C5.11619 9.73975 5.11619 9.73975 5.11619 9.72256C5.47712 9.92881 5.88962 10.0491 6.3365 10.0663C5.61462 9.58506 5.13337 8.76006 5.13337 7.81475C5.13337 7.31631 5.27087 6.85225 5.49431 6.45693C6.81775 8.08975 8.8115 9.15537 11.0459 9.27568C10.9943 9.08662 10.9771 8.86318 10.9771 8.65693C10.9771 7.16162 12.1802 5.9585 13.6756 5.9585C14.449 5.9585 15.1537 6.28506 15.6349 6.80068C16.2537 6.68037 16.8209 6.45693 17.3537 6.14756C17.1474 6.7835 16.7177 7.29912 16.1677 7.64287C16.7177 7.57412 17.2334 7.43662 17.7146 7.21318C17.3709 7.76318 16.924 8.24443 16.3912 8.62256Z" fill="#FEFEFE"/>
</svg>
