<svg width="279" height="232" viewBox="0 0 279 232" fill="none" xmlns="http://www.w3.org/2000/svg">
<g clip-path="url(#clip0_1253_565)">
<path d="M199.319 52.5229H197.336C196.945 52.5229 196.628 52.8405 196.628 53.2323V79.8795C196.628 80.2713 196.945 80.5889 197.336 80.5889H199.319C199.71 80.5889 200.027 80.2713 200.027 79.8795V53.2323C200.027 52.8405 199.71 52.5229 199.319 52.5229Z" fill="#3F3D56"/>
<path d="M186.409 0H96.8275C90.1711 0 84.775 5.40739 84.775 12.0777V219.458C84.775 226.128 90.1711 231.535 96.8275 231.535H186.409C193.066 231.535 198.462 226.128 198.462 219.458V12.0777C198.462 5.40739 193.066 0 186.409 0Z" fill="#3F3D56"/>
<path d="M182.639 6.03076H169.597V7.60282C169.597 8.58136 169.405 9.55032 169.031 10.4543C168.657 11.3583 168.11 12.1797 167.419 12.8714C166.728 13.5632 165.908 14.1118 165.006 14.4859C164.104 14.86 163.137 15.0523 162.16 15.0517H120.686C119.709 15.0523 118.742 14.86 117.84 14.4859C116.938 14.1118 116.118 13.5632 115.427 12.8714C114.737 12.1797 114.189 11.3583 113.815 10.4543C113.441 9.55032 113.249 8.58136 113.249 7.60282V6.03076H101.038C98.6438 6.03076 96.3472 6.98402 94.6539 8.68084C92.9607 10.3777 92.0094 12.679 92.0094 15.0787V216.472C92.0094 218.872 92.9607 221.173 94.6539 222.87C96.3472 224.567 98.6438 225.52 101.038 225.52H182.639C185.033 225.52 187.33 224.567 189.023 222.87C190.716 221.173 191.668 218.872 191.668 216.472V15.0942C191.67 13.9047 191.438 12.7265 190.985 11.6269C190.532 10.5274 189.867 9.52813 189.029 8.68631C188.19 7.84449 187.194 7.17664 186.097 6.72097C185.001 6.2653 183.826 6.03076 182.639 6.03076Z" fill="#FCFCFC"/>
<path d="M145.332 6.91455H131.849C131.188 6.91455 130.652 7.45127 130.652 8.11334V8.94444C130.652 9.60651 131.188 10.1432 131.849 10.1432H145.332C145.992 10.1432 146.528 9.60651 146.528 8.94444V8.11334C146.528 7.45127 145.992 6.91455 145.332 6.91455Z" fill="#E6E8EC"/>
<path d="M150.759 10.3628C151.769 10.3628 152.588 9.54191 152.588 8.5293C152.588 7.51669 151.769 6.6958 150.759 6.6958C149.748 6.6958 148.929 7.51669 148.929 8.5293C148.929 9.54191 149.748 10.3628 150.759 10.3628Z" fill="#E6E8EC"/>
<path d="M142.313 140.162C154.19 140.162 163.819 130.513 163.819 118.61C163.819 106.708 154.19 97.0591 142.313 97.0591C130.435 97.0591 120.806 106.708 120.806 118.61C120.806 130.513 130.435 140.162 142.313 140.162Z" fill="#FCFCFC"/>
<path d="M170.6 115.601C170.599 121.298 168.913 126.867 165.755 131.603C162.596 136.34 158.107 140.032 152.855 142.212C147.602 144.392 141.823 144.962 136.247 143.85C130.671 142.739 125.55 139.995 121.53 135.967C117.51 131.938 114.773 126.806 113.664 121.218C112.555 115.631 113.124 109.839 115.3 104.576C117.476 99.3131 121.16 94.8146 125.887 91.6498C130.614 88.4849 136.171 86.7957 141.856 86.7959C145.631 86.796 149.369 87.5412 152.856 88.9888C156.344 90.4365 159.512 92.5583 162.181 95.2331C164.85 97.9079 166.967 101.083 168.412 104.578C169.856 108.073 170.6 111.818 170.6 115.601ZM138.534 130.848L159.856 109.481C160.028 109.308 160.165 109.104 160.259 108.878C160.352 108.652 160.4 108.411 160.4 108.166C160.4 107.922 160.352 107.68 160.259 107.455C160.165 107.229 160.028 107.024 159.856 106.852L157.232 104.242C157.061 104.069 156.856 103.932 156.632 103.839C156.407 103.745 156.166 103.697 155.922 103.697C155.679 103.697 155.438 103.745 155.213 103.839C154.988 103.932 154.784 104.069 154.613 104.242L137.222 121.669L129.102 113.513C128.754 113.166 128.282 112.971 127.791 112.971C127.299 112.971 126.827 113.166 126.479 113.513L123.855 116.158C123.509 116.507 123.314 116.979 123.314 117.472C123.314 117.965 123.509 118.437 123.855 118.787L135.911 130.863C136.083 131.036 136.287 131.173 136.513 131.267C136.738 131.36 136.979 131.409 137.223 131.409C137.466 131.409 137.708 131.36 137.933 131.267C138.158 131.173 138.362 131.036 138.534 130.863L138.534 130.848Z" fill="#9775FA"/>
<path d="M255.011 230.96C262.693 230.96 268.92 229.905 268.92 228.603C268.92 227.301 262.693 226.246 255.011 226.246C247.329 226.246 241.102 227.301 241.102 228.603C241.102 229.905 247.329 230.96 255.011 230.96Z" fill="#9775FA"/>
<path d="M260.763 224.749C261.397 224.229 261.859 223.53 262.088 222.742C262.261 221.948 261.922 221.007 261.161 220.7C260.31 220.374 259.399 220.967 258.712 221.563C258.024 222.159 257.231 222.842 256.328 222.714C256.793 222.293 257.141 221.759 257.338 221.163C257.536 220.567 257.575 219.93 257.454 219.314C257.413 219.058 257.305 218.819 257.139 218.62C256.669 218.114 255.81 218.329 255.247 218.731C253.448 219.996 252.947 222.449 252.936 224.648C252.753 223.854 252.909 223.026 252.902 222.221C252.895 221.417 252.677 220.487 251.989 220.062C251.564 219.834 251.087 219.721 250.605 219.736C249.796 219.705 248.896 219.788 248.343 220.381C247.651 221.116 247.838 222.35 248.433 223.154C249.028 223.958 249.938 224.474 250.775 225.033C251.444 225.433 252.014 225.979 252.444 226.631C252.495 226.722 252.537 226.818 252.568 226.918H257.621C258.761 226.34 259.817 225.611 260.762 224.75L260.763 224.749Z" fill="#9775FA"/>
<path d="M65.9077 232C70.9771 232 75.0867 231.304 75.0867 230.445C75.0867 229.586 70.9771 228.889 65.9077 228.889C60.8383 228.889 56.7288 229.586 56.7288 230.445C56.7288 231.304 60.8383 232 65.9077 232Z" fill="#EFEFEF"/>
<path d="M69.7039 227.901C70.1222 227.558 70.427 227.096 70.5781 226.576C70.6446 226.316 70.6203 226.04 70.509 225.795C70.3977 225.55 70.2063 225.35 69.9663 225.229C69.4047 225.014 68.8043 225.405 68.3503 225.799C67.8962 226.192 67.3731 226.643 66.7775 226.558C67.0841 226.28 67.3136 225.927 67.4436 225.534C67.5736 225.141 67.5997 224.721 67.5193 224.314C67.4926 224.146 67.4208 223.988 67.3116 223.857C67.0025 223.523 66.435 223.665 66.0631 223.93C64.8761 224.766 64.545 226.382 64.5382 227.835C64.4174 227.311 64.52 226.764 64.5153 226.234C64.5107 225.703 64.367 225.09 63.9126 224.809C63.6323 224.658 63.3173 224.584 62.9994 224.594C62.4653 224.573 61.8718 224.628 61.5064 225.019C61.0498 225.504 61.1731 226.319 61.5657 226.849C61.9583 227.38 62.5586 227.721 63.1113 228.088C63.5531 228.352 63.93 228.712 64.2139 229.142C64.2482 229.202 64.2757 229.265 64.2962 229.331H67.6312C68.3832 228.95 69.0804 228.468 69.7039 227.899V227.901Z" fill="#EFEFEF"/>
<path d="M13.9969 232C19.0663 232 23.1758 231.304 23.1758 230.445C23.1758 229.586 19.0663 228.889 13.9969 228.889C8.92749 228.889 4.81793 229.586 4.81793 230.445C4.81793 231.304 8.92749 232 13.9969 232Z" fill="#EFEFEF"/>
<path d="M17.7931 227.901C18.2114 227.558 18.5162 227.096 18.6673 226.576C18.7339 226.316 18.7095 226.04 18.5982 225.795C18.487 225.55 18.2955 225.35 18.0556 225.229C17.4939 225.014 16.8936 225.405 16.4395 225.799C15.9854 226.192 15.4624 226.643 14.8667 226.558C15.1733 226.28 15.4028 225.927 15.5328 225.534C15.6628 225.141 15.689 224.721 15.6086 224.314C15.5818 224.146 15.5101 223.988 15.4009 223.857C15.0917 223.523 14.5242 223.665 14.1523 223.93C12.9653 224.766 12.6342 226.382 12.6274 227.835C12.5066 227.311 12.6092 226.764 12.6046 226.234C12.5999 225.703 12.4562 225.09 12.0018 224.809C11.7215 224.658 11.4066 224.584 11.0886 224.594C10.5545 224.573 9.961 224.628 9.59562 225.019C9.13905 225.504 9.26238 226.319 9.65496 226.849C10.0475 227.38 10.6478 227.721 11.2005 228.088C11.6423 228.352 12.0192 228.712 12.3032 229.142C12.3374 229.202 12.365 229.265 12.3854 229.331H15.7205C16.4725 228.95 17.1697 228.468 17.7931 227.899V227.901Z" fill="#EFEFEF"/>
<path d="M279 231.112H0V231.676H279V231.112Z" fill="#2F2E41"/>
<path d="M265.381 15.6503C265.381 15.6503 236.256 13.8893 239.687 34.3406C239.687 34.3406 238.995 37.9559 242.274 39.5955C242.274 39.5955 242.326 38.0807 245.263 38.5971C246.309 38.7707 247.371 38.8219 248.428 38.7495C249.854 38.6555 251.212 38.0995 252.295 37.1653C252.295 37.1653 260.483 33.7753 263.665 20.3677C263.665 20.3677 266.021 17.4423 265.927 16.6899L261.012 18.7938C261.012 18.7938 262.693 22.3468 261.358 25.2989C261.358 25.2989 261.199 18.9208 260.255 19.0596C260.065 19.0875 257.702 20.29 257.702 20.29C257.702 20.29 260.59 26.4772 258.411 30.9769C258.411 30.9769 259.238 23.3511 256.799 20.7373L253.34 22.7616C253.34 22.7616 256.716 29.1536 254.426 34.3703C254.426 34.3703 255.014 26.37 252.61 23.2538L249.476 25.7044C249.476 25.7044 252.648 32.0025 250.715 36.3293C250.715 36.3293 250.462 27.0187 248.798 26.3152C248.798 26.3152 246.055 28.7416 245.636 29.7328C245.636 29.7328 247.809 34.3084 246.46 36.7208C246.46 36.7208 245.633 30.5162 244.955 30.4816C244.955 30.4816 242.222 34.5924 241.938 37.4141C241.938 37.4141 242.056 33.2233 244.294 30.0934C244.294 30.0934 241.651 30.5475 240.108 32.2618C240.108 32.2618 240.534 29.3571 244.968 29.1006C244.968 29.1006 247.227 25.981 247.829 25.7939C247.829 25.7939 243.422 25.4222 240.748 26.612C240.748 26.612 243.1 23.8702 248.639 25.118L251.734 22.5841C251.734 22.5841 245.93 21.7902 243.467 22.6674C243.467 22.6674 246.3 20.241 252.568 22.0089L255.938 19.9914C255.938 19.9914 250.988 18.9236 248.04 19.2981C248.04 19.2981 251.154 17.617 256.927 19.4403L259.348 18.3561C259.348 18.3561 255.723 17.6421 254.661 17.5278C253.599 17.4135 253.544 17.1223 253.544 17.1223C255.84 16.7386 258.198 17.0014 260.355 17.8816C260.355 17.8816 265.468 15.9728 265.381 15.6503Z" fill="#9775FA"/>
<path d="M225.475 4.82322C225.475 4.82322 212.331 4.0293 213.866 13.2705C213.866 13.2705 213.557 14.9033 215.035 15.6449C215.035 15.6449 215.06 14.9516 216.388 15.1907C216.86 15.2703 217.339 15.2936 217.816 15.2601C218.462 15.2173 219.075 14.9641 219.563 14.539C219.563 14.539 223.264 13.0069 224.703 6.9479C224.703 6.9479 225.765 5.62737 225.723 5.28756L223.503 6.2373C223.503 6.2373 224.26 7.84219 223.665 9.17666C223.665 9.17666 223.592 6.29585 223.167 6.36213C223.081 6.36213 222.012 6.91971 222.012 6.91971C222.012 6.91971 223.319 9.71689 222.333 11.7483C222.333 11.7483 222.707 8.30281 221.604 7.12075L220.04 8.05005C220.04 8.05005 221.566 10.9374 220.531 13.2947C220.531 13.2947 220.798 9.67941 219.712 8.27215L218.297 9.38141C218.297 9.38141 219.729 12.2272 218.857 14.1828C218.857 14.1828 218.74 9.97461 217.989 9.65586C217.989 9.65586 216.75 10.7512 216.56 11.2019C216.56 11.2019 217.542 13.2817 216.934 14.3596C216.934 14.3596 216.56 11.5553 216.242 11.5408C216.242 11.5408 215.007 13.3994 214.879 14.6604C214.941 13.484 215.308 12.3442 215.945 11.3537C215.232 11.489 214.574 11.8299 214.052 12.3347C214.052 12.3347 214.246 11.021 216.249 10.9067C216.249 10.9067 217.287 9.49603 217.543 9.40929C217.543 9.40929 215.55 9.24295 214.343 9.78101C214.343 9.78101 215.405 8.5435 217.906 9.1051L219.29 7.96114C219.29 7.96114 216.665 7.61111 215.552 7.99707C215.552 7.99707 216.832 6.90174 219.665 7.69908L221.187 6.78744C221.187 6.78744 218.949 6.30576 217.618 6.47768C217.618 6.47768 219.025 5.71844 221.634 6.53963L222.723 6.05082C222.723 6.05082 221.085 5.72835 220.603 5.67631C220.12 5.62427 220.098 5.49262 220.098 5.49262C221.136 5.31952 222.202 5.43954 223.176 5.83925C223.176 5.83925 225.516 4.96757 225.475 4.82322Z" fill="#3F3D56"/>
<path d="M44.6948 145.902C44.6948 145.902 31.5505 145.108 33.0862 154.349C33.0862 154.349 32.7771 155.982 34.2553 156.723C34.2553 156.723 34.2794 156.03 35.6077 156.269C36.0794 156.349 36.5589 156.372 37.0361 156.339C37.6814 156.296 38.2949 156.043 38.783 155.618C38.783 155.618 42.484 154.086 43.923 148.027C43.923 148.027 44.9848 146.706 44.9431 146.366L42.7224 147.316C42.7224 147.316 43.48 148.921 42.885 150.255C42.885 150.255 42.8123 147.374 42.387 147.441C42.3004 147.441 41.2315 147.998 41.2315 147.998C41.2315 147.998 42.5391 150.795 41.5533 152.827C41.5533 152.827 41.9267 149.381 40.8234 148.199L39.2599 149.129C39.2599 149.129 40.7854 152.016 39.7511 154.373C39.7511 154.373 40.0176 150.758 38.9313 149.351L37.5165 150.46C37.5165 150.46 38.9486 153.306 38.0769 155.261C38.0769 155.261 37.9595 151.053 37.2086 150.734C37.2086 150.734 35.9703 151.83 35.7799 152.281C35.7799 152.281 36.7623 154.36 36.1536 155.438C36.1536 155.438 35.7799 152.634 35.4618 152.619C35.4618 152.619 34.2269 154.478 34.0989 155.739C34.1607 154.563 34.528 153.423 35.1644 152.432C34.4518 152.568 33.7942 152.909 33.2723 153.413C33.2723 153.413 33.4661 152.1 35.4689 151.985C35.4689 151.985 36.5066 150.575 36.7626 150.488C36.7626 150.488 34.7703 150.322 33.5629 150.86C33.5629 150.86 34.6247 149.622 37.1258 150.184L38.5094 149.04C38.5094 149.04 35.885 148.69 34.7722 149.076C34.7722 149.076 36.0519 147.98 38.885 148.778L40.4071 147.866C40.4071 147.866 38.1691 147.384 36.8374 147.556C36.8374 147.556 38.2451 146.797 40.8534 147.618L41.9431 147.129C41.9431 147.129 40.3048 146.807 39.8225 146.755C39.3403 146.703 39.3174 146.571 39.3174 146.571C40.3558 146.398 41.4218 146.518 42.3959 146.918C42.3959 146.918 44.7353 146.046 44.6948 145.902Z" fill="#3F3D56"/>
</g>
<defs>
<clipPath id="clip0_1253_565">
<rect width="279" height="232" fill="white"/>
</clipPath>
</defs>
</svg>
