<svg width="20" height="20" viewBox="0 0 20 20" fill="none" xmlns="http://www.w3.org/2000/svg">
<g clip-path="url(#clip0_1600_191)">
<path d="M10.5191 10.8909H6.00055V15.6795H10.5191V10.8909Z" fill="white"/>
<path d="M9.46192 7.33071C8.69454 6.75106 8.18738 5.8849 8.03919 4.94629H3.5865C3.44161 5.88821 2.9344 6.7478 2.16376 7.33071C1.50178 7.8313 1.10986 8.62171 1.10986 9.44839V11.2038H3.06284C3.36912 11.2038 3.61941 11.4508 3.61941 11.7604C3.61941 12.0667 3.37243 12.3169 3.06284 12.3169H1.10986V13.4301H2.19667C2.50295 13.4301 2.75324 13.6771 2.75324 13.9867C2.75324 14.293 2.50626 14.5433 2.19667 14.5433H1.10986V17.8005C1.10986 18.4031 1.5973 18.8906 2.19998 18.8906H9.42901C10.0317 18.8906 10.5191 18.4031 10.5191 17.8005V16.796H5.444C5.13772 16.796 4.88743 16.549 4.88743 16.2394V10.3343C4.88743 10.028 5.13441 9.7777 5.444 9.7777H10.5191V9.45165C10.5191 8.62171 10.1239 7.8313 9.46192 7.33071Z" fill="white"/>
<path d="M8.74731 1.12256H2.88177C2.57549 1.12256 2.3252 1.36954 2.3252 1.67913V3.83629H9.30062V1.67913C9.30062 1.37616 9.05359 1.12256 8.74731 1.12256Z" fill="#56ACE0"/>
<path d="M2.21979 17.7774V9.45496C2.21979 8.97414 2.44705 8.50973 2.83235 8.22322C3.57008 7.66664 4.12008 6.91245 4.43294 6.06274H7.18951C7.50568 6.90914 8.05568 7.66333 8.7901 8.22322C9.17545 8.51304 9.40266 8.97409 9.40266 9.45496V17.7774H2.21979V17.7774Z" fill="#FFC10D"/>
<path d="M16.4144 16.8059C15.838 17.5338 15.726 18.199 15.8874 18.3637C16.0488 18.5284 16.7009 18.4395 17.4386 17.8993L16.4144 16.8059Z" fill="white"/>
<path d="M18.8087 15.5281C18.644 15.3601 17.9656 15.4556 17.2114 16.0286L18.2455 17.1352C18.8482 16.3877 18.9733 15.696 18.8087 15.5281Z" fill="white"/>
<path d="M19.6056 14.7541C18.835 13.9604 17.2838 14.3062 15.996 15.5544C14.7083 16.8059 14.323 18.3439 15.0903 19.1376C15.861 19.9313 17.4122 19.5855 18.6999 18.3373C19.9877 17.0858 20.3763 15.5478 19.6056 14.7541ZM15.8874 18.367C15.726 18.2023 15.8413 17.537 16.4143 16.8092L17.4386 17.9026C16.7042 18.4361 16.0488 18.5316 15.8874 18.367ZM17.2081 16.0286C17.9656 15.4589 18.644 15.3601 18.8054 15.5281C18.97 15.696 18.8482 16.3876 18.2422 17.1352L17.2081 16.0286Z" fill="#194F82"/>
<path d="M18.8251 11.161C18.97 10.0644 17.7383 9.05987 15.9631 8.82272C14.1847 8.58557 12.7356 9.23767 12.5907 10.3311C12.4458 11.4278 13.6775 12.4323 15.4526 12.6694C17.2311 12.9065 18.6802 12.2577 18.8251 11.161ZM16.3419 10.0709C17.2607 10.3113 17.7547 10.7823 17.7284 11.0162C17.6955 11.2533 17.0796 11.5826 16.1179 11.5662L16.3419 10.0709ZM15.0179 11.4113C14.1386 11.1676 13.6611 10.7098 13.6907 10.4826C13.7236 10.2488 14.3131 9.93261 15.2418 9.93261L15.0179 11.4113Z" fill="#194F82"/>
<path d="M13.6907 10.4758C13.6578 10.703 14.1386 11.1608 15.0179 11.4045L15.2419 9.92578C14.3132 9.92578 13.7203 10.2486 13.6907 10.4758Z" fill="white"/>
<path d="M17.7251 11.0158C17.758 10.782 17.2574 10.311 16.3386 10.0706L16.1113 11.5657C17.0763 11.579 17.6955 11.2529 17.7251 11.0158Z" fill="white"/>
<path d="M3.64251 1.54102C3.33623 1.54102 3.08594 1.788 3.08594 2.09759V2.86823C3.08594 3.17451 3.33292 3.42481 3.64251 3.42481C3.9521 3.42481 4.19908 3.17782 4.19908 2.86823V2.09764C4.19582 1.78805 3.94879 1.54102 3.64251 1.54102Z" fill="#194F82"/>
<path d="M5.81286 1.54102C5.50658 1.54102 5.25629 1.788 5.25629 2.09759V2.86823C5.25629 3.17451 5.50327 3.42481 5.81286 3.42481C6.12245 3.42481 6.36943 3.17782 6.36943 2.86823V2.09764C6.36943 1.78805 6.12245 1.54102 5.81286 1.54102Z" fill="#194F82"/>
<path d="M7.9865 1.54102C7.68022 1.54102 7.42993 1.788 7.42993 2.09759V2.86823C7.42993 3.17451 7.67691 3.42481 7.9865 3.42481C8.2961 3.42481 8.54308 3.17782 8.54308 2.86823V2.09764C8.54308 1.78805 8.29279 1.54102 7.9865 1.54102Z" fill="#194F82"/>
<path d="M10.1338 6.44483C9.64637 6.07599 9.31044 5.53913 9.17874 4.94634H9.86049C10.1668 4.94634 10.4171 4.69936 10.4171 4.38976V1.67598C10.4171 0.757138 9.66944 0.00952148 8.7506 0.00952148H2.88175C1.96291 0.00952148 1.21529 0.757138 1.21529 1.67598V4.38976C1.21529 4.69605 1.46227 4.94634 1.77186 4.94634H2.45687C2.32181 5.53587 1.98919 6.07599 1.49518 6.44483C0.559885 7.15291 0 8.27594 0 9.44839V17.7906C0 19.0025 0.988025 19.9906 2.2 19.9906H9.42903C10.641 19.9906 11.629 19.0025 11.629 17.7906V9.45496C11.629 8.27594 11.0692 7.15623 10.1338 6.44483ZM2.32513 3.83976V1.67924C2.32513 1.37296 2.57211 1.12267 2.8817 1.12267H8.75055C9.05683 1.12267 9.30712 1.36965 9.30712 1.67924V3.8364H2.32513V3.83976ZM10.5192 15.6763H6.0006V10.8909H10.5192V15.6763ZM10.5192 9.78432H5.44402C5.13774 9.78432 4.88745 10.0313 4.88745 10.3409V16.2394C4.88745 16.5457 5.13443 16.796 5.44402 16.796H10.5192V17.8004C10.5192 18.4031 10.0317 18.8906 9.42903 18.8906H2.2C1.59733 18.8906 1.10989 18.4031 1.10989 17.8004V14.5433H2.19669C2.50297 14.5433 2.75327 14.2963 2.75327 13.9867C2.75327 13.6804 2.50629 13.4301 2.19669 13.4301H1.10989V12.3203H3.06286C3.36914 12.3203 3.61943 12.0733 3.61943 11.7637C3.61943 11.4574 3.37245 11.2071 3.06286 11.2071H1.10989V9.4517C1.10989 8.62507 1.50512 7.83135 2.16378 7.33402C2.93117 6.75437 3.43832 5.88821 3.58652 4.9496H8.04578C8.19067 5.89152 8.69787 6.75111 9.46852 7.33402C10.1305 7.83461 10.5224 8.62502 10.5224 9.4517V9.78106H10.5191V9.78432H10.5192Z" fill="#194F82"/>
<path d="M10.5192 10.8909H6.00061V15.6795H10.5192V10.8909Z" fill="#56ACE0"/>
</g>
<defs>
<clipPath id="clip0_1600_191">
<rect width="20" height="20" fill="white"/>
</clipPath>
</defs>
</svg>
